G04*
G04 #@! TF.GenerationSoftware,Altium Limited,Altium Designer,20.0.13 (296)*
G04*
G04 Layer_Physical_Order=1*
G04 Layer_Color=255*
%FSAX44Y44*%
%MOMM*%
G71*
G01*
G75*
%ADD10C,0.2500*%
%ADD12C,0.2000*%
%ADD66C,1.2000*%
%ADD67C,1.3000*%
G04:AMPARAMS|DCode=75|XSize=0.95mm|YSize=0.85mm|CornerRadius=0.2125mm|HoleSize=0mm|Usage=FLASHONLY|Rotation=90.000|XOffset=0mm|YOffset=0mm|HoleType=Round|Shape=RoundedRectangle|*
%AMROUNDEDRECTD75*
21,1,0.9500,0.4250,0,0,90.0*
21,1,0.5250,0.8500,0,0,90.0*
1,1,0.4250,0.2125,0.2625*
1,1,0.4250,0.2125,-0.2625*
1,1,0.4250,-0.2125,-0.2625*
1,1,0.4250,-0.2125,0.2625*
%
%ADD75ROUNDEDRECTD75*%
G04:AMPARAMS|DCode=76|XSize=0.85mm|YSize=0.8mm|CornerRadius=0.2mm|HoleSize=0mm|Usage=FLASHONLY|Rotation=270.000|XOffset=0mm|YOffset=0mm|HoleType=Round|Shape=RoundedRectangle|*
%AMROUNDEDRECTD76*
21,1,0.8500,0.4000,0,0,270.0*
21,1,0.4500,0.8000,0,0,270.0*
1,1,0.4000,-0.2000,-0.2250*
1,1,0.4000,-0.2000,0.2250*
1,1,0.4000,0.2000,0.2250*
1,1,0.4000,0.2000,-0.2250*
%
%ADD76ROUNDEDRECTD76*%
G04:AMPARAMS|DCode=77|XSize=0.94mm|YSize=0.98mm|CornerRadius=0.235mm|HoleSize=0mm|Usage=FLASHONLY|Rotation=90.000|XOffset=0mm|YOffset=0mm|HoleType=Round|Shape=RoundedRectangle|*
%AMROUNDEDRECTD77*
21,1,0.9400,0.5100,0,0,90.0*
21,1,0.4700,0.9800,0,0,90.0*
1,1,0.4700,0.2550,0.2350*
1,1,0.4700,0.2550,-0.2350*
1,1,0.4700,-0.2550,-0.2350*
1,1,0.4700,-0.2550,0.2350*
%
%ADD77ROUNDEDRECTD77*%
G04:AMPARAMS|DCode=78|XSize=1.5mm|YSize=2.3mm|CornerRadius=0.375mm|HoleSize=0mm|Usage=FLASHONLY|Rotation=180.000|XOffset=0mm|YOffset=0mm|HoleType=Round|Shape=RoundedRectangle|*
%AMROUNDEDRECTD78*
21,1,1.5000,1.5500,0,0,180.0*
21,1,0.7500,2.3000,0,0,180.0*
1,1,0.7500,-0.3750,0.7750*
1,1,0.7500,0.3750,0.7750*
1,1,0.7500,0.3750,-0.7750*
1,1,0.7500,-0.3750,-0.7750*
%
%ADD78ROUNDEDRECTD78*%
G04:AMPARAMS|DCode=79|XSize=0.7mm|YSize=3.2mm|CornerRadius=0.175mm|HoleSize=0mm|Usage=FLASHONLY|Rotation=180.000|XOffset=0mm|YOffset=0mm|HoleType=Round|Shape=RoundedRectangle|*
%AMROUNDEDRECTD79*
21,1,0.7000,2.8500,0,0,180.0*
21,1,0.3500,3.2000,0,0,180.0*
1,1,0.3500,-0.1750,1.4250*
1,1,0.3500,0.1750,1.4250*
1,1,0.3500,0.1750,-1.4250*
1,1,0.3500,-0.1750,-1.4250*
%
%ADD79ROUNDEDRECTD79*%
G04:AMPARAMS|DCode=80|XSize=2mm|YSize=2.5mm|CornerRadius=0.5mm|HoleSize=0mm|Usage=FLASHONLY|Rotation=180.000|XOffset=0mm|YOffset=0mm|HoleType=Round|Shape=RoundedRectangle|*
%AMROUNDEDRECTD80*
21,1,2.0000,1.5000,0,0,180.0*
21,1,1.0000,2.5000,0,0,180.0*
1,1,1.0000,-0.5000,0.7500*
1,1,1.0000,0.5000,0.7500*
1,1,1.0000,0.5000,-0.7500*
1,1,1.0000,-0.5000,-0.7500*
%
%ADD80ROUNDEDRECTD80*%
G04:AMPARAMS|DCode=81|XSize=0.5mm|YSize=2.3mm|CornerRadius=0.125mm|HoleSize=0mm|Usage=FLASHONLY|Rotation=180.000|XOffset=0mm|YOffset=0mm|HoleType=Round|Shape=RoundedRectangle|*
%AMROUNDEDRECTD81*
21,1,0.5000,2.0500,0,0,180.0*
21,1,0.2500,2.3000,0,0,180.0*
1,1,0.2500,-0.1250,1.0250*
1,1,0.2500,0.1250,1.0250*
1,1,0.2500,0.1250,-1.0250*
1,1,0.2500,-0.1250,-1.0250*
%
%ADD81ROUNDEDRECTD81*%
G04:AMPARAMS|DCode=82|XSize=0.6mm|YSize=0.9mm|CornerRadius=0.15mm|HoleSize=0mm|Usage=FLASHONLY|Rotation=90.000|XOffset=0mm|YOffset=0mm|HoleType=Round|Shape=RoundedRectangle|*
%AMROUNDEDRECTD82*
21,1,0.6000,0.6000,0,0,90.0*
21,1,0.3000,0.9000,0,0,90.0*
1,1,0.3000,0.3000,0.1500*
1,1,0.3000,0.3000,-0.1500*
1,1,0.3000,-0.3000,-0.1500*
1,1,0.3000,-0.3000,0.1500*
%
%ADD82ROUNDEDRECTD82*%
G04:AMPARAMS|DCode=83|XSize=0.6mm|YSize=0.9mm|CornerRadius=0.15mm|HoleSize=0mm|Usage=FLASHONLY|Rotation=0.000|XOffset=0mm|YOffset=0mm|HoleType=Round|Shape=RoundedRectangle|*
%AMROUNDEDRECTD83*
21,1,0.6000,0.6000,0,0,0.0*
21,1,0.3000,0.9000,0,0,0.0*
1,1,0.3000,0.1500,-0.3000*
1,1,0.3000,-0.1500,-0.3000*
1,1,0.3000,-0.1500,0.3000*
1,1,0.3000,0.1500,0.3000*
%
%ADD83ROUNDEDRECTD83*%
G04:AMPARAMS|DCode=84|XSize=0.3mm|YSize=0.66mm|CornerRadius=0.075mm|HoleSize=0mm|Usage=FLASHONLY|Rotation=180.000|XOffset=0mm|YOffset=0mm|HoleType=Round|Shape=RoundedRectangle|*
%AMROUNDEDRECTD84*
21,1,0.3000,0.5100,0,0,180.0*
21,1,0.1500,0.6600,0,0,180.0*
1,1,0.1500,-0.0750,0.2550*
1,1,0.1500,0.0750,0.2550*
1,1,0.1500,0.0750,-0.2550*
1,1,0.1500,-0.0750,-0.2550*
%
%ADD84ROUNDEDRECTD84*%
G04:AMPARAMS|DCode=85|XSize=1mm|YSize=1mm|CornerRadius=0.25mm|HoleSize=0mm|Usage=FLASHONLY|Rotation=270.000|XOffset=0mm|YOffset=0mm|HoleType=Round|Shape=RoundedRectangle|*
%AMROUNDEDRECTD85*
21,1,1.0000,0.5000,0,0,270.0*
21,1,0.5000,1.0000,0,0,270.0*
1,1,0.5000,-0.2500,-0.2500*
1,1,0.5000,-0.2500,0.2500*
1,1,0.5000,0.2500,0.2500*
1,1,0.5000,0.2500,-0.2500*
%
%ADD85ROUNDEDRECTD85*%
G04:AMPARAMS|DCode=86|XSize=0.6mm|YSize=1mm|CornerRadius=0.15mm|HoleSize=0mm|Usage=FLASHONLY|Rotation=270.000|XOffset=0mm|YOffset=0mm|HoleType=Round|Shape=RoundedRectangle|*
%AMROUNDEDRECTD86*
21,1,0.6000,0.7000,0,0,270.0*
21,1,0.3000,1.0000,0,0,270.0*
1,1,0.3000,-0.3500,-0.1500*
1,1,0.3000,-0.3500,0.1500*
1,1,0.3000,0.3500,0.1500*
1,1,0.3000,0.3500,-0.1500*
%
%ADD86ROUNDEDRECTD86*%
G04:AMPARAMS|DCode=87|XSize=0.85mm|YSize=0.8mm|CornerRadius=0.2mm|HoleSize=0mm|Usage=FLASHONLY|Rotation=0.000|XOffset=0mm|YOffset=0mm|HoleType=Round|Shape=RoundedRectangle|*
%AMROUNDEDRECTD87*
21,1,0.8500,0.4000,0,0,0.0*
21,1,0.4500,0.8000,0,0,0.0*
1,1,0.4000,0.2250,-0.2000*
1,1,0.4000,-0.2250,-0.2000*
1,1,0.4000,-0.2250,0.2000*
1,1,0.4000,0.2250,0.2000*
%
%ADD87ROUNDEDRECTD87*%
%ADD88C,1.0000*%
G04:AMPARAMS|DCode=89|XSize=0.94mm|YSize=0.98mm|CornerRadius=0.235mm|HoleSize=0mm|Usage=FLASHONLY|Rotation=180.000|XOffset=0mm|YOffset=0mm|HoleType=Round|Shape=RoundedRectangle|*
%AMROUNDEDRECTD89*
21,1,0.9400,0.5100,0,0,180.0*
21,1,0.4700,0.9800,0,0,180.0*
1,1,0.4700,-0.2350,0.2550*
1,1,0.4700,0.2350,0.2550*
1,1,0.4700,0.2350,-0.2550*
1,1,0.4700,-0.2350,-0.2550*
%
%ADD89ROUNDEDRECTD89*%
%ADD90R,3.1300X3.1300*%
G04:AMPARAMS|DCode=91|XSize=0.25mm|YSize=0.9mm|CornerRadius=0.0625mm|HoleSize=0mm|Usage=FLASHONLY|Rotation=180.000|XOffset=0mm|YOffset=0mm|HoleType=Round|Shape=RoundedRectangle|*
%AMROUNDEDRECTD91*
21,1,0.2500,0.7750,0,0,180.0*
21,1,0.1250,0.9000,0,0,180.0*
1,1,0.1250,-0.0625,0.3875*
1,1,0.1250,0.0625,0.3875*
1,1,0.1250,0.0625,-0.3875*
1,1,0.1250,-0.0625,-0.3875*
%
%ADD91ROUNDEDRECTD91*%
G04:AMPARAMS|DCode=92|XSize=0.25mm|YSize=0.9mm|CornerRadius=0.0625mm|HoleSize=0mm|Usage=FLASHONLY|Rotation=270.000|XOffset=0mm|YOffset=0mm|HoleType=Round|Shape=RoundedRectangle|*
%AMROUNDEDRECTD92*
21,1,0.2500,0.7750,0,0,270.0*
21,1,0.1250,0.9000,0,0,270.0*
1,1,0.1250,-0.3875,-0.0625*
1,1,0.1250,-0.3875,0.0625*
1,1,0.1250,0.3875,0.0625*
1,1,0.1250,0.3875,-0.0625*
%
%ADD92ROUNDEDRECTD92*%
G04:AMPARAMS|DCode=93|XSize=1.7mm|YSize=0.9mm|CornerRadius=0.225mm|HoleSize=0mm|Usage=FLASHONLY|Rotation=90.000|XOffset=0mm|YOffset=0mm|HoleType=Round|Shape=RoundedRectangle|*
%AMROUNDEDRECTD93*
21,1,1.7000,0.4500,0,0,90.0*
21,1,1.2500,0.9000,0,0,90.0*
1,1,0.4500,0.2250,0.6250*
1,1,0.4500,0.2250,-0.6250*
1,1,0.4500,-0.2250,-0.6250*
1,1,0.4500,-0.2250,0.6250*
%
%ADD93ROUNDEDRECTD93*%
G04:AMPARAMS|DCode=94|XSize=1.7mm|YSize=0.9mm|CornerRadius=0.225mm|HoleSize=0mm|Usage=FLASHONLY|Rotation=180.000|XOffset=0mm|YOffset=0mm|HoleType=Round|Shape=RoundedRectangle|*
%AMROUNDEDRECTD94*
21,1,1.7000,0.4500,0,0,180.0*
21,1,1.2500,0.9000,0,0,180.0*
1,1,0.4500,-0.6250,0.2250*
1,1,0.4500,0.6250,0.2250*
1,1,0.4500,0.6250,-0.2250*
1,1,0.4500,-0.6250,-0.2250*
%
%ADD94ROUNDEDRECTD94*%
G04:AMPARAMS|DCode=95|XSize=1.8mm|YSize=0.8mm|CornerRadius=0.2mm|HoleSize=0mm|Usage=FLASHONLY|Rotation=270.000|XOffset=0mm|YOffset=0mm|HoleType=Round|Shape=RoundedRectangle|*
%AMROUNDEDRECTD95*
21,1,1.8000,0.4000,0,0,270.0*
21,1,1.4000,0.8000,0,0,270.0*
1,1,0.4000,-0.2000,-0.7000*
1,1,0.4000,-0.2000,0.7000*
1,1,0.4000,0.2000,0.7000*
1,1,0.4000,0.2000,-0.7000*
%
%ADD95ROUNDEDRECTD95*%
G04:AMPARAMS|DCode=96|XSize=1.35mm|YSize=0.7mm|CornerRadius=0.175mm|HoleSize=0mm|Usage=FLASHONLY|Rotation=270.000|XOffset=0mm|YOffset=0mm|HoleType=Round|Shape=RoundedRectangle|*
%AMROUNDEDRECTD96*
21,1,1.3500,0.3500,0,0,270.0*
21,1,1.0000,0.7000,0,0,270.0*
1,1,0.3500,-0.1750,-0.5000*
1,1,0.3500,-0.1750,0.5000*
1,1,0.3500,0.1750,0.5000*
1,1,0.3500,0.1750,-0.5000*
%
%ADD96ROUNDEDRECTD96*%
G04:AMPARAMS|DCode=97|XSize=3.2mm|YSize=2.15mm|CornerRadius=0.5375mm|HoleSize=0mm|Usage=FLASHONLY|Rotation=0.000|XOffset=0mm|YOffset=0mm|HoleType=Round|Shape=RoundedRectangle|*
%AMROUNDEDRECTD97*
21,1,3.2000,1.0750,0,0,0.0*
21,1,2.1250,2.1500,0,0,0.0*
1,1,1.0750,1.0625,-0.5375*
1,1,1.0750,-1.0625,-0.5375*
1,1,1.0750,-1.0625,0.5375*
1,1,1.0750,1.0625,0.5375*
%
%ADD97ROUNDEDRECTD97*%
G04:AMPARAMS|DCode=98|XSize=0.9mm|YSize=2.15mm|CornerRadius=0.225mm|HoleSize=0mm|Usage=FLASHONLY|Rotation=0.000|XOffset=0mm|YOffset=0mm|HoleType=Round|Shape=RoundedRectangle|*
%AMROUNDEDRECTD98*
21,1,0.9000,1.7000,0,0,0.0*
21,1,0.4500,2.1500,0,0,0.0*
1,1,0.4500,0.2250,-0.8500*
1,1,0.4500,-0.2250,-0.8500*
1,1,0.4500,-0.2250,0.8500*
1,1,0.4500,0.2250,0.8500*
%
%ADD98ROUNDEDRECTD98*%
%ADD99O,0.4500X1.4000*%
G04:AMPARAMS|DCode=100|XSize=0.95mm|YSize=0.85mm|CornerRadius=0.2125mm|HoleSize=0mm|Usage=FLASHONLY|Rotation=0.000|XOffset=0mm|YOffset=0mm|HoleType=Round|Shape=RoundedRectangle|*
%AMROUNDEDRECTD100*
21,1,0.9500,0.4250,0,0,0.0*
21,1,0.5250,0.8500,0,0,0.0*
1,1,0.4250,0.2625,-0.2125*
1,1,0.4250,-0.2625,-0.2125*
1,1,0.4250,-0.2625,0.2125*
1,1,0.4250,0.2625,0.2125*
%
%ADD100ROUNDEDRECTD100*%
%ADD101C,0.4000*%
%ADD102C,0.2078*%
%ADD103C,0.4500*%
%ADD104C,1.0000*%
%ADD105C,0.5000*%
%ADD106C,2.5000*%
G04:AMPARAMS|DCode=107|XSize=1.2mm|YSize=1.2mm|CornerRadius=0.3mm|HoleSize=0mm|Usage=FLASHONLY|Rotation=0.000|XOffset=0mm|YOffset=0mm|HoleType=Round|Shape=RoundedRectangle|*
%AMROUNDEDRECTD107*
21,1,1.2000,0.6000,0,0,0.0*
21,1,0.6000,1.2000,0,0,0.0*
1,1,0.6000,0.3000,-0.3000*
1,1,0.6000,-0.3000,-0.3000*
1,1,0.6000,-0.3000,0.3000*
1,1,0.6000,0.3000,0.3000*
%
%ADD107ROUNDEDRECTD107*%
%ADD108C,5.0000*%
G04:AMPARAMS|DCode=109|XSize=1.3mm|YSize=1.3mm|CornerRadius=0.325mm|HoleSize=0mm|Usage=FLASHONLY|Rotation=90.000|XOffset=0mm|YOffset=0mm|HoleType=Round|Shape=RoundedRectangle|*
%AMROUNDEDRECTD109*
21,1,1.3000,0.6500,0,0,90.0*
21,1,0.6500,1.3000,0,0,90.0*
1,1,0.6500,0.3250,0.3250*
1,1,0.6500,0.3250,-0.3250*
1,1,0.6500,-0.3250,-0.3250*
1,1,0.6500,-0.3250,0.3250*
%
%ADD109ROUNDEDRECTD109*%
%ADD110C,0.6000*%
G36*
X00298957Y00047500D02*
X00298400Y00047478D01*
X00297857Y00047412D01*
X00297327Y00047302D01*
X00296810Y00047148D01*
X00296306Y00046950D01*
X00295816Y00046708D01*
X00295338Y00046422D01*
X00294874Y00046092D01*
X00294423Y00045718D01*
X00293985Y00045300D01*
Y00053700D01*
X00294423Y00053282D01*
X00294874Y00052908D01*
X00295338Y00052578D01*
X00295816Y00052292D01*
X00296306Y00052050D01*
X00296810Y00051852D01*
X00297327Y00051698D01*
X00297857Y00051588D01*
X00298400Y00051522D01*
X00298957Y00051500D01*
Y00047500D01*
D02*
G37*
G36*
X00139000Y00254710D02*
X00139078Y00253981D01*
X00139310Y00253169D01*
X00139698Y00252274D01*
X00140240Y00251295D01*
X00140938Y00250233D01*
X00141790Y00249088D01*
X00143960Y00246549D01*
X00146750Y00243677D01*
X00129250D01*
X00130723Y00245154D01*
X00134210Y00249088D01*
X00135063Y00250233D01*
X00135760Y00251295D01*
X00136302Y00252274D01*
X00136690Y00253169D01*
X00136923Y00253981D01*
X00137000Y00254710D01*
X00139000D01*
D02*
G37*
G36*
X00239000D02*
X00239077Y00253981D01*
X00239310Y00253169D01*
X00239697Y00252274D01*
X00240240Y00251295D01*
X00240938Y00250233D01*
X00241790Y00249088D01*
X00243960Y00246549D01*
X00246750Y00243677D01*
X00229250D01*
X00230723Y00245154D01*
X00234210Y00249088D01*
X00235063Y00250233D01*
X00235760Y00251295D01*
X00236303Y00252274D01*
X00236690Y00253169D01*
X00236922Y00253981D01*
X00237000Y00254710D01*
X00239000D01*
D02*
G37*
G36*
X00497768Y00372250D02*
X00497747Y00372440D01*
X00497686Y00372610D01*
X00497585Y00372760D01*
X00497443Y00372890D01*
X00497260Y00373000D01*
X00497037Y00373090D01*
X00496773Y00373160D01*
X00496468Y00373210D01*
X00496123Y00373240D01*
X00495737Y00373250D01*
Y00375250D01*
X00496123Y00375260D01*
X00496468Y00375290D01*
X00496773Y00375340D01*
X00497037Y00375410D01*
X00497260Y00375500D01*
X00497443Y00375610D01*
X00497585Y00375740D01*
X00497686Y00375890D01*
X00497747Y00376060D01*
X00497768Y00376250D01*
Y00372250D01*
D02*
G37*
G36*
X00303608Y00047400D02*
X00303571Y00047419D01*
X00303500Y00047436D01*
X00303396Y00047451D01*
X00303085Y00047475D01*
X00302056Y00047499D01*
X00301714Y00047500D01*
Y00051500D01*
X00303608Y00051600D01*
Y00047400D01*
D02*
G37*
G36*
X00373608Y00047400D02*
X00373571Y00047419D01*
X00373501Y00047436D01*
X00373396Y00047451D01*
X00373085Y00047475D01*
X00372056Y00047499D01*
X00371714Y00047500D01*
Y00051500D01*
X00373608Y00051600D01*
Y00047400D01*
D02*
G37*
G36*
X00364423Y00053282D02*
X00364874Y00052908D01*
X00365338Y00052578D01*
X00365816Y00052292D01*
X00366306Y00052050D01*
X00366810Y00051852D01*
X00367327Y00051698D01*
X00367857Y00051588D01*
X00368400Y00051522D01*
X00368957Y00051500D01*
Y00047500D01*
X00368400Y00047478D01*
X00367857Y00047412D01*
X00367327Y00047302D01*
X00366810Y00047148D01*
X00366306Y00046950D01*
X00365816Y00046708D01*
X00365338Y00046422D01*
X00364874Y00046092D01*
X00364423Y00045718D01*
X00363985Y00045300D01*
Y00053700D01*
X00364423Y00053282D01*
D02*
G37*
G36*
X00337250Y00706500D02*
X00332750Y00699750D01*
X00332705Y00700605D01*
X00332570Y00701370D01*
X00332345Y00702045D01*
X00332030Y00702630D01*
X00331625Y00703125D01*
X00331130Y00703530D01*
X00330545Y00703845D01*
X00329870Y00704070D01*
X00329105Y00704205D01*
X00328250Y00704250D01*
Y00708750D01*
X00329105Y00708795D01*
X00329870Y00708930D01*
X00330545Y00709155D01*
X00331130Y00709470D01*
X00331625Y00709875D01*
X00332030Y00710370D01*
X00332345Y00710955D01*
X00332570Y00711630D01*
X00332705Y00712395D01*
X00332750Y00713250D01*
X00337250Y00706500D01*
D02*
G37*
G36*
X00370000Y00556000D02*
X00375750Y00550250D01*
X00400250D01*
X00469000Y00481500D01*
X00508000D01*
X00513750Y00475750D01*
Y00459750D01*
X00511750Y00457750D01*
X00507750D01*
X00505500Y00460000D01*
Y00465500D01*
X00501750Y00469250D01*
X00429750D01*
X00398000Y00501000D01*
X00316250D01*
X00309000Y00508250D01*
Y00545250D01*
X00311250Y00547500D01*
X00316169D01*
Y00547500D01*
X00316169Y00547500D01*
X00329831D01*
X00329831Y00547500D01*
Y00547500D01*
X00331875D01*
X00334625Y00550250D01*
X00355250D01*
X00361000Y00556000D01*
Y00556475D01*
D01*
Y00570250D01*
X00370000D01*
Y00556000D01*
D02*
G37*
G36*
X00661108Y00431450D02*
X00660649Y00431887D01*
X00660172Y00432278D01*
X00659679Y00432623D01*
X00659169Y00432922D01*
X00658642Y00433175D01*
X00658098Y00433382D01*
X00657537Y00433543D01*
X00656959Y00433658D01*
X00656364Y00433727D01*
X00655752Y00433750D01*
Y00438250D01*
X00656364Y00438273D01*
X00656959Y00438342D01*
X00657537Y00438457D01*
X00658098Y00438618D01*
X00658642Y00438825D01*
X00659169Y00439078D01*
X00659679Y00439377D01*
X00660172Y00439722D01*
X00660649Y00440113D01*
X00661108Y00440550D01*
Y00431450D01*
D02*
G37*
G36*
X00497768Y00431250D02*
X00497747Y00431440D01*
X00497686Y00431610D01*
X00497585Y00431760D01*
X00497443Y00431890D01*
X00497260Y00432000D01*
X00497037Y00432090D01*
X00496773Y00432160D01*
X00496468Y00432210D01*
X00496123Y00432240D01*
X00495737Y00432250D01*
Y00434250D01*
X00496123Y00434260D01*
X00496468Y00434290D01*
X00496773Y00434340D01*
X00497037Y00434410D01*
X00497260Y00434500D01*
X00497443Y00434610D01*
X00497585Y00434740D01*
X00497686Y00434890D01*
X00497747Y00435060D01*
X00497768Y00435250D01*
Y00431250D01*
D02*
G37*
G36*
X00661108Y00400450D02*
X00660425Y00401124D01*
X00659135Y00402261D01*
X00658529Y00402722D01*
X00657948Y00403112D01*
X00657393Y00403432D01*
X00656863Y00403680D01*
X00656359Y00403858D01*
X00655880Y00403965D01*
X00655427Y00404000D01*
Y00406000D01*
X00655880Y00406035D01*
X00656359Y00406142D01*
X00656863Y00406320D01*
X00657393Y00406568D01*
X00657948Y00406888D01*
X00658529Y00407278D01*
X00659135Y00407739D01*
X00660425Y00408876D01*
X00661108Y00409550D01*
Y00400450D01*
D02*
G37*
G36*
X00850534Y00733832D02*
X00850660Y00732805D01*
X00850877Y00731793D01*
X00851185Y00730796D01*
X00851583Y00729814D01*
X00852073Y00728847D01*
X00852653Y00727895D01*
X00853325Y00726959D01*
X00854087Y00726038D01*
X00854940Y00725131D01*
X00847869Y00718060D01*
X00846963Y00718913D01*
X00846041Y00719676D01*
X00845105Y00720347D01*
X00844153Y00720927D01*
X00843186Y00721417D01*
X00842204Y00721815D01*
X00841207Y00722123D01*
X00840195Y00722340D01*
X00839168Y00722466D01*
X00838125Y00722501D01*
X00850499Y00734875D01*
X00850534Y00733832D01*
D02*
G37*
G36*
X00899573Y00693750D02*
X00898811Y00694463D01*
X00897996Y00695100D01*
X00897127Y00695663D01*
X00896204Y00696150D01*
X00895228Y00696562D01*
X00894198Y00696900D01*
X00893115Y00697162D01*
X00891978Y00697350D01*
X00890788Y00697462D01*
X00889544Y00697500D01*
Y00707500D01*
X00890788Y00707538D01*
X00891978Y00707650D01*
X00893115Y00707838D01*
X00894198Y00708100D01*
X00895228Y00708438D01*
X00896204Y00708850D01*
X00897127Y00709337D01*
X00897996Y00709900D01*
X00898811Y00710537D01*
X00899573Y00711250D01*
Y00693750D01*
D02*
G37*
G36*
X00901189Y00635537D02*
X00902004Y00634900D01*
X00902873Y00634338D01*
X00903796Y00633850D01*
X00904772Y00633438D01*
X00905802Y00633100D01*
X00906885Y00632837D01*
X00908022Y00632650D01*
X00909212Y00632537D01*
X00910456Y00632500D01*
Y00622500D01*
X00909212Y00622463D01*
X00908022Y00622350D01*
X00906885Y00622163D01*
X00905802Y00621900D01*
X00904772Y00621562D01*
X00903796Y00621150D01*
X00902873Y00620662D01*
X00902004Y00620100D01*
X00901189Y00619463D01*
X00900427Y00618750D01*
Y00636250D01*
X00901189Y00635537D01*
D02*
G37*
G36*
X00882573Y00618750D02*
X00881811Y00619463D01*
X00880996Y00620100D01*
X00880127Y00620662D01*
X00879204Y00621150D01*
X00878228Y00621562D01*
X00877198Y00621900D01*
X00876115Y00622163D01*
X00874978Y00622350D01*
X00873788Y00622463D01*
X00872544Y00622500D01*
Y00632500D01*
X00873788Y00632537D01*
X00874978Y00632650D01*
X00876115Y00632837D01*
X00877198Y00633100D01*
X00878228Y00633438D01*
X00879204Y00633850D01*
X00880127Y00634338D01*
X00880996Y00634900D01*
X00881811Y00635537D01*
X00882573Y00636250D01*
Y00618750D01*
D02*
G37*
G36*
X00847689Y00635537D02*
X00848504Y00634900D01*
X00849373Y00634338D01*
X00850296Y00633850D01*
X00851272Y00633438D01*
X00852302Y00633100D01*
X00853385Y00632837D01*
X00854522Y00632650D01*
X00855713Y00632537D01*
X00856956Y00632500D01*
Y00622500D01*
X00855713Y00622463D01*
X00854522Y00622350D01*
X00853385Y00622163D01*
X00852302Y00621900D01*
X00851272Y00621562D01*
X00850296Y00621150D01*
X00849373Y00620662D01*
X00848504Y00620100D01*
X00847689Y00619463D01*
X00846927Y00618750D01*
Y00636250D01*
X00847689Y00635537D01*
D02*
G37*
G36*
X00691184Y00444779D02*
X00692840Y00443375D01*
X00693572Y00442864D01*
X00694240Y00442480D01*
X00694843Y00442223D01*
X00695383Y00442093D01*
X00695858Y00442091D01*
X00696269Y00442215D01*
X00696617Y00442467D01*
X00690283Y00436133D01*
X00690535Y00436480D01*
X00690659Y00436892D01*
X00690657Y00437367D01*
X00690527Y00437907D01*
X00690270Y00438510D01*
X00689886Y00439178D01*
X00689375Y00439910D01*
X00688736Y00440706D01*
X00687078Y00442490D01*
X00690260Y00445672D01*
X00691184Y00444779D01*
D02*
G37*
G36*
X00690503Y00412711D02*
X00690917Y00412448D01*
X00691399Y00412217D01*
X00691949Y00412018D01*
X00692568Y00411852D01*
X00693255Y00411717D01*
X00694010Y00411614D01*
X00695725Y00411506D01*
X00696685Y00411500D01*
X00690250Y00405065D01*
X00690244Y00406025D01*
X00690136Y00407740D01*
X00690033Y00408495D01*
X00689899Y00409182D01*
X00689732Y00409801D01*
X00689533Y00410351D01*
X00689302Y00410833D01*
X00689039Y00411247D01*
X00688744Y00411592D01*
X00690158Y00413006D01*
X00690503Y00412711D01*
D02*
G37*
G36*
X00840277Y00392750D02*
X00840237Y00393130D01*
X00840116Y00393470D01*
X00839914Y00393770D01*
X00839632Y00394030D01*
X00839270Y00394250D01*
X00838826Y00394430D01*
X00838302Y00394570D01*
X00837698Y00394670D01*
X00837013Y00394730D01*
X00836247Y00394750D01*
Y00398750D01*
X00837012Y00398770D01*
X00837698Y00398830D01*
X00838302Y00398929D01*
X00838826Y00399069D01*
X00839269Y00399249D01*
X00839632Y00399468D01*
X00839914Y00399727D01*
X00840116Y00400026D01*
X00840236Y00400365D01*
X00840277Y00400744D01*
X00840277Y00392750D01*
D02*
G37*
G36*
X00920137Y00707174D02*
X00920507Y00706544D01*
X00921454Y00705169D01*
X00922031Y00704423D01*
X00924180Y00701953D01*
X00925958Y00700113D01*
X00923094Y00688835D01*
X00922158Y00689709D01*
X00921233Y00690446D01*
X00920320Y00691047D01*
X00919419Y00691510D01*
X00918531Y00691836D01*
X00917654Y00692025D01*
X00916789Y00692077D01*
X00915937Y00691992D01*
X00915097Y00691770D01*
X00914268Y00691410D01*
X00919837Y00707765D01*
X00920137Y00707174D01*
D02*
G37*
G36*
X00982538Y00643587D02*
X00983459Y00642824D01*
X00984395Y00642153D01*
X00985347Y00641573D01*
X00986314Y00641083D01*
X00987296Y00640685D01*
X00988293Y00640377D01*
X00989305Y00640160D01*
X00990332Y00640034D01*
X00991375Y00639999D01*
X00979001Y00627625D01*
X00978966Y00628668D01*
X00978840Y00629695D01*
X00978623Y00630707D01*
X00978315Y00631704D01*
X00977917Y00632686D01*
X00977427Y00633653D01*
X00976847Y00634605D01*
X00976176Y00635541D01*
X00975413Y00636463D01*
X00974560Y00637369D01*
X00981631Y00644440D01*
X00982538Y00643587D01*
D02*
G37*
G36*
X00932573Y00618750D02*
X00931811Y00619463D01*
X00930996Y00620100D01*
X00930127Y00620662D01*
X00929204Y00621150D01*
X00928228Y00621562D01*
X00927198Y00621900D01*
X00926115Y00622163D01*
X00924978Y00622350D01*
X00923788Y00622463D01*
X00922544Y00622500D01*
Y00632500D01*
X00923788Y00632537D01*
X00924978Y00632650D01*
X00926115Y00632837D01*
X00927198Y00633100D01*
X00928228Y00633438D01*
X00929204Y00633850D01*
X00930127Y00634338D01*
X00930996Y00634900D01*
X00931811Y00635537D01*
X00932573Y00636250D01*
Y00618750D01*
D02*
G37*
G36*
X00954034Y00626333D02*
X00954160Y00625305D01*
X00954377Y00624293D01*
X00954685Y00623296D01*
X00955083Y00622314D01*
X00955573Y00621347D01*
X00956153Y00620395D01*
X00956824Y00619459D01*
X00957587Y00618537D01*
X00958440Y00617631D01*
X00951369Y00610560D01*
X00950463Y00611413D01*
X00949541Y00612176D01*
X00948605Y00612847D01*
X00947653Y00613427D01*
X00946686Y00613917D01*
X00945704Y00614315D01*
X00944707Y00614623D01*
X00943695Y00614840D01*
X00942668Y00614966D01*
X00941625Y00615001D01*
X00953999Y00627375D01*
X00954034Y00626333D01*
D02*
G37*
G36*
X01010456Y00622500D02*
X01009212Y00622463D01*
X01008022Y00622350D01*
X01006885Y00622163D01*
X01005802Y00621900D01*
X01004772Y00621562D01*
X01003796Y00621150D01*
X01002873Y00620662D01*
X01002004Y00620100D01*
X01001189Y00619463D01*
X01000427Y00618750D01*
Y00636250D01*
X01001189Y00635537D01*
X01002004Y00634900D01*
X01002873Y00634338D01*
X01003796Y00633850D01*
X01004772Y00633438D01*
X01005802Y00633100D01*
X01006885Y00632837D01*
X01008022Y00632650D01*
X01009212Y00632537D01*
X01010456Y00632500D01*
Y00622500D01*
D02*
G37*
G36*
X01054060Y00608131D02*
X01054913Y00609038D01*
X01055676Y00609959D01*
X01056347Y00610895D01*
X01056927Y00611847D01*
X01057417Y00612814D01*
X01057815Y00613796D01*
X01058123Y00614793D01*
X01058340Y00615805D01*
X01058466Y00616832D01*
X01058501Y00617875D01*
X01070875Y00605501D01*
X01069832Y00605466D01*
X01068805Y00605340D01*
X01067793Y00605123D01*
X01066796Y00604815D01*
X01065814Y00604417D01*
X01064847Y00603927D01*
X01063895Y00603347D01*
X01062959Y00602676D01*
X01062038Y00601913D01*
X01061131Y00601060D01*
X01054060Y00608131D01*
D02*
G37*
G36*
Y00658131D02*
X01054913Y00659037D01*
X01055676Y00659959D01*
X01056347Y00660895D01*
X01056927Y00661847D01*
X01057417Y00662814D01*
X01057815Y00663796D01*
X01058123Y00664793D01*
X01058340Y00665805D01*
X01058466Y00666832D01*
X01058501Y00667875D01*
X01070875Y00655501D01*
X01069832Y00655466D01*
X01068805Y00655340D01*
X01067793Y00655123D01*
X01066796Y00654815D01*
X01065814Y00654417D01*
X01064847Y00653927D01*
X01063895Y00653347D01*
X01062959Y00652676D01*
X01062038Y00651913D01*
X01061131Y00651060D01*
X01054060Y00658131D01*
D02*
G37*
%LPC*%
G36*
X00329831Y00544500D02*
X00324500D01*
Y00539669D01*
X00325625D01*
X00327234Y00539989D01*
X00328599Y00540901D01*
X00329511Y00542266D01*
X00329831Y00543875D01*
Y00544500D01*
D02*
G37*
G36*
X00321500D02*
X00316169D01*
Y00543875D01*
X00316489Y00542266D01*
X00317401Y00540901D01*
X00318766Y00539989D01*
X00320375Y00539669D01*
X00321500D01*
Y00544500D01*
D02*
G37*
%LPD*%
D10*
X00172490Y00661750D02*
X00172500Y00661740D01*
X00165500Y00661750D02*
X00172490D01*
X00162250Y00665000D02*
X00165500Y00661750D01*
X00155250Y00665000D02*
X00162250D01*
X00152000Y00661750D02*
X00155250Y00665000D01*
X00152000Y00657790D02*
Y00661750D01*
X00148000Y00741640D02*
X00153000Y00736640D01*
X00172000D01*
X00156750Y00794890D02*
X00165360Y00803500D01*
X00181250D01*
X00185750Y00799000D01*
Y00764890D02*
Y00799000D01*
X00163000Y00771140D02*
X00171250Y00779390D01*
X00163000Y00765640D02*
Y00771140D01*
X00156750Y00778890D02*
X00158000Y00777640D01*
Y00765640D02*
Y00777640D01*
X00185750Y00764890D02*
X00185750Y00764890D01*
X00185750Y00755750D02*
Y00764890D01*
X00181640Y00751640D02*
X00185750Y00755750D01*
X00172000Y00751640D02*
X00181640D01*
D12*
X00444500Y00440000D02*
Y00440750D01*
X00325000Y00294750D02*
X00342750D01*
Y00294350D02*
Y00294750D01*
X00844250Y00440000D02*
X00852750Y00431500D01*
X00809654Y00440000D02*
X00844250D01*
X00729904Y00360250D02*
X00809654Y00440000D01*
X00549500Y00360250D02*
X00729904D01*
X00545500Y00364250D02*
X00549500Y00360250D01*
X00545500Y00364250D02*
Y00374250D01*
X00791750Y00417500D02*
X00836750D01*
X00731250Y00357000D02*
X00791750Y00417500D01*
X00543000Y00357000D02*
X00731250D01*
X00539000Y00361000D02*
X00543000Y00357000D01*
X00539000Y00361000D02*
Y00374250D01*
X00072500Y00420240D02*
Y00428490D01*
X00145500Y00676190D02*
Y00684440D01*
X00225250Y00661750D02*
X00233500D01*
X00198500Y00651000D02*
X00209250Y00661750D01*
X00198500Y00627240D02*
Y00651000D01*
X00235990Y00616740D02*
X00237500D01*
X00234500Y00609250D02*
Y00615250D01*
X00235990Y00616740D01*
X00228500Y00603250D02*
X00234500Y00609250D01*
X00335750Y00332250D02*
Y00362750D01*
X00127500Y00632240D02*
Y00640490D01*
X00343750Y00338750D02*
Y00350000D01*
X00513000Y00374250D02*
Y00385500D01*
X00207500Y00632240D02*
X00215750D01*
X00610684Y00405000D02*
X00638013D01*
X00609284Y00406400D02*
X00610684Y00405000D01*
X00609284Y00406400D02*
Y00408232D01*
X00607884Y00409632D02*
X00609284Y00408232D01*
X00603684Y00409632D02*
X00607884D01*
X00602284Y00408232D02*
X00603684Y00409632D01*
X00602284Y00403400D02*
Y00408232D01*
X00600884Y00402000D02*
X00602284Y00403400D01*
X00596684Y00402000D02*
X00600884D01*
X00595284Y00403400D02*
X00596684Y00402000D01*
X00595284Y00403400D02*
Y00408958D01*
X00593884Y00410358D02*
X00595284Y00408958D01*
X00589684Y00410358D02*
X00593884D01*
X00588284Y00408958D02*
X00589684Y00410358D01*
X00588284Y00403400D02*
Y00408958D01*
X00586884Y00402000D02*
X00588284Y00403400D01*
X00582684Y00402000D02*
X00586884D01*
X00581284Y00403400D02*
X00582684Y00402000D01*
X00581284Y00403400D02*
Y00408958D01*
X00579884Y00410358D02*
X00581284Y00408958D01*
X00575684Y00410358D02*
X00579884D01*
X00574284Y00408958D02*
X00575684Y00410358D01*
X00574284Y00406400D02*
Y00408958D01*
X00572884Y00405000D02*
X00574284Y00406400D01*
X00571884Y00405000D02*
X00572884D01*
X00554000D02*
X00571884D01*
X00638013D02*
X00665750D01*
X00539000Y00420000D02*
Y00433250D01*
Y00420000D02*
X00554000Y00405000D01*
X00545500Y00422750D02*
Y00433250D01*
Y00422750D02*
X00553250Y00415000D01*
X00686750D01*
X00696750Y00405000D01*
X00542587Y00443413D02*
X00545500Y00440500D01*
Y00433250D02*
Y00440500D01*
X00532500Y00433250D02*
Y00440500D01*
X00535413Y00443413D01*
X00542587Y00443413D01*
X00463000Y00319750D02*
X00470250Y00327000D01*
Y00338404D02*
X00482096Y00350250D01*
X00470250Y00327000D02*
Y00338404D01*
X00482096Y00350250D02*
X00522250D01*
X00526000Y00358596D02*
Y00374250D01*
X00521154Y00353750D02*
X00526000Y00358596D01*
X00481000Y00353750D02*
X00521154D01*
X00463000Y00335750D02*
X00481000Y00353750D01*
X00532500Y00360500D02*
Y00374250D01*
X00522250Y00350250D02*
X00532500Y00360500D01*
X00167500Y00404240D02*
X00188740Y00383000D01*
X00478000D02*
X00486750Y00374250D01*
X00188740Y00383000D02*
X00478000D01*
X00500000Y00374250D02*
X00500000Y00374250D01*
X00486750Y00374250D02*
X00500000D01*
X00484500Y00433250D02*
X00500000D01*
X00445000Y00393750D02*
X00484500Y00433250D01*
X00457250Y00397500D02*
X00472250D01*
X00448250Y00388500D02*
X00457250Y00397500D01*
X00204500Y00388500D02*
X00448250D01*
X00187500Y00405500D02*
X00204500Y00388500D01*
X00187500Y00405500D02*
Y00438240D01*
X00162750Y00373750D02*
X00171000D01*
X00188750D02*
X00197000D01*
X00506500Y00405750D02*
Y00433250D01*
X00498250Y00397500D02*
X00506500Y00405750D01*
X00488250Y00397500D02*
X00498250D01*
X00217990Y00393750D02*
X00445000D01*
X00207500Y00404240D02*
X00217990Y00393750D01*
X00276500Y00528240D02*
X00284750D01*
X00276500Y00508240D02*
X00284750D01*
X00368600Y00260150D02*
Y00313900D01*
X00343750Y00338750D02*
X00368600Y00313900D01*
X00355900Y00260150D02*
Y00312100D01*
X00343750Y00324250D02*
X00355900Y00312100D01*
X00335750Y00332250D02*
X00343750Y00324250D01*
X00087500Y00632240D02*
Y00666500D01*
X00116000Y00695000D02*
X00137000D01*
X00087500Y00666500D02*
X00116000Y00695000D01*
X00319500Y00324250D02*
X00327750D01*
X00319500Y00338750D02*
X00327750D01*
X00172500Y00677740D02*
Y00693500D01*
X00163000Y00703000D02*
X00172500Y00693500D01*
X00163000Y00703000D02*
Y00717640D01*
X00143000Y00709000D02*
Y00717640D01*
X00136000Y00702000D02*
X00143000Y00709000D01*
X00123250Y00702000D02*
X00136000D01*
X00137000Y00695000D02*
X00148000Y00706000D01*
Y00717640D01*
X00107500Y00678500D02*
X00118000Y00689000D01*
X00140000D02*
X00153000Y00702000D01*
X00118000Y00689000D02*
X00140000D01*
X00153000Y00702000D02*
Y00717640D01*
X00123250Y00661740D02*
X00131500D01*
X00107500Y00632240D02*
Y00678500D01*
X00187500Y00616240D02*
X00198500Y00627240D01*
X00171250Y00768390D02*
Y00779390D01*
Y00757390D02*
Y00768390D01*
Y00757390D02*
X00172000Y00756640D01*
X00238000Y00234750D02*
Y00259000D01*
X00197000Y00300000D02*
X00238000Y00259000D01*
X00197000Y00300000D02*
Y00357750D01*
X00162000Y00357000D02*
X00162750Y00357750D01*
X00138000Y00357000D02*
X00162000D01*
X00138000Y00234750D02*
Y00357000D01*
X00207500Y00616240D02*
X00208000Y00616740D01*
X00221500D01*
X00207500Y00598240D02*
Y00616240D01*
X00242500Y00508240D02*
X00260500D01*
X00242500Y00528240D02*
X00260500D01*
X00147500Y00377000D02*
Y00404240D01*
X00072500Y00395990D02*
Y00404240D01*
Y00420240D02*
X00087500D01*
Y00438240D01*
X00167500Y00420240D02*
Y00438240D01*
X00147500Y00420240D02*
Y00438240D01*
X00127500D02*
X00127500Y00438240D01*
Y00420240D02*
Y00438240D01*
X00207500Y00420240D02*
Y00438240D01*
X00087500Y00598240D02*
X00087500Y00598240D01*
Y00616240D01*
X00107500Y00598240D02*
Y00616240D01*
X00127500Y00598240D02*
X00127500Y00598240D01*
Y00616240D01*
X00147500Y00598240D02*
Y00616240D01*
X00187500Y00598240D02*
X00187500Y00598240D01*
Y00616240D01*
X00167500Y00598240D02*
Y00616240D01*
X00158500Y00625240D02*
X00167500Y00616240D01*
X00158500Y00625240D02*
Y00657790D01*
X00131500Y00661740D02*
X00135450Y00657790D01*
X00145500D01*
X00131500Y00677740D02*
X00139740Y00669500D01*
X00149750D01*
X00152000Y00671750D01*
Y00676190D01*
X00158500D02*
X00172500D01*
X00172500Y00676190D02*
Y00677740D01*
X00172500Y00676190D02*
X00172500Y00676190D01*
X00392250Y00615000D02*
X00394000Y00613250D01*
X00392250Y00615000D02*
Y00629750D01*
X00378750Y00614000D02*
X00379250Y00614500D01*
X00378000Y00613250D02*
X00378750Y00614000D01*
X00384000D01*
X00385750Y00615750D01*
Y00629750D01*
X00379250Y00614500D02*
Y00629750D01*
X00369750Y00613250D02*
X00378000D01*
X00127500Y00395990D02*
Y00404240D01*
X00087500Y00395990D02*
Y00404240D01*
X00167500Y00632240D02*
Y00640490D01*
X00187500Y00632240D02*
Y00640490D01*
X00147500Y00632240D02*
Y00640490D01*
D66*
X00359700Y00049500D02*
D03*
X00289700Y00049500D02*
D03*
D67*
X00696750Y00405000D02*
D03*
X00665750D02*
D03*
Y00436000D02*
D03*
D75*
X00378000Y00752000D02*
D03*
X00394000D02*
D03*
X00481000Y00798750D02*
D03*
X00497000D02*
D03*
X00429250Y00424750D02*
D03*
X00413250D02*
D03*
X00903250Y00418000D02*
D03*
X00919250D02*
D03*
X00327200Y00279250D02*
D03*
X00343200D02*
D03*
X00497000Y00320250D02*
D03*
X00481000D02*
D03*
X00393500Y00705750D02*
D03*
X00377500D02*
D03*
X00358500Y00591000D02*
D03*
X00342500D02*
D03*
X00493000Y00450000D02*
D03*
X00509000D02*
D03*
X00539000Y00451250D02*
D03*
X00523000D02*
D03*
X00201750Y00764890D02*
D03*
X00185750D02*
D03*
X00795750Y00396750D02*
D03*
X00811750D02*
D03*
D76*
X00393500Y00737500D02*
D03*
X00377500D02*
D03*
X00472250Y00397500D02*
D03*
X00488250D02*
D03*
X00260500Y00528240D02*
D03*
X00276500D02*
D03*
X00260500Y00508240D02*
D03*
X00276500D02*
D03*
X00205000Y00084500D02*
D03*
X00189000D02*
D03*
X00205000Y00049500D02*
D03*
X00189000D02*
D03*
X00225250Y00661750D02*
D03*
X00209250D02*
D03*
X00836750Y00431500D02*
D03*
X00852750D02*
D03*
X00836750Y00417500D02*
D03*
X00852750D02*
D03*
X00919250Y00433000D02*
D03*
X00903250D02*
D03*
X00343750Y00324250D02*
D03*
X00327750D02*
D03*
X00343750Y00338750D02*
D03*
X00327750D02*
D03*
X00497000Y00783750D02*
D03*
X00481000D02*
D03*
X00394000Y00613250D02*
D03*
X00378000D02*
D03*
X00221500Y00616740D02*
D03*
X00237500D02*
D03*
D77*
X00413850Y00409250D02*
D03*
X00428650D02*
D03*
D78*
X00823250Y00368000D02*
D03*
X00939250D02*
D03*
D79*
X00843750Y00386500D02*
D03*
X00903750D02*
D03*
X00888750D02*
D03*
X00858750D02*
D03*
X00873750D02*
D03*
X00918750D02*
D03*
D80*
X00263500Y00737500D02*
D03*
Y00792500D02*
D03*
X00352500Y00737500D02*
D03*
Y00792500D02*
D03*
D81*
X00292000Y00736500D02*
D03*
X00300000D02*
D03*
X00308000D02*
D03*
X00324000D02*
D03*
X00316000D02*
D03*
D82*
X00140000Y00094000D02*
D03*
Y00075000D02*
D03*
X00160000Y00084500D02*
D03*
X00140000Y00059000D02*
D03*
Y00040000D02*
D03*
X00160000Y00049500D02*
D03*
D83*
X00147500Y00377000D02*
D03*
X00128500D02*
D03*
X00138000Y00357000D02*
D03*
X00888250Y00439750D02*
D03*
X00869250D02*
D03*
X00878750Y00419750D02*
D03*
D84*
X00145500Y00657790D02*
D03*
X00152000D02*
D03*
X00158500D02*
D03*
Y00676190D02*
D03*
X00152000D02*
D03*
X00145500D02*
D03*
D85*
X00323500Y00697000D02*
D03*
D86*
Y00714000D02*
D03*
X00299500D02*
D03*
Y00695000D02*
D03*
D87*
X00313250Y00264250D02*
D03*
Y00280250D02*
D03*
X00172500Y00661740D02*
D03*
Y00677740D02*
D03*
X00147500Y00420240D02*
D03*
Y00404240D02*
D03*
X00131500Y00677740D02*
D03*
Y00661740D02*
D03*
X00197000Y00373750D02*
D03*
Y00357750D02*
D03*
X00162750Y00373750D02*
D03*
Y00357750D02*
D03*
X00156750Y00778890D02*
D03*
Y00794890D02*
D03*
X00087500Y00632240D02*
D03*
Y00616240D02*
D03*
X00107500Y00632240D02*
D03*
Y00616240D02*
D03*
X00207500Y00632240D02*
D03*
Y00616240D02*
D03*
X00167500Y00404240D02*
D03*
Y00420240D02*
D03*
X00147500Y00616240D02*
D03*
Y00632240D02*
D03*
X00127500Y00616240D02*
D03*
Y00632240D02*
D03*
X00207500Y00404240D02*
D03*
Y00420240D02*
D03*
X00463000Y00335750D02*
D03*
Y00319750D02*
D03*
X00449000Y00335750D02*
D03*
Y00319750D02*
D03*
X00087500Y00420240D02*
D03*
Y00404240D02*
D03*
X00127500Y00420240D02*
D03*
Y00404240D02*
D03*
X00187500Y00616240D02*
D03*
Y00632240D02*
D03*
X00413250Y00455250D02*
D03*
Y00439250D02*
D03*
X00167500Y00616240D02*
D03*
Y00632240D02*
D03*
D88*
X00355000Y00406500D02*
D03*
X00090000Y00090000D02*
D03*
X01015000D02*
D03*
X00090000Y00725000D02*
D03*
X00444500Y00440750D02*
D03*
X00325000Y00294750D02*
D03*
X00355250Y00484000D02*
D03*
D89*
X00342750Y00309150D02*
D03*
Y00294350D02*
D03*
D90*
X00148000Y00741640D02*
D03*
D91*
X00163000Y00717640D02*
D03*
X00158000D02*
D03*
X00153000D02*
D03*
X00148000D02*
D03*
X00143000D02*
D03*
X00138000D02*
D03*
X00133000D02*
D03*
Y00765640D02*
D03*
X00138000D02*
D03*
X00143000D02*
D03*
X00148000D02*
D03*
X00153000D02*
D03*
X00158000D02*
D03*
X00163000D02*
D03*
D92*
X00124000Y00726640D02*
D03*
Y00731640D02*
D03*
Y00736640D02*
D03*
Y00741640D02*
D03*
Y00746640D02*
D03*
Y00751640D02*
D03*
Y00756640D02*
D03*
X00172000D02*
D03*
Y00751640D02*
D03*
Y00746640D02*
D03*
Y00741640D02*
D03*
Y00736640D02*
D03*
Y00731640D02*
D03*
Y00726640D02*
D03*
D93*
X00087500Y00598240D02*
D03*
X00147500D02*
D03*
X00107500D02*
D03*
X00127500D02*
D03*
X00187500D02*
D03*
X00207500D02*
D03*
X00227500D02*
D03*
X00147500Y00438240D02*
D03*
X00127500D02*
D03*
X00107500D02*
D03*
X00207500D02*
D03*
X00187500D02*
D03*
X00167500D02*
D03*
Y00598240D02*
D03*
X00087500Y00438240D02*
D03*
X00227500D02*
D03*
D94*
X00242500Y00568240D02*
D03*
Y00508240D02*
D03*
Y00488240D02*
D03*
Y00548240D02*
D03*
Y00528240D02*
D03*
Y00468240D02*
D03*
D95*
X00355900Y00260150D02*
D03*
X00381300Y00207350D02*
D03*
Y00260150D02*
D03*
X00343200D02*
D03*
X00368600Y00207350D02*
D03*
X00355900D02*
D03*
X00343200D02*
D03*
X00368600Y00260150D02*
D03*
D96*
X00475000Y00303460D02*
D03*
X00487700D02*
D03*
X00449600D02*
D03*
X00462300D02*
D03*
X00449600Y00205160D02*
D03*
X00462300D02*
D03*
X00475000D02*
D03*
X00487700D02*
D03*
D97*
X00365500Y00511750D02*
D03*
D98*
X00342500Y00570250D02*
D03*
X00365500D02*
D03*
X00388500D02*
D03*
D99*
X00392250Y00688750D02*
D03*
X00385750D02*
D03*
X00379250D02*
D03*
X00372750D02*
D03*
X00392250Y00629750D02*
D03*
X00385750D02*
D03*
X00379250D02*
D03*
X00372750D02*
D03*
X00500000Y00374250D02*
D03*
X00506500D02*
D03*
X00513000D02*
D03*
X00519500D02*
D03*
X00526000D02*
D03*
X00532500D02*
D03*
X00539000D02*
D03*
X00545500D02*
D03*
X00500000Y00433250D02*
D03*
X00506500D02*
D03*
X00513000D02*
D03*
X00519500D02*
D03*
X00526000D02*
D03*
X00532500D02*
D03*
X00539000D02*
D03*
X00545500D02*
D03*
D100*
X00171250Y00795390D02*
D03*
Y00779390D02*
D03*
X00357000Y00675250D02*
D03*
Y00691250D02*
D03*
X00323000Y00562000D02*
D03*
Y00546000D02*
D03*
X00072500Y00404240D02*
D03*
Y00420240D02*
D03*
X00357000Y00645250D02*
D03*
Y00661250D02*
D03*
X00227500Y00403740D02*
D03*
Y00419740D02*
D03*
D101*
X00377500Y00737500D02*
Y00751500D01*
X00378000Y00752000D01*
X00394000D02*
X00402250D01*
X00497000Y00798750D02*
X00505250D01*
X00472750D02*
X00481000D01*
X00227500Y00419740D02*
X00235750D01*
X00227500Y00403740D02*
X00235750D01*
X00811750Y00388500D02*
Y00396750D01*
X00795750Y00388500D02*
Y00396750D01*
X00497000Y00320250D02*
Y00328500D01*
X00481000Y00320250D02*
Y00328500D01*
X00539000Y00451250D02*
X00547250D01*
X00523000D02*
Y00459500D01*
X00484750Y00450000D02*
X00493000D01*
X00413250Y00455250D02*
Y00463500D01*
X00428650Y00409250D02*
X00436900D01*
X00428650Y00401000D02*
Y00409250D01*
X00413850Y00401000D02*
Y00409250D01*
X00405600D02*
X00413850D01*
X00201750Y00764890D02*
X00210000D01*
X00314750Y00562000D02*
X00323000D01*
Y00570250D01*
Y00562000D02*
X00331250D01*
X00358500Y00591000D02*
X00366750D01*
X00334250D02*
X00342500D01*
X00358500D02*
Y00599250D01*
X00342500Y00591000D02*
Y00599250D01*
X00357000Y00637000D02*
Y00645250D01*
X00348750D02*
X00357000D01*
X00348750Y00675250D02*
X00357000D01*
X00348750Y00691250D02*
X00357000D01*
Y00699500D01*
X00393500Y00705750D02*
X00401750D01*
X00393500D02*
Y00714000D01*
X00377500Y00705750D02*
Y00714000D01*
X00369250Y00705750D02*
X00377500D01*
X00836750Y00417500D02*
Y00431500D01*
X00873750Y00386500D02*
Y00410500D01*
X00852750Y00431500D02*
X00873750Y00410500D01*
X00858750Y00386500D02*
Y00411500D01*
X00852750Y00417500D02*
X00858750Y00411500D01*
X00888750Y00386500D02*
Y00409750D01*
X00878750Y00419750D02*
X00888750Y00409750D01*
X00869250Y00439750D02*
Y00448000D01*
X00888250Y00439750D02*
Y00448000D01*
X00811750Y00396750D02*
X00842500D01*
X00873750Y00366250D02*
Y00386500D01*
X00903250Y00390750D02*
Y00418000D01*
X00903750Y00386500D02*
Y00390250D01*
Y00366250D02*
Y00386500D01*
X00903250Y00390750D02*
X00903750Y00390250D01*
X00903250Y00433000D02*
Y00441250D01*
X00919250Y00418000D02*
Y00433000D01*
X00918750Y00386500D02*
X00919250Y00387000D01*
Y00418000D01*
X00229000Y00593000D02*
X00234834Y00587166D01*
X00381300Y00260150D02*
Y00275750D01*
X00462300Y00291500D02*
Y00303460D01*
X00128500Y00368000D02*
Y00377000D01*
X00292000Y00721750D02*
Y00736500D01*
X00526000Y00422000D02*
Y00433250D01*
X00462300Y00303460D02*
X00463000Y00304160D01*
Y00319750D01*
X00509750Y00450750D02*
Y00457750D01*
X00140000Y00059000D02*
X00148250D01*
X00140000Y00094000D02*
X00148250D01*
X00428650Y00424150D02*
X00429250Y00424750D01*
X00428650Y00409250D02*
Y00424150D01*
X00413250Y00424750D02*
Y00439250D01*
X00313250Y00256000D02*
Y00264250D01*
X00326200Y00280250D02*
X00327200Y00279250D01*
X00313250Y00280250D02*
X00326200D01*
X00343200Y00260150D02*
Y00279250D01*
X00342750Y00279700D02*
X00343200Y00279250D01*
X00342750Y00279700D02*
Y00294350D01*
X00334500Y00309150D02*
X00342750D01*
X00131000Y00075000D02*
X00140000D01*
Y00031000D02*
Y00040000D01*
X00160000Y00084500D02*
X00189000D01*
X00160000Y00049500D02*
X00189000D01*
X00299300Y00084500D02*
X00334300Y00049500D01*
X00205000Y00084500D02*
X00299300D01*
X00205000Y00049500D02*
X00264300D01*
X00359700Y00049500D02*
X00375750D01*
X00289700Y00049500D02*
X00305750D01*
X00388500Y00570250D02*
Y00586500D01*
X00342500Y00570250D02*
X00342500Y00570250D01*
X00342500Y00570250D02*
Y00591000D01*
X00227500Y00419740D02*
Y00438240D01*
X00336000Y00792500D02*
X00352500D01*
X00263500D02*
X00280000D01*
X00352500Y00737500D02*
Y00754000D01*
X00263500Y00737500D02*
Y00754000D01*
X00472750Y00783750D02*
X00481000D01*
X00497000D02*
X00505250D01*
X00352500Y00737500D02*
X00352500Y00737500D01*
X00377500D01*
X00393500D02*
X00401750D01*
X00171250Y00795390D02*
X00179500D01*
D102*
X00269078Y00768578D02*
X00281828Y00781328D01*
X00293232D01*
X00249828Y00768578D02*
X00269078D01*
X00172000Y00746640D02*
X00179400D01*
X00227179Y00745929D02*
X00249828Y00768578D01*
X00180111Y00745929D02*
X00227179D01*
X00179400Y00746640D02*
X00180111Y00745929D01*
X00316000Y00736500D02*
Y00749940D01*
X00321000Y00714000D02*
X00323500D01*
X00316000Y00719000D02*
Y00736500D01*
Y00719000D02*
X00321000Y00714000D01*
X00270560Y00765000D02*
X00283311Y00777750D01*
X00291750D01*
X00228661Y00742351D02*
X00251311Y00765000D01*
X00270560D01*
X00179400Y00741640D02*
X00180111Y00742351D01*
X00228661D01*
X00172000Y00741640D02*
X00179400D01*
X00308000Y00736500D02*
Y00749940D01*
Y00720000D02*
Y00736500D01*
X00302000Y00714000D02*
X00308000Y00720000D01*
X00299500Y00714000D02*
X00302000D01*
X00293232Y00781328D02*
X00313789Y00760771D01*
Y00752151D02*
Y00760771D01*
X00291750Y00777750D02*
X00310211Y00759289D01*
X00313789Y00752151D02*
X00316000Y00749940D01*
X00310211Y00752151D02*
Y00759289D01*
X00308000Y00749940D02*
X00310211Y00752151D01*
D103*
X00685083Y00447667D02*
X00696750Y00436000D01*
X00649250D02*
X00665750D01*
X00519500Y00447750D02*
X00523000Y00451250D01*
X00519500Y00433250D02*
Y00447750D01*
X00475000Y00314250D02*
X00481000Y00320250D01*
X00475000Y00303460D02*
Y00314250D01*
X00449000Y00335750D02*
X00463000D01*
X00449000Y00319750D02*
X00449600Y00319150D01*
Y00303460D02*
Y00319150D01*
X00509000Y00450000D02*
X00513000Y00446000D01*
Y00433250D02*
Y00446000D01*
X00335000Y00706500D02*
Y00732000D01*
Y00670000D02*
Y00706500D01*
X00311000D02*
X00335000D01*
X00299500Y00695000D02*
X00311000Y00706500D01*
X00343750Y00661250D02*
X00357000D01*
X00335000Y00670000D02*
X00343750Y00661250D01*
X00330500Y00736500D02*
X00335000Y00732000D01*
X00324000Y00736500D02*
X00330500D01*
X00385750Y00676750D02*
Y00688750D01*
X00370250Y00661250D02*
X00385750Y00676750D01*
X00357000Y00661250D02*
X00370250D01*
X00357000Y00691250D02*
X00372750D01*
Y00688750D02*
Y00691250D01*
X00377500Y00705750D02*
X00379250Y00704000D01*
Y00688750D02*
Y00704000D01*
X00392250Y00688750D02*
Y00704500D01*
D104*
X00908500Y00702500D02*
X00916500D01*
X00991500Y00627500D01*
X01030500D01*
X01071000Y00668000D01*
X00870500Y00702500D02*
X00908500D01*
X00838000Y00735000D02*
X00870500Y00702500D01*
X01049000Y00596000D02*
X01071000Y00618000D01*
X00973000Y00596000D02*
X01049000D01*
X00941500Y00627500D02*
X00973000Y00596000D01*
X00891500Y00627500D02*
X00941500D01*
X00838000D02*
X00891500D01*
D105*
X00323500Y00685750D02*
Y00697000D01*
D106*
X00476000Y00131000D02*
D03*
X00411000D02*
D03*
X01071000Y00618000D02*
D03*
Y00668000D02*
D03*
Y00718000D02*
D03*
X00991500Y00627500D02*
D03*
X01008500Y00702500D02*
D03*
X00941500Y00627500D02*
D03*
X00958500Y00702500D02*
D03*
X00908500D02*
D03*
X00891500Y00627500D02*
D03*
X00138000Y00234750D02*
D03*
X00238000D02*
D03*
X00453000Y00655000D02*
D03*
Y00735000D02*
D03*
X00838000D02*
D03*
Y00627500D02*
D03*
D107*
X00334300Y00049500D02*
D03*
X00264300Y00049500D02*
D03*
D108*
X00035000Y00780000D02*
D03*
Y00035000D02*
D03*
X01070000Y00780000D02*
D03*
Y00035000D02*
D03*
D109*
X00696750Y00436000D02*
D03*
D110*
X00539000Y00420000D02*
D03*
X00402250Y00752000D02*
D03*
X00505250Y00798750D02*
D03*
X00472750D02*
D03*
X00355000Y00406500D02*
D03*
X00444500Y00440750D02*
D03*
X00325000Y00294750D02*
D03*
X00355250Y00484000D02*
D03*
X00137000Y00752640D02*
D03*
X00148000D02*
D03*
X00159000D02*
D03*
X00137000Y00741640D02*
D03*
X00148000D02*
D03*
X00159000D02*
D03*
X00137000Y00730640D02*
D03*
X00148000D02*
D03*
X00159000D02*
D03*
X00236000Y00419740D02*
D03*
Y00403740D02*
D03*
X00811750Y00388250D02*
D03*
X00795750D02*
D03*
X00497000Y00328750D02*
D03*
X00481000D02*
D03*
X00547500Y00451250D02*
D03*
X00523000Y00459750D02*
D03*
X00484500Y00450000D02*
D03*
X00413250Y00463750D02*
D03*
X00437150Y00409250D02*
D03*
X00428650Y00400750D02*
D03*
X00413850D02*
D03*
X00405350Y00409250D02*
D03*
X00210250Y00764890D02*
D03*
X00314500Y00562000D02*
D03*
X00323000Y00570500D02*
D03*
X00331500Y00562000D02*
D03*
X00367000Y00591000D02*
D03*
X00334000D02*
D03*
X00358500Y00599500D02*
D03*
X00342500D02*
D03*
X00357000Y00636750D02*
D03*
X00348500Y00645250D02*
D03*
Y00675250D02*
D03*
Y00691250D02*
D03*
X00357000Y00699750D02*
D03*
X00402000Y00705750D02*
D03*
X00393500Y00714250D02*
D03*
X00377500D02*
D03*
X00369000Y00705750D02*
D03*
X00869250Y00448000D02*
D03*
X00888250D02*
D03*
X00873750Y00366250D02*
D03*
X00903750D02*
D03*
X00903250Y00441250D02*
D03*
X00072500Y00428490D02*
D03*
X00145500Y00684440D02*
D03*
X00233500Y00661750D02*
D03*
X00234834Y00587166D02*
D03*
X00335750Y00362750D02*
D03*
X00127500Y00640490D02*
D03*
X00343750Y00350000D02*
D03*
X00513000Y00385500D02*
D03*
X00215750Y00632240D02*
D03*
X00381300Y00275750D02*
D03*
X00462300Y00291500D02*
D03*
X00128500Y00368000D02*
D03*
X00292000Y00721750D02*
D03*
X00685083Y00447667D02*
D03*
X00649250Y00436000D02*
D03*
X00526000Y00422000D02*
D03*
X00171000Y00373750D02*
D03*
X00188750D02*
D03*
X00148250Y00059000D02*
D03*
Y00094000D02*
D03*
X00284750Y00528240D02*
D03*
Y00508240D02*
D03*
X00313250Y00256000D02*
D03*
X00334500Y00309150D02*
D03*
X00131000Y00075000D02*
D03*
X00140000Y00031000D02*
D03*
X00375750Y00049500D02*
D03*
X00305750Y00049500D02*
D03*
X00447430Y00610569D02*
D03*
Y00590568D02*
D03*
Y00570568D02*
D03*
Y00550568D02*
D03*
Y00530568D02*
D03*
X00461572Y00516426D02*
D03*
X00475715Y00502284D02*
D03*
X00489857Y00488142D02*
D03*
X00569857D02*
D03*
X00509857D02*
D03*
X00529857D02*
D03*
X00549857D02*
D03*
X00629857D02*
D03*
X00609857D02*
D03*
X00589857D02*
D03*
X00689857D02*
D03*
X00669857D02*
D03*
X00649857D02*
D03*
X00749857D02*
D03*
X00729857D02*
D03*
X00709857D02*
D03*
X00809857D02*
D03*
X00789857D02*
D03*
X00769857D02*
D03*
X00869857D02*
D03*
X00849857D02*
D03*
X00829857D02*
D03*
X00929858D02*
D03*
X00909858D02*
D03*
X00889858D02*
D03*
X00989858D02*
D03*
X00969858D02*
D03*
X00949858D02*
D03*
X01009858D02*
D03*
X01029858D02*
D03*
X01049858D02*
D03*
X01069858D02*
D03*
X00456000Y00794000D02*
D03*
X00436000D02*
D03*
X00376000D02*
D03*
X00396000D02*
D03*
X00416000D02*
D03*
X00197000D02*
D03*
X00217000D02*
D03*
X00237000D02*
D03*
X00130000D02*
D03*
X00110000D02*
D03*
X00090000D02*
D03*
X01084000Y00474000D02*
D03*
Y00454000D02*
D03*
Y00434000D02*
D03*
Y00414000D02*
D03*
Y00394000D02*
D03*
Y00374000D02*
D03*
Y00354000D02*
D03*
Y00334000D02*
D03*
Y00314000D02*
D03*
Y00294000D02*
D03*
Y00274000D02*
D03*
Y00254000D02*
D03*
Y00114000D02*
D03*
Y00134000D02*
D03*
Y00154000D02*
D03*
Y00174000D02*
D03*
Y00194000D02*
D03*
Y00214000D02*
D03*
Y00234000D02*
D03*
Y00094000D02*
D03*
X01011000Y00021000D02*
D03*
X00711000D02*
D03*
X00731000D02*
D03*
X00751000D02*
D03*
X00771000D02*
D03*
X00791000D02*
D03*
X00811000D02*
D03*
X00831000D02*
D03*
X00851000D02*
D03*
X00871000D02*
D03*
X00891000D02*
D03*
X00911000D02*
D03*
X00931000D02*
D03*
X00951000D02*
D03*
X00971000D02*
D03*
X00991000D02*
D03*
X00411000D02*
D03*
X00431000D02*
D03*
X00451000D02*
D03*
X00471000D02*
D03*
X00491000D02*
D03*
X00511000D02*
D03*
X00531000D02*
D03*
X00551000D02*
D03*
X00571000D02*
D03*
X00591000D02*
D03*
X00611000D02*
D03*
X00631000D02*
D03*
X00651000D02*
D03*
X00671000D02*
D03*
X00691000D02*
D03*
X00091000D02*
D03*
X00111000D02*
D03*
X00131000D02*
D03*
X00151000D02*
D03*
X00171000D02*
D03*
X00191000D02*
D03*
X00211000D02*
D03*
X00231000D02*
D03*
X00251000D02*
D03*
X00271000D02*
D03*
X00291000D02*
D03*
X00311000D02*
D03*
X00331000D02*
D03*
X00351000D02*
D03*
X00371000D02*
D03*
X00391000D02*
D03*
X00021000Y00091000D02*
D03*
Y00111000D02*
D03*
Y00131000D02*
D03*
Y00151000D02*
D03*
Y00171000D02*
D03*
Y00191000D02*
D03*
Y00211000D02*
D03*
Y00231000D02*
D03*
Y00251000D02*
D03*
Y00271000D02*
D03*
Y00291000D02*
D03*
Y00311000D02*
D03*
Y00331000D02*
D03*
Y00351000D02*
D03*
Y00371000D02*
D03*
Y00391000D02*
D03*
Y00725000D02*
D03*
Y00705000D02*
D03*
Y00685000D02*
D03*
Y00665000D02*
D03*
Y00645000D02*
D03*
X00356250Y00528250D02*
D03*
Y00538250D02*
D03*
X00346250D02*
D03*
X00336250D02*
D03*
X00346250Y00528250D02*
D03*
X00336250Y00508250D02*
D03*
Y00518250D02*
D03*
Y00528250D02*
D03*
X00326250D02*
D03*
X00316250D02*
D03*
X00326250Y00508250D02*
D03*
Y00518250D02*
D03*
X00316250D02*
D03*
X00388500Y00586500D02*
D03*
X00316250Y00508250D02*
D03*
X00319500Y00324250D02*
D03*
Y00338750D02*
D03*
X00123250Y00702000D02*
D03*
Y00661740D02*
D03*
X00336000Y00792500D02*
D03*
X00280000D02*
D03*
X00352500Y00754000D02*
D03*
X00263500Y00754000D02*
D03*
X00335000Y00732000D02*
D03*
X00171250Y00768390D02*
D03*
X00472750Y00783750D02*
D03*
X00505250D02*
D03*
X00401750Y00737500D02*
D03*
X00072500Y00395990D02*
D03*
X00179500Y00795390D02*
D03*
X00323500Y00685750D02*
D03*
X00369750Y00613250D02*
D03*
X00127500Y00395990D02*
D03*
X00087500D02*
D03*
X00167500Y00640490D02*
D03*
X00187500D02*
D03*
X00147500Y00640490D02*
D03*
M02*
