G04*
G04 #@! TF.GenerationSoftware,Altium Limited,Altium Designer,20.0.13 (296)*
G04*
G04 Layer_Color=65535*
%FSAX44Y44*%
%MOMM*%
G71*
G01*
G75*
%ADD10C,0.2500*%
%ADD11C,0.1000*%
%ADD12C,0.2000*%
%ADD13C,0.1500*%
G36*
X00474900Y00078712D02*
X00475131Y00078689D01*
X00475386Y00078666D01*
X00475687Y00078643D01*
X00476011Y00078620D01*
X00476381Y00078573D01*
X00476774Y00078504D01*
X00477168Y00078435D01*
X00477607Y00078365D01*
X00478070Y00078249D01*
X00479065Y00078018D01*
X00480106Y00077717D01*
X00481194Y00077347D01*
X00482328Y00076884D01*
X00482906Y00076630D01*
X00483485Y00076329D01*
X00484063Y00076028D01*
X00484665Y00075681D01*
X00485220Y00075311D01*
X00485798Y00074917D01*
X00486377Y00074501D01*
X00486932Y00074038D01*
X00487488Y00073552D01*
X00488020Y00073043D01*
X00488043Y00073020D01*
X00488089Y00072974D01*
X00488159Y00072904D01*
X00488274Y00072789D01*
X00488390Y00072650D01*
X00488552Y00072465D01*
X00488714Y00072256D01*
X00488899Y00072025D01*
X00489108Y00071770D01*
X00489339Y00071493D01*
X00489570Y00071169D01*
X00489825Y00070822D01*
X00490079Y00070451D01*
X00490334Y00070058D01*
X00490611Y00069642D01*
X00490866Y00069202D01*
X00491144Y00068739D01*
X00491398Y00068253D01*
X00491907Y00067212D01*
X00492393Y00066078D01*
X00492833Y00064875D01*
X00493180Y00063602D01*
X00493342Y00062931D01*
X00493458Y00062260D01*
X00493573Y00061566D01*
X00493643Y00060849D01*
X00493689Y00060108D01*
X00493712Y00059368D01*
Y00059345D01*
Y00059275D01*
Y00059159D01*
Y00059021D01*
X00493689Y00058812D01*
X00493666Y00058581D01*
X00493643Y00058326D01*
X00493620Y00058026D01*
X00493596Y00057702D01*
X00493550Y00057331D01*
X00493481Y00056938D01*
X00493411Y00056522D01*
X00493342Y00056082D01*
X00493226Y00055619D01*
X00492995Y00054647D01*
X00492694Y00053606D01*
X00492324Y00052495D01*
X00491861Y00051361D01*
X00491606Y00050783D01*
X00491306Y00050205D01*
X00491005Y00049626D01*
X00490658Y00049047D01*
X00490288Y00048469D01*
X00489894Y00047891D01*
X00489478Y00047312D01*
X00489015Y00046757D01*
X00488529Y00046201D01*
X00488020Y00045669D01*
X00487997Y00045646D01*
X00487951Y00045600D01*
X00487881Y00045530D01*
X00487765Y00045438D01*
X00487627Y00045299D01*
X00487441Y00045137D01*
X00487233Y00044975D01*
X00487002Y00044790D01*
X00486747Y00044582D01*
X00486470Y00044350D01*
X00486146Y00044119D01*
X00485798Y00043887D01*
X00485428Y00043633D01*
X00485035Y00043355D01*
X00484618Y00043101D01*
X00484179Y00042846D01*
X00483716Y00042568D01*
X00483230Y00042314D01*
X00482189Y00041805D01*
X00481055Y00041319D01*
X00479852Y00040879D01*
X00478579Y00040532D01*
X00477908Y00040370D01*
X00477237Y00040255D01*
X00476543Y00040139D01*
X00475826Y00040069D01*
X00475085Y00040023D01*
X00474344Y00040000D01*
X00474136D01*
X00473997Y00040023D01*
X00473789D01*
X00473558Y00040046D01*
X00473303Y00040069D01*
X00473003Y00040093D01*
X00472678Y00040116D01*
X00472308Y00040185D01*
X00471915Y00040231D01*
X00471498Y00040301D01*
X00471059Y00040370D01*
X00470596Y00040486D01*
X00469624Y00040717D01*
X00468583Y00041018D01*
X00467472Y00041388D01*
X00466338Y00041851D01*
X00465760Y00042106D01*
X00465181Y00042383D01*
X00464603Y00042707D01*
X00464024Y00043031D01*
X00463446Y00043401D01*
X00462867Y00043795D01*
X00462289Y00044211D01*
X00461734Y00044674D01*
X00461178Y00045160D01*
X00460646Y00045669D01*
X00460623Y00045692D01*
X00460577Y00045739D01*
X00460507Y00045808D01*
X00460415Y00045924D01*
X00460276Y00046062D01*
X00460137Y00046248D01*
X00459952Y00046456D01*
X00459767Y00046687D01*
X00459558Y00046942D01*
X00459327Y00047220D01*
X00459096Y00047543D01*
X00458864Y00047891D01*
X00458610Y00048261D01*
X00458355Y00048654D01*
X00458078Y00049071D01*
X00457823Y00049510D01*
X00457569Y00049973D01*
X00457291Y00050459D01*
X00456782Y00051500D01*
X00456319Y00052634D01*
X00455879Y00053837D01*
X00455532Y00055133D01*
X00455370Y00055781D01*
X00455255Y00056475D01*
X00455139Y00057169D01*
X00455069Y00057887D01*
X00455023Y00058627D01*
X00455000Y00059368D01*
Y00059391D01*
Y00059460D01*
Y00059576D01*
X00455023Y00059715D01*
Y00059923D01*
X00455046Y00060154D01*
X00455069Y00060409D01*
X00455093Y00060710D01*
X00455116Y00061034D01*
X00455162Y00061404D01*
X00455231Y00061797D01*
X00455301Y00062191D01*
X00455370Y00062630D01*
X00455463Y00063093D01*
X00455717Y00064088D01*
X00455995Y00065129D01*
X00456388Y00066217D01*
X00456828Y00067351D01*
X00457106Y00067929D01*
X00457383Y00068508D01*
X00457684Y00069086D01*
X00458031Y00069688D01*
X00458401Y00070243D01*
X00458772Y00070822D01*
X00459211Y00071400D01*
X00459651Y00071955D01*
X00460137Y00072511D01*
X00460646Y00073043D01*
X00460669Y00073066D01*
X00460715Y00073113D01*
X00460785Y00073182D01*
X00460901Y00073298D01*
X00461039Y00073413D01*
X00461225Y00073575D01*
X00461433Y00073737D01*
X00461664Y00073922D01*
X00461919Y00074131D01*
X00462196Y00074362D01*
X00462520Y00074593D01*
X00462867Y00074848D01*
X00463238Y00075103D01*
X00463631Y00075357D01*
X00464048Y00075635D01*
X00464487Y00075889D01*
X00464950Y00076167D01*
X00465436Y00076421D01*
X00466477Y00076930D01*
X00467611Y00077416D01*
X00468814Y00077856D01*
X00470110Y00078203D01*
X00470758Y00078365D01*
X00471452Y00078481D01*
X00472146Y00078597D01*
X00472864Y00078666D01*
X00473604Y00078712D01*
X00474344Y00078735D01*
X00474692D01*
X00474900Y00078712D01*
D02*
G37*
G36*
X00427794Y00071331D02*
X00428049Y00071308D01*
X00428396Y00071238D01*
X00428766Y00071122D01*
X00429159Y00070960D01*
X00429576Y00070729D01*
X00429969Y00070405D01*
X00429992D01*
X00430016Y00070359D01*
X00430108Y00070266D01*
X00430224Y00070151D01*
X00430340Y00070035D01*
X00430363Y00069989D01*
X00430432Y00069896D01*
X00430525Y00069757D01*
X00430640Y00069595D01*
X00444593Y00045415D01*
Y00045392D01*
X00444617Y00045368D01*
X00444663Y00045299D01*
X00444709Y00045206D01*
X00444802Y00044952D01*
X00444917Y00044628D01*
X00445010Y00044234D01*
X00445079Y00043795D01*
Y00043309D01*
X00445056Y00043054D01*
X00445010Y00042800D01*
Y00042754D01*
X00444987Y00042661D01*
X00444940Y00042499D01*
X00444871Y00042291D01*
X00444848Y00042268D01*
X00444825Y00042175D01*
X00444755Y00042013D01*
X00444640Y00041805D01*
X00444617D01*
Y00041782D01*
X00444593Y00041759D01*
X00444478Y00041620D01*
X00444339Y00041411D01*
X00444108Y00041157D01*
X00443830Y00040879D01*
X00443483Y00040625D01*
X00443089Y00040370D01*
X00442626Y00040185D01*
X00442603D01*
X00442580Y00040162D01*
X00442441Y00040139D01*
X00442256Y00040093D01*
X00442118Y00040069D01*
X00442094D01*
X00442002Y00040046D01*
X00441817Y00040023D01*
X00441585Y00040000D01*
X00413494D01*
X00413401Y00040023D01*
X00413124Y00040046D01*
X00412777Y00040116D01*
X00412407Y00040231D01*
X00411990Y00040393D01*
X00411573Y00040648D01*
X00411365Y00040787D01*
X00411157Y00040972D01*
X00411111Y00040995D01*
X00411018Y00041087D01*
X00410902Y00041203D01*
X00410787Y00041342D01*
X00410764Y00041388D01*
X00410671Y00041481D01*
X00410578Y00041620D01*
X00410486Y00041782D01*
Y00041805D01*
Y00041828D01*
X00410463Y00041851D01*
X00410416Y00041921D01*
X00410393Y00042013D01*
X00410278Y00042245D01*
X00410185Y00042545D01*
X00410069Y00042916D01*
X00410023Y00043355D01*
X00410000Y00043818D01*
X00410069Y00044304D01*
Y00044327D01*
X00410093Y00044373D01*
X00410116Y00044512D01*
X00410162Y00044674D01*
X00410185Y00044744D01*
X00410208Y00044790D01*
X00410231Y00044836D01*
X00410255Y00044929D01*
X00410347Y00045091D01*
X00410440Y00045276D01*
Y00045299D01*
Y00045322D01*
X00410463Y00045345D01*
X00410486D01*
X00424439Y00069526D01*
X00424462Y00069549D01*
X00424508Y00069642D01*
X00424601Y00069780D01*
X00424717Y00069942D01*
X00424879Y00070128D01*
X00425064Y00070336D01*
X00425272Y00070521D01*
X00425503Y00070706D01*
X00425550Y00070752D01*
X00425642Y00070799D01*
X00425758Y00070868D01*
X00425804Y00070891D01*
X00425897Y00070937D01*
X00426059Y00071030D01*
X00426290Y00071122D01*
X00426545Y00071192D01*
X00426869Y00071284D01*
X00427193Y00071331D01*
X00427563Y00071354D01*
X00427702D01*
X00427794Y00071331D01*
D02*
G37*
G36*
X00995588Y00562662D02*
X00996097Y00562615D01*
X00996792Y00562476D01*
X00997532Y00562245D01*
X00998319Y00561921D01*
X00999152Y00561458D01*
X00999939Y00560810D01*
X00999985D01*
X01000031Y00560718D01*
X01000216Y00560533D01*
X01000448Y00560301D01*
X01000679Y00560070D01*
X01000725Y00559977D01*
X01000864Y00559792D01*
X01001049Y00559515D01*
X01001281Y00559191D01*
X01029187Y00510829D01*
Y00510783D01*
X01029233Y00510737D01*
X01029326Y00510598D01*
X01029418Y00510413D01*
X01029603Y00509904D01*
X01029835Y00509256D01*
X01030020Y00508469D01*
X01030159Y00507590D01*
Y00506618D01*
X01030112Y00506109D01*
X01030020Y00505600D01*
Y00505507D01*
X01029974Y00505322D01*
X01029881Y00504998D01*
X01029742Y00504582D01*
X01029696Y00504535D01*
X01029650Y00504350D01*
X01029511Y00504026D01*
X01029279Y00503610D01*
X01029233D01*
Y00503563D01*
X01029187Y00503517D01*
X01028955Y00503240D01*
X01028678Y00502823D01*
X01028215Y00502314D01*
X01027660Y00501759D01*
X01026965Y00501250D01*
X01026179Y00500741D01*
X01025253Y00500370D01*
X01025207D01*
X01025161Y00500324D01*
X01024883Y00500278D01*
X01024513Y00500185D01*
X01024235Y00500139D01*
X01024189D01*
X01024004Y00500093D01*
X01023633Y00500046D01*
X01023171Y00500000D01*
X00966988D01*
X00966803Y00500046D01*
X00966248Y00500093D01*
X00965554Y00500231D01*
X00964813Y00500463D01*
X00963980Y00500787D01*
X00963147Y00501296D01*
X00962730Y00501573D01*
X00962314Y00501944D01*
X00962221Y00501990D01*
X00962036Y00502175D01*
X00961805Y00502407D01*
X00961573Y00502684D01*
X00961527Y00502777D01*
X00961342Y00502962D01*
X00961157Y00503240D01*
X00960972Y00503563D01*
Y00503610D01*
Y00503656D01*
X00960926Y00503702D01*
X00960833Y00503841D01*
X00960787Y00504026D01*
X00960555Y00504489D01*
X00960370Y00505091D01*
X00960139Y00505831D01*
X00960046Y00506710D01*
X00960000Y00507636D01*
X00960139Y00508608D01*
Y00508654D01*
X00960185Y00508747D01*
X00960231Y00509024D01*
X00960324Y00509348D01*
X00960370Y00509487D01*
X00960416Y00509580D01*
X00960463Y00509672D01*
X00960509Y00509857D01*
X00960694Y00510181D01*
X00960879Y00510552D01*
Y00510598D01*
Y00510644D01*
X00960926Y00510690D01*
X00960972D01*
X00988878Y00559052D01*
X00988924Y00559098D01*
X00989017Y00559283D01*
X00989202Y00559561D01*
X00989433Y00559885D01*
X00989757Y00560255D01*
X00990127Y00560672D01*
X00990544Y00561042D01*
X00991007Y00561412D01*
X00991099Y00561505D01*
X00991284Y00561597D01*
X00991516Y00561736D01*
X00991608Y00561782D01*
X00991794Y00561875D01*
X00992117Y00562060D01*
X00992580Y00562245D01*
X00993089Y00562384D01*
X00993737Y00562569D01*
X00994385Y00562662D01*
X00995126Y00562708D01*
X00995403D01*
X00995588Y00562662D01*
D02*
G37*
G36*
X01061518Y00514568D02*
X01061643D01*
X01061809Y00514554D01*
X01061976Y00514527D01*
X01062170Y00514499D01*
X01062586Y00514430D01*
X01063044Y00514319D01*
X01063515Y00514166D01*
X01063737Y00514069D01*
X01063959Y00513958D01*
X01063973D01*
X01064014Y00513930D01*
X01064070Y00513889D01*
X01064153Y00513847D01*
X01064250Y00513778D01*
X01064361Y00513695D01*
X01064500Y00513611D01*
X01064639Y00513500D01*
X01064944Y00513251D01*
X01065263Y00512932D01*
X01065582Y00512571D01*
X01065873Y00512155D01*
X01065887Y00512141D01*
X01065900Y00512100D01*
X01065942Y00512030D01*
X01065998Y00511947D01*
X01066067Y00511836D01*
X01066136Y00511698D01*
X01066219Y00511545D01*
X01066303Y00511365D01*
X01066400Y00511171D01*
X01066497Y00510949D01*
X01066594Y00510713D01*
X01066705Y00510463D01*
X01066802Y00510200D01*
X01066885Y00509922D01*
X01066982Y00509617D01*
X01067066Y00509312D01*
Y00509298D01*
X01067079Y00509229D01*
X01067107Y00509146D01*
X01067135Y00509007D01*
X01067163Y00508841D01*
X01067204Y00508633D01*
X01067246Y00508397D01*
X01067287Y00508120D01*
X01067329Y00507814D01*
X01067371Y00507468D01*
X01067412Y00507093D01*
X01067440Y00506691D01*
X01067468Y00506261D01*
X01067495Y00505790D01*
X01067509Y00505304D01*
Y00504777D01*
Y00504763D01*
Y00504736D01*
Y00504694D01*
Y00504625D01*
Y00504555D01*
Y00504458D01*
X01067495Y00504347D01*
Y00504222D01*
X01067482Y00503931D01*
X01067468Y00503598D01*
X01067454Y00503238D01*
X01067426Y00502836D01*
X01067384Y00502406D01*
X01067343Y00501962D01*
X01067218Y00501060D01*
X01067135Y00500603D01*
X01067038Y00500159D01*
X01066927Y00499729D01*
X01066802Y00499327D01*
X01066788Y00499299D01*
X01066774Y00499230D01*
X01066733Y00499133D01*
X01066677Y00498980D01*
X01066594Y00498814D01*
X01066511Y00498606D01*
X01066400Y00498384D01*
X01066289Y00498148D01*
X01066150Y00497898D01*
X01065984Y00497635D01*
X01065817Y00497371D01*
X01065637Y00497094D01*
X01065429Y00496831D01*
X01065207Y00496581D01*
X01064971Y00496345D01*
X01064722Y00496123D01*
X01064708Y00496110D01*
X01064652Y00496082D01*
X01064583Y00496026D01*
X01064472Y00495943D01*
X01064333Y00495860D01*
X01064181Y00495763D01*
X01063987Y00495666D01*
X01063779Y00495569D01*
X01063529Y00495458D01*
X01063266Y00495361D01*
X01062988Y00495263D01*
X01062683Y00495180D01*
X01062350Y00495111D01*
X01062003Y00495056D01*
X01061643Y00495014D01*
X01061255Y00495000D01*
X01061130D01*
X01060991Y00495014D01*
X01060797Y00495028D01*
X01060561Y00495056D01*
X01060284Y00495111D01*
X01059993Y00495166D01*
X01059660Y00495250D01*
X01059313Y00495347D01*
X01058966Y00495485D01*
X01058606Y00495638D01*
X01058231Y00495832D01*
X01057871Y00496054D01*
X01057524Y00496317D01*
X01057191Y00496623D01*
X01056886Y00496969D01*
Y00496983D01*
X01056872Y00496997D01*
X01056844Y00497039D01*
X01056803Y00497080D01*
X01056761Y00497150D01*
X01056706Y00497233D01*
X01056650Y00497316D01*
X01056595Y00497427D01*
X01056525Y00497552D01*
X01056442Y00497691D01*
X01056373Y00497843D01*
X01056290Y00498009D01*
X01056207Y00498204D01*
X01056123Y00498398D01*
X01056026Y00498620D01*
X01055943Y00498842D01*
X01055860Y00499091D01*
X01055763Y00499355D01*
X01055679Y00499632D01*
X01055596Y00499937D01*
X01055513Y00500242D01*
X01055444Y00500575D01*
X01055361Y00500908D01*
X01055291Y00501282D01*
X01055236Y00501657D01*
X01055180Y00502045D01*
X01055125Y00502461D01*
X01055083Y00502891D01*
X01055042Y00503335D01*
X01055028Y00503793D01*
X01055000Y00504278D01*
Y00504777D01*
Y00504791D01*
Y00504819D01*
Y00504860D01*
Y00504930D01*
Y00505013D01*
Y00505110D01*
X01055014Y00505221D01*
Y00505346D01*
X01055028Y00505623D01*
X01055042Y00505956D01*
X01055055Y00506330D01*
X01055083Y00506733D01*
X01055125Y00507163D01*
X01055166Y00507606D01*
X01055291Y00508522D01*
X01055374Y00508979D01*
X01055471Y00509423D01*
X01055569Y00509853D01*
X01055693Y00510255D01*
X01055707Y00510283D01*
X01055721Y00510352D01*
X01055763Y00510449D01*
X01055818Y00510602D01*
X01055901Y00510768D01*
X01055985Y00510976D01*
X01056096Y00511198D01*
X01056220Y00511434D01*
X01056345Y00511684D01*
X01056512Y00511947D01*
X01056678Y00512225D01*
X01056858Y00512488D01*
X01057066Y00512752D01*
X01057288Y00513001D01*
X01057524Y00513237D01*
X01057774Y00513459D01*
X01057787Y00513473D01*
X01057843Y00513514D01*
X01057912Y00513570D01*
X01058023Y00513639D01*
X01058162Y00513722D01*
X01058328Y00513819D01*
X01058509Y00513917D01*
X01058731Y00514027D01*
X01058966Y00514124D01*
X01059230Y00514222D01*
X01059521Y00514319D01*
X01059826Y00514402D01*
X01060159Y00514485D01*
X01060506Y00514541D01*
X01060866Y00514568D01*
X01061255Y00514582D01*
X01061407D01*
X01061518Y00514568D01*
D02*
G37*
G36*
X01064971Y00544527D02*
X01065138Y00544513D01*
X01065318Y00544499D01*
X01065526Y00544471D01*
X01065748Y00544444D01*
X01066233Y00544360D01*
X01066733Y00544222D01*
X01066996Y00544138D01*
X01067246Y00544027D01*
X01067482Y00543917D01*
X01067703Y00543778D01*
X01067717Y00543764D01*
X01067759Y00543736D01*
X01067814Y00543695D01*
X01067898Y00543639D01*
X01067995Y00543556D01*
X01068120Y00543445D01*
X01068244Y00543334D01*
X01068383Y00543195D01*
X01068536Y00543029D01*
X01068702Y00542863D01*
X01068868Y00542654D01*
X01069035Y00542447D01*
X01069201Y00542211D01*
X01069368Y00541947D01*
X01069534Y00541670D01*
X01069687Y00541379D01*
X01069700Y00541365D01*
X01069728Y00541309D01*
X01069756Y00541212D01*
X01069811Y00541087D01*
X01069881Y00540949D01*
X01069950Y00540768D01*
X01070019Y00540560D01*
X01070103Y00540325D01*
X01070172Y00540075D01*
X01070241Y00539798D01*
X01070311Y00539506D01*
X01070380Y00539201D01*
X01070435Y00538882D01*
X01070463Y00538549D01*
X01070491Y00538203D01*
X01070505Y00537856D01*
Y00537842D01*
Y00537787D01*
Y00537704D01*
X01070491Y00537593D01*
Y00537440D01*
X01070477Y00537274D01*
X01070449Y00537093D01*
X01070422Y00536871D01*
X01070394Y00536650D01*
X01070352Y00536400D01*
X01070297Y00536136D01*
X01070228Y00535873D01*
X01070075Y00535304D01*
X01069964Y00534999D01*
X01069853Y00534708D01*
X01069839Y00534694D01*
X01069825Y00534639D01*
X01069784Y00534555D01*
X01069728Y00534444D01*
X01069659Y00534306D01*
X01069576Y00534139D01*
X01069479Y00533959D01*
X01069354Y00533751D01*
X01069215Y00533529D01*
X01069062Y00533307D01*
X01068896Y00533058D01*
X01068702Y00532808D01*
X01068494Y00532558D01*
X01068272Y00532309D01*
X01068036Y00532045D01*
X01067773Y00531796D01*
X01067759Y00531782D01*
X01067703Y00531740D01*
X01067620Y00531671D01*
X01067509Y00531587D01*
X01067371Y00531477D01*
X01067190Y00531352D01*
X01066996Y00531213D01*
X01066760Y00531074D01*
X01066497Y00530922D01*
X01066219Y00530783D01*
X01065914Y00530631D01*
X01065568Y00530478D01*
X01065221Y00530339D01*
X01064833Y00530215D01*
X01064430Y00530090D01*
X01064001Y00529993D01*
Y00525000D01*
X01061671D01*
Y00529993D01*
X01061560D01*
X01061435Y00530006D01*
X01061255Y00530020D01*
X01061047Y00530062D01*
X01060783Y00530104D01*
X01060506Y00530173D01*
X01060187Y00530256D01*
X01059840Y00530367D01*
X01059480Y00530506D01*
X01059105Y00530686D01*
X01058717Y00530894D01*
X01058315Y00531130D01*
X01057912Y00531421D01*
X01057510Y00531740D01*
X01057108Y00532114D01*
X01057080Y00532142D01*
X01057025Y00532212D01*
X01056914Y00532336D01*
X01056775Y00532503D01*
X01056623Y00532711D01*
X01056442Y00532974D01*
X01056248Y00533266D01*
X01056054Y00533598D01*
X01055860Y00533973D01*
X01055666Y00534389D01*
X01055485Y00534847D01*
X01055333Y00535332D01*
X01055194Y00535859D01*
X01055097Y00536414D01*
X01055028Y00536996D01*
X01055000Y00537606D01*
Y00537620D01*
Y00537648D01*
Y00537690D01*
Y00537745D01*
Y00537814D01*
X01055014Y00537911D01*
X01055028Y00538120D01*
X01055055Y00538383D01*
X01055083Y00538688D01*
X01055139Y00539035D01*
X01055208Y00539395D01*
X01055305Y00539784D01*
X01055416Y00540200D01*
X01055555Y00540616D01*
X01055721Y00541032D01*
X01055901Y00541448D01*
X01056137Y00541864D01*
X01056401Y00542252D01*
X01056692Y00542627D01*
X01056706Y00542654D01*
X01056775Y00542710D01*
X01056858Y00542807D01*
X01056997Y00542932D01*
X01057150Y00543070D01*
X01057344Y00543237D01*
X01057566Y00543403D01*
X01057815Y00543584D01*
X01058093Y00543750D01*
X01058384Y00543930D01*
X01058703Y00544083D01*
X01059050Y00544222D01*
X01059410Y00544346D01*
X01059785Y00544430D01*
X01060187Y00544485D01*
X01060589Y00544499D01*
X01060117Y00542460D01*
X01060104D01*
X01060090Y00542447D01*
X01060006Y00542419D01*
X01059868Y00542349D01*
X01059701Y00542252D01*
X01059493Y00542127D01*
X01059271Y00541975D01*
X01059022Y00541767D01*
X01058772Y00541531D01*
X01058522Y00541240D01*
X01058273Y00540907D01*
X01058051Y00540519D01*
X01057940Y00540297D01*
X01057843Y00540075D01*
X01057760Y00539839D01*
X01057677Y00539576D01*
X01057607Y00539312D01*
X01057538Y00539021D01*
X01057496Y00538716D01*
X01057455Y00538397D01*
X01057441Y00538064D01*
X01057427Y00537717D01*
Y00537690D01*
Y00537620D01*
X01057441Y00537523D01*
Y00537371D01*
X01057455Y00537190D01*
X01057482Y00536982D01*
X01057510Y00536760D01*
X01057566Y00536497D01*
X01057621Y00536220D01*
X01057690Y00535928D01*
X01057774Y00535637D01*
X01057871Y00535318D01*
X01057996Y00535013D01*
X01058134Y00534694D01*
X01058301Y00534389D01*
X01058481Y00534084D01*
X01058495Y00534070D01*
X01058536Y00534015D01*
X01058592Y00533931D01*
X01058675Y00533834D01*
X01058800Y00533709D01*
X01058925Y00533557D01*
X01059091Y00533404D01*
X01059285Y00533238D01*
X01059493Y00533071D01*
X01059729Y00532891D01*
X01059993Y00532725D01*
X01060284Y00532558D01*
X01060589Y00532406D01*
X01060922Y00532267D01*
X01061282Y00532142D01*
X01061671Y00532045D01*
Y00540685D01*
Y00540699D01*
Y00540741D01*
Y00540824D01*
Y00540921D01*
Y00541032D01*
X01061684Y00541171D01*
Y00541309D01*
X01061698Y00541476D01*
X01061712Y00541822D01*
X01061754Y00542169D01*
X01061796Y00542516D01*
X01061837Y00542668D01*
X01061865Y00542821D01*
Y00542835D01*
X01061879Y00542849D01*
X01061893Y00542890D01*
X01061906Y00542946D01*
X01061962Y00543084D01*
X01062045Y00543265D01*
X01062170Y00543459D01*
X01062322Y00543667D01*
X01062517Y00543861D01*
X01062752Y00544055D01*
X01062766D01*
X01062780Y00544083D01*
X01062822Y00544097D01*
X01062877Y00544138D01*
X01062960Y00544166D01*
X01063044Y00544208D01*
X01063141Y00544249D01*
X01063252Y00544305D01*
X01063390Y00544346D01*
X01063529Y00544388D01*
X01063862Y00544471D01*
X01064236Y00544527D01*
X01064666Y00544541D01*
X01064846D01*
X01064971Y00544527D01*
D02*
G37*
G36*
X01062808Y00561269D02*
X01069687D01*
Y00560326D01*
X01055000D01*
Y00561269D01*
X01061879D01*
Y00570075D01*
X01062808D01*
Y00561269D01*
D02*
G37*
G36*
X01067759Y00557704D02*
X01056928D01*
Y00558633D01*
X01067759D01*
Y00557704D01*
D02*
G37*
G36*
X01065235Y00555000D02*
X01059452D01*
Y00555929D01*
X01065235D01*
Y00555000D01*
D02*
G37*
%LPC*%
G36*
X00462752Y00072372D02*
X00462034Y00071678D01*
X00462520Y00072141D01*
X00462763Y00072360D01*
X00462752Y00072372D01*
D02*
G37*
G36*
X00462034Y00071678D02*
X00462011Y00071655D01*
X00462010Y00071653D01*
X00462034Y00071678D01*
D02*
G37*
G36*
X00470365Y00064759D02*
X00472331Y00062815D01*
X00472308Y00062862D01*
X00472285Y00062977D01*
X00472216Y00063139D01*
X00472100Y00063394D01*
X00472077Y00063417D01*
X00472031Y00063510D01*
X00471961Y00063649D01*
X00471846Y00063810D01*
X00471707Y00063972D01*
X00471545Y00064158D01*
X00471336Y00064320D01*
X00471128Y00064458D01*
X00471105D01*
X00471059Y00064505D01*
X00470989Y00064528D01*
X00470897Y00064574D01*
X00470642Y00064667D01*
X00470365Y00064759D01*
D02*
G37*
G36*
X00468467Y00063903D02*
Y00059321D01*
X00468490D01*
X00468560Y00059298D01*
X00468652Y00059275D01*
X00468768Y00059252D01*
X00469069Y00059206D01*
X00469370Y00059183D01*
X00469439D01*
X00469508Y00059159D01*
X00469601D01*
X00469832Y00059136D01*
X00470041Y00059113D01*
X00470087D01*
X00470203Y00059136D01*
X00470388Y00059159D01*
X00470619Y00059206D01*
X00470874Y00059298D01*
X00471151Y00059437D01*
X00471452Y00059645D01*
X00471730Y00059900D01*
X00471753Y00059923D01*
X00471822Y00060016D01*
X00471938Y00060154D01*
X00472054Y00060339D01*
X00468467Y00063903D01*
D02*
G37*
G36*
X00480222Y00060339D02*
X00480037D01*
X00479921Y00060316D01*
X00479759Y00060293D01*
X00479597Y00060247D01*
X00479227Y00060108D01*
X00479204D01*
X00479157Y00060062D01*
X00479088Y00060016D01*
X00478972Y00059946D01*
X00478834Y00059830D01*
X00478648Y00059715D01*
X00478463Y00059553D01*
X00478232Y00059345D01*
Y00056869D01*
X00481448Y00053675D01*
X00481471D01*
X00481495Y00053699D01*
X00481610Y00053814D01*
X00481749Y00053953D01*
X00481888Y00054161D01*
X00481911Y00054208D01*
X00482004Y00054346D01*
X00482119Y00054555D01*
X00482281Y00054855D01*
X00482420Y00055226D01*
X00482536Y00055712D01*
X00482628Y00056267D01*
X00482652Y00056892D01*
Y00056915D01*
Y00056961D01*
Y00057054D01*
Y00057169D01*
X00482628Y00057308D01*
X00482605Y00057470D01*
X00482559Y00057840D01*
X00482467Y00058257D01*
X00482328Y00058674D01*
X00482142Y00059090D01*
X00481888Y00059460D01*
X00481865Y00059507D01*
X00481749Y00059599D01*
X00481610Y00059738D01*
X00481402Y00059900D01*
X00481147Y00060062D01*
X00480870Y00060201D01*
X00480569Y00060293D01*
X00480222Y00060339D01*
D02*
G37*
G36*
X00474344Y00076792D02*
X00474021D01*
X00473859Y00076768D01*
X00473650D01*
X00473419Y00076745D01*
X00473141Y00076722D01*
X00472840Y00076676D01*
X00472517Y00076630D01*
X00472169Y00076583D01*
X00471799Y00076514D01*
X00470989Y00076375D01*
X00470110Y00076144D01*
X00469161Y00075889D01*
X00468166Y00075542D01*
X00467148Y00075126D01*
X00466107Y00074640D01*
X00465598Y00074362D01*
X00465066Y00074038D01*
X00464557Y00073714D01*
X00464024Y00073367D01*
X00463515Y00072997D01*
X00463006Y00072580D01*
X00462763Y00072360D01*
X00469532Y00065592D01*
X00469948D01*
X00470110Y00065569D01*
X00470503Y00065546D01*
X00470943Y00065500D01*
X00471383Y00065453D01*
X00471822Y00065361D01*
X00472239Y00065245D01*
X00472285Y00065222D01*
X00472401Y00065176D01*
X00472586Y00065083D01*
X00472817Y00064967D01*
X00473072Y00064805D01*
X00473349Y00064597D01*
X00473627Y00064343D01*
X00473905Y00064042D01*
X00473928Y00063996D01*
X00474021Y00063880D01*
X00474136Y00063718D01*
X00474252Y00063463D01*
X00474391Y00063186D01*
X00474483Y00062839D01*
X00474576Y00062468D01*
X00474599Y00062052D01*
Y00062029D01*
Y00061936D01*
Y00061797D01*
X00474576Y00061612D01*
X00474553Y00061427D01*
X00474506Y00061196D01*
X00474391Y00060756D01*
X00476682Y00058442D01*
Y00062584D01*
Y00062607D01*
Y00062653D01*
Y00062723D01*
Y00062815D01*
Y00063070D01*
Y00063348D01*
X00476659Y00063672D01*
Y00063972D01*
X00476635Y00064204D01*
Y00064320D01*
X00476612Y00064389D01*
Y00064412D01*
X00476589Y00064435D01*
X00476566Y00064574D01*
X00476497Y00064713D01*
X00476404Y00064852D01*
X00476381Y00064875D01*
X00476288Y00064921D01*
X00476173Y00064944D01*
X00476011Y00064967D01*
X00475964D01*
X00475826Y00064944D01*
X00475617Y00064921D01*
X00475363Y00064829D01*
X00475224Y00065153D01*
X00477816Y00066217D01*
X00478232D01*
Y00059946D01*
X00478255Y00059969D01*
X00478301Y00060016D01*
X00478371Y00060108D01*
X00478463Y00060224D01*
X00478579Y00060363D01*
X00478718Y00060501D01*
X00479042Y00060826D01*
X00479458Y00061149D01*
X00479921Y00061427D01*
X00480176Y00061543D01*
X00480430Y00061635D01*
X00480685Y00061682D01*
X00480962Y00061705D01*
X00481101D01*
X00481194Y00061682D01*
X00481425Y00061635D01*
X00481749Y00061566D01*
X00482096Y00061427D01*
X00482490Y00061219D01*
X00482698Y00061080D01*
X00482883Y00060941D01*
X00483091Y00060756D01*
X00483276Y00060548D01*
X00483299Y00060525D01*
X00483323Y00060501D01*
X00483369Y00060432D01*
X00483438Y00060339D01*
X00483508Y00060224D01*
X00483600Y00060085D01*
X00483693Y00059923D01*
X00483785Y00059738D01*
X00483878Y00059530D01*
X00483947Y00059298D01*
X00484109Y00058743D01*
X00484225Y00058141D01*
X00484271Y00057794D01*
Y00057424D01*
Y00057401D01*
Y00057331D01*
Y00057193D01*
X00484248Y00057054D01*
X00484225Y00056845D01*
X00484202Y00056614D01*
X00484156Y00056383D01*
X00484086Y00056105D01*
X00483901Y00055503D01*
X00483785Y00055203D01*
X00483623Y00054902D01*
X00483461Y00054578D01*
X00483253Y00054277D01*
X00483022Y00053999D01*
X00482744Y00053722D01*
X00482721Y00053699D01*
X00482675Y00053675D01*
X00482605Y00053606D01*
X00482513Y00053513D01*
X00482258Y00053328D01*
X00481981Y00053143D01*
X00487334Y00047790D01*
X00487280Y00047729D01*
X00487118Y00047543D01*
X00487002Y00047405D01*
X00486996Y00047397D01*
X00486833Y00047223D01*
X00486886Y00047266D01*
X00486996Y00047397D01*
X00487349Y00047775D01*
X00487334Y00047790D01*
X00487465Y00047937D01*
X00487650Y00048191D01*
X00487835Y00048446D01*
X00488043Y00048724D01*
X00488274Y00049024D01*
X00488506Y00049372D01*
X00488737Y00049718D01*
X00489223Y00050505D01*
X00489686Y00051361D01*
X00490149Y00052287D01*
X00490588Y00053305D01*
X00490982Y00054393D01*
X00491306Y00055550D01*
X00491560Y00056776D01*
X00491653Y00057401D01*
X00491722Y00058049D01*
X00491745Y00058697D01*
X00491768Y00059368D01*
Y00059391D01*
Y00059460D01*
Y00059553D01*
Y00059692D01*
X00491745Y00059854D01*
Y00060062D01*
X00491722Y00060316D01*
X00491699Y00060571D01*
X00491653Y00060872D01*
X00491606Y00061196D01*
X00491560Y00061543D01*
X00491491Y00061913D01*
X00491352Y00062723D01*
X00491121Y00063625D01*
X00490866Y00064551D01*
X00490519Y00065546D01*
X00490103Y00066564D01*
X00489617Y00067605D01*
X00489339Y00068137D01*
X00489015Y00068647D01*
X00488691Y00069179D01*
X00488344Y00069688D01*
X00487974Y00070197D01*
X00487557Y00070706D01*
X00487118Y00071192D01*
X00486655Y00071678D01*
X00486632Y00071701D01*
X00486585Y00071747D01*
X00486516Y00071793D01*
X00486423Y00071909D01*
X00486284Y00072025D01*
X00486146Y00072141D01*
X00485961Y00072303D01*
X00485752Y00072488D01*
X00485521Y00072673D01*
X00485243Y00072858D01*
X00484966Y00073066D01*
X00484665Y00073298D01*
X00484341Y00073529D01*
X00483970Y00073760D01*
X00483207Y00074246D01*
X00482351Y00074709D01*
X00481402Y00075172D01*
X00480407Y00075612D01*
X00479319Y00076005D01*
X00478162Y00076329D01*
X00476936Y00076583D01*
X00476311Y00076676D01*
X00475663Y00076745D01*
X00475016Y00076768D01*
X00474344Y00076792D01*
D02*
G37*
G36*
X00486833Y00047223D02*
X00486770Y00047173D01*
X00486731Y00047115D01*
X00486833Y00047223D01*
D02*
G37*
G36*
X00462010Y00071653D02*
X00461386Y00071007D01*
X00461410Y00070984D01*
X00461248Y00070775D01*
X00461039Y00070544D01*
X00460854Y00070266D01*
X00460646Y00069989D01*
X00460415Y00069688D01*
X00460183Y00069364D01*
X00459952Y00068994D01*
X00459489Y00068230D01*
X00459003Y00067374D01*
X00458540Y00066425D01*
X00458101Y00065430D01*
X00457730Y00064343D01*
X00457383Y00063186D01*
X00457152Y00061959D01*
X00457036Y00061335D01*
X00456990Y00060687D01*
X00456944Y00060039D01*
X00456921Y00059368D01*
Y00059345D01*
Y00059275D01*
Y00059183D01*
Y00059044D01*
X00456944Y00058882D01*
Y00058674D01*
X00456967Y00058419D01*
X00456990Y00058164D01*
X00457036Y00057864D01*
X00457083Y00057540D01*
X00457129Y00057193D01*
X00457198Y00056822D01*
X00457360Y00056013D01*
X00457569Y00055110D01*
X00457823Y00054184D01*
X00458170Y00053190D01*
X00458587Y00052171D01*
X00459072Y00051130D01*
X00459350Y00050598D01*
X00459674Y00050066D01*
X00459998Y00049557D01*
X00460345Y00049024D01*
X00460739Y00048515D01*
X00461132Y00048006D01*
X00461572Y00047520D01*
X00462034Y00047034D01*
X00462057Y00047011D01*
X00462104Y00046988D01*
X00462173Y00046919D01*
X00462266Y00046826D01*
X00462405Y00046710D01*
X00462543Y00046572D01*
X00462729Y00046410D01*
X00462937Y00046248D01*
X00463191Y00046062D01*
X00463446Y00045854D01*
X00463724Y00045646D01*
X00464024Y00045415D01*
X00464371Y00045206D01*
X00464719Y00044975D01*
X00465482Y00044489D01*
X00466338Y00044026D01*
X00467287Y00043563D01*
X00468305Y00043124D01*
X00469393Y00042730D01*
X00470527Y00042407D01*
X00471753Y00042152D01*
X00472378Y00042059D01*
X00473026Y00042013D01*
X00473674Y00041967D01*
X00474344Y00041944D01*
X00474669D01*
X00474831Y00041967D01*
X00475039D01*
X00475293Y00041990D01*
X00475548Y00042013D01*
X00475849Y00042059D01*
X00476173Y00042106D01*
X00476520Y00042152D01*
X00476890Y00042221D01*
X00477700Y00042360D01*
X00478602Y00042592D01*
X00479528Y00042846D01*
X00480523Y00043193D01*
X00481541Y00043610D01*
X00482582Y00044096D01*
X00483114Y00044373D01*
X00483623Y00044674D01*
X00484156Y00044998D01*
X00484665Y00045345D01*
X00485174Y00045739D01*
X00485683Y00046132D01*
X00486169Y00046572D01*
X00486655Y00047034D01*
X00486678Y00047057D01*
X00486724Y00047104D01*
X00486731Y00047115D01*
X00486678Y00047057D01*
X00485984Y00046410D01*
X00479875Y00052518D01*
X00479667D01*
X00479505Y00052542D01*
X00479319Y00052565D01*
X00479088Y00052588D01*
X00478810Y00052634D01*
X00478556Y00052703D01*
X00478278Y00052796D01*
X00478255Y00052819D01*
X00478139Y00052842D01*
X00477977Y00052912D01*
X00477792Y00053004D01*
X00477538Y00053120D01*
X00477283Y00053259D01*
X00476982Y00053421D01*
X00476682Y00053606D01*
Y00055712D01*
X00473188Y00059206D01*
X00473141Y00059183D01*
X00473003Y00059090D01*
X00472794Y00058997D01*
X00472517Y00058859D01*
X00472146Y00058743D01*
X00471707Y00058627D01*
X00471198Y00058535D01*
X00470642Y00058512D01*
X00470341D01*
X00470203Y00058535D01*
X00470018D01*
X00469624Y00058581D01*
X00469532D01*
X00469439Y00058604D01*
X00469300Y00058627D01*
X00469138Y00058650D01*
X00468953Y00058674D01*
X00468722Y00058720D01*
X00468467Y00058766D01*
Y00055064D01*
Y00055041D01*
Y00055017D01*
Y00054879D01*
X00468490Y00054670D01*
X00468513Y00054416D01*
X00468537Y00054161D01*
X00468583Y00053907D01*
X00468652Y00053699D01*
X00468745Y00053537D01*
X00468768Y00053513D01*
X00468814Y00053467D01*
X00468907Y00053421D01*
X00469022Y00053351D01*
X00469184Y00053259D01*
X00469370Y00053213D01*
X00469578Y00053166D01*
X00469832Y00053143D01*
X00470318D01*
Y00052773D01*
X00464834D01*
Y00053143D01*
X00465459D01*
X00465598Y00053166D01*
X00465760Y00053213D01*
X00465945Y00053259D01*
X00466130Y00053351D01*
X00466315Y00053490D01*
X00466477Y00053652D01*
Y00053675D01*
X00466500Y00053722D01*
X00466547Y00053814D01*
X00466570Y00053953D01*
X00466616Y00054138D01*
X00466639Y00054370D01*
X00466662Y00054693D01*
Y00055064D01*
Y00063324D01*
Y00063348D01*
Y00063371D01*
Y00063533D01*
X00466639Y00063718D01*
Y00063972D01*
X00466593Y00064227D01*
X00466547Y00064482D01*
X00466500Y00064690D01*
X00466408Y00064829D01*
X00466385Y00064852D01*
X00466338Y00064898D01*
X00466246Y00064967D01*
X00466130Y00065037D01*
X00465991Y00065106D01*
X00465783Y00065176D01*
X00465575Y00065222D01*
X00465320Y00065245D01*
X00464834D01*
Y00065592D01*
X00466801D01*
X00461410Y00070984D01*
X00461572Y00071169D01*
X00461710Y00071308D01*
X00461826Y00071446D01*
X00461919Y00071539D01*
X00461988Y00071608D01*
X00462010Y00071653D01*
D02*
G37*
G36*
X00427563Y00068994D02*
X00427470D01*
X00427378Y00068970D01*
X00427239D01*
X00426915Y00068878D01*
X00426753Y00068808D01*
X00426568Y00068716D01*
X00426545D01*
X00426521Y00068693D01*
X00426475Y00068670D01*
X00426452Y00068647D01*
X00426429D01*
X00426406Y00068623D01*
X00426383Y00068600D01*
X00426221Y00068461D01*
X00426059Y00068253D01*
X00425874Y00067999D01*
X00419603Y00057169D01*
X00421662Y00055989D01*
X00421708Y00056036D01*
X00421824Y00056151D01*
X00421894Y00056244D01*
X00422009Y00056336D01*
X00422148Y00056452D01*
X00422310Y00056591D01*
X00422333D01*
X00422356Y00056637D01*
X00422426Y00056684D01*
X00422518Y00056753D01*
X00422750Y00056915D01*
X00423074Y00057123D01*
X00423097Y00057146D01*
X00423120Y00057169D01*
X00423259Y00057239D01*
X00423282Y00057262D01*
X00423351Y00057285D01*
X00423513Y00057401D01*
X00423536Y00057424D01*
X00423606Y00057447D01*
X00423675Y00057493D01*
X00423791Y00057563D01*
X00423999Y00057702D01*
X00424092Y00057748D01*
X00424161Y00057794D01*
X00424184D01*
X00424208Y00057840D01*
X00424277Y00057887D01*
X00424370Y00057933D01*
X00424601Y00058095D01*
X00424879Y00058280D01*
X00425226Y00058488D01*
X00425596Y00058697D01*
X00425966Y00058882D01*
X00426336Y00059021D01*
X00426359D01*
X00426383Y00059044D01*
X00426521Y00059067D01*
X00426730Y00059136D01*
X00427007Y00059183D01*
X00427355Y00059252D01*
X00427748Y00059298D01*
X00428188Y00059321D01*
X00428697D01*
X00428789Y00059298D01*
X00428882D01*
X00429021Y00059275D01*
X00429483D01*
X00429645Y00059252D01*
X00430039D01*
X00430293Y00059229D01*
X00430941D01*
X00431103Y00059252D01*
X00431288Y00059275D01*
X00431497Y00059298D01*
X00431728Y00059345D01*
X00431959Y00059414D01*
X00432214Y00059507D01*
X00433764Y00060154D01*
X00429229Y00068022D01*
X00429206D01*
Y00068045D01*
X00429159Y00068091D01*
X00429113Y00068184D01*
X00429044Y00068276D01*
X00429021Y00068299D01*
X00428974Y00068346D01*
X00428859Y00068461D01*
X00428835Y00068485D01*
X00428766Y00068531D01*
X00428650Y00068623D01*
X00428488Y00068716D01*
X00428303Y00068808D01*
X00428072Y00068901D01*
X00427840Y00068947D01*
X00427563Y00068970D01*
Y00068994D01*
D02*
G37*
G36*
X00434019Y00059692D02*
X00432399Y00059044D01*
X00432376Y00059021D01*
X00432283Y00058997D01*
X00432121Y00058951D01*
X00431936Y00058882D01*
X00431728Y00058812D01*
X00431473Y00058766D01*
X00431196Y00058720D01*
X00430895Y00058697D01*
X00430409D01*
X00430177Y00058720D01*
X00429900D01*
X00429344Y00058766D01*
X00429113D01*
X00428997Y00058789D01*
X00428211D01*
X00427910Y00058766D01*
X00427563Y00058743D01*
X00427216Y00058697D01*
X00426846Y00058627D01*
X00426498Y00058535D01*
X00426452Y00058512D01*
X00426336Y00058465D01*
X00426151Y00058396D01*
X00425920Y00058280D01*
X00425619Y00058118D01*
X00425272Y00057910D01*
X00424879Y00057678D01*
X00424462Y00057378D01*
X00424416Y00057354D01*
X00424300Y00057262D01*
X00424208Y00057216D01*
X00424092Y00057123D01*
X00423930Y00057054D01*
X00423768Y00056938D01*
X00423745D01*
X00423699Y00056892D01*
X00423560Y00056822D01*
X00423467Y00056776D01*
X00423351Y00056707D01*
X00423328D01*
X00423282Y00056660D01*
X00423213Y00056614D01*
X00423120Y00056545D01*
X00422889Y00056383D01*
X00422611Y00056174D01*
X00422565Y00056151D01*
X00422449Y00056059D01*
X00422287Y00055897D01*
X00422102Y00055712D01*
X00432121Y00049927D01*
X00432168Y00049950D01*
X00432283Y00049996D01*
X00432491Y00050066D01*
X00432746Y00050228D01*
X00433070Y00050413D01*
X00433463Y00050690D01*
X00433880Y00051038D01*
X00434111Y00051246D01*
X00434343Y00051477D01*
X00434366Y00051500D01*
X00434435Y00051570D01*
X00434528Y00051685D01*
X00434667Y00051847D01*
X00434690Y00051870D01*
X00434759Y00051940D01*
X00434829Y00052032D01*
X00434921Y00052148D01*
Y00052171D01*
X00434944Y00052194D01*
X00434991Y00052264D01*
X00435037Y00052356D01*
X00435106Y00052472D01*
X00435176Y00052634D01*
X00435245Y00052819D01*
X00435338Y00053051D01*
Y00053074D01*
X00435384Y00053143D01*
X00435407Y00053259D01*
X00435476Y00053398D01*
X00435592Y00053699D01*
X00435662Y00053861D01*
X00435731Y00053999D01*
X00435754Y00054022D01*
X00435777Y00054092D01*
X00435847Y00054161D01*
X00435916Y00054277D01*
X00436101Y00054531D01*
X00436333Y00054786D01*
X00436356Y00054809D01*
X00436448Y00054902D01*
X00436564Y00054994D01*
X00436680Y00055087D01*
X00434019Y00059692D01*
D02*
G37*
G36*
X00426846Y00051199D02*
Y00051153D01*
X00426822Y00051061D01*
X00426799Y00050945D01*
Y00050852D01*
Y00050806D01*
X00426822Y00050714D01*
X00426846Y00050575D01*
X00426892Y00050436D01*
Y00050413D01*
X00426915Y00050390D01*
X00426938Y00050320D01*
Y00050297D01*
X00426961Y00050274D01*
X00427031Y00050135D01*
X00427123Y00049973D01*
X00427216Y00049811D01*
X00427239Y00049834D01*
X00427308Y00049880D01*
X00427401Y00049950D01*
X00427517Y00050043D01*
X00427794Y00050274D01*
X00428095Y00050482D01*
X00426846Y00051199D01*
D02*
G37*
G36*
X00425480Y00051986D02*
X00425457Y00051963D01*
X00425411Y00051870D01*
X00425341Y00051755D01*
X00425272Y00051593D01*
Y00051547D01*
X00425249Y00051454D01*
X00425226Y00051292D01*
Y00051084D01*
Y00051061D01*
Y00050968D01*
Y00050829D01*
Y00050690D01*
Y00050528D01*
Y00050413D01*
Y00050320D01*
Y00050274D01*
Y00050251D01*
Y00050205D01*
Y00050112D01*
Y00049996D01*
X00425249Y00049765D01*
X00425295Y00049533D01*
Y00049487D01*
X00425318Y00049441D01*
X00425341Y00049348D01*
X00425365Y00049325D01*
X00425388Y00049256D01*
X00425434Y00049140D01*
Y00049117D01*
X00425457Y00049094D01*
X00425527Y00048955D01*
X00425642Y00048747D01*
X00425804Y00048469D01*
X00425827Y00048492D01*
X00425874Y00048562D01*
X00425897Y00048585D01*
X00425966Y00048654D01*
X00425989Y00048677D01*
X00426036Y00048724D01*
X00426105Y00048816D01*
X00426221Y00048932D01*
X00426498Y00049186D01*
X00426822Y00049487D01*
X00426799Y00049533D01*
X00426730Y00049626D01*
X00426614Y00049834D01*
X00426545Y00049950D01*
X00426475Y00050112D01*
X00426452Y00050135D01*
X00426429Y00050158D01*
X00426406Y00050228D01*
Y00050251D01*
X00426383Y00050274D01*
X00426336Y00050390D01*
X00426290Y00050598D01*
X00426267Y00050829D01*
Y00050852D01*
Y00050876D01*
X00426290Y00051014D01*
X00426313Y00051223D01*
X00426383Y00051477D01*
X00425480Y00051986D01*
D02*
G37*
G36*
X00424254Y00052680D02*
Y00052657D01*
X00424231Y00052611D01*
X00424208Y00052542D01*
X00424184Y00052449D01*
X00424115Y00052310D01*
X00424046Y00052148D01*
X00423930Y00051986D01*
X00423814Y00051778D01*
X00423791Y00051755D01*
X00423768Y00051708D01*
X00423722Y00051639D01*
X00423652Y00051547D01*
X00423560Y00051338D01*
X00423513Y00051246D01*
X00423490Y00051153D01*
Y00051130D01*
Y00051107D01*
Y00051038D01*
Y00050922D01*
X00423513Y00050783D01*
X00423560Y00050598D01*
X00423606Y00050390D01*
X00423699Y00050112D01*
X00423722Y00050066D01*
X00423745Y00049973D01*
X00423791Y00049834D01*
X00423837Y00049649D01*
X00423907Y00049279D01*
X00423930Y00049117D01*
X00423907Y00048978D01*
Y00048955D01*
X00423884Y00048885D01*
Y00048793D01*
X00423861Y00048677D01*
X00423837Y00048353D01*
Y00048006D01*
Y00047960D01*
Y00047914D01*
Y00047891D01*
X00423861Y00047867D01*
Y00047844D01*
X00423884D01*
X00423930Y00047798D01*
X00423999Y00047775D01*
X00424046Y00047752D01*
X00423999D01*
X00424022Y00047729D01*
X00424069Y00047705D01*
X00424138Y00047659D01*
X00424161Y00047636D01*
X00424231Y00047613D01*
X00424277Y00047567D01*
X00424323Y00047520D01*
X00424346Y00047497D01*
X00424393Y00047451D01*
X00424485Y00047382D01*
X00424647Y00047289D01*
X00424693Y00047266D01*
X00424763Y00047220D01*
X00424855Y00047173D01*
X00424948Y00047104D01*
Y00047127D01*
X00424994Y00047173D01*
X00425018Y00047266D01*
X00425087Y00047382D01*
X00425249Y00047682D01*
X00425457Y00048029D01*
X00425434Y00048053D01*
X00425411Y00048099D01*
X00425365Y00048191D01*
X00425295Y00048307D01*
X00425133Y00048585D01*
X00424971Y00048932D01*
Y00048955D01*
X00424948Y00048978D01*
X00424902Y00049071D01*
X00424855Y00049140D01*
Y00049163D01*
Y00049186D01*
X00424832Y00049256D01*
X00424786Y00049395D01*
Y00049418D01*
Y00049441D01*
X00424763Y00049464D01*
Y00049533D01*
X00424740Y00049626D01*
X00424717Y00049742D01*
Y00049880D01*
X00424693Y00050043D01*
Y00050251D01*
Y00050297D01*
Y00050390D01*
Y00050505D01*
Y00050667D01*
Y00050714D01*
Y00050806D01*
Y00050922D01*
Y00051084D01*
Y00051107D01*
Y00051153D01*
Y00051223D01*
Y00051315D01*
X00424717Y00051523D01*
X00424763Y00051732D01*
Y00051755D01*
X00424786Y00051778D01*
X00424832Y00051917D01*
X00424925Y00052079D01*
X00425041Y00052241D01*
X00424254Y00052680D01*
D02*
G37*
G36*
X00429969Y00048076D02*
X00429946D01*
X00429900Y00048029D01*
X00429761Y00047937D01*
X00429576Y00047821D01*
X00429414Y00047705D01*
X00429391D01*
X00429368Y00047659D01*
X00429229Y00047520D01*
X00429067Y00047312D01*
X00428882Y00047011D01*
X00428859Y00046988D01*
X00428835Y00046919D01*
Y00046895D01*
X00428812Y00046872D01*
X00428835Y00046849D01*
X00428905Y00046826D01*
X00429021Y00046757D01*
X00429159Y00046710D01*
X00429183D01*
X00429229Y00046687D01*
X00429321Y00046664D01*
X00429437Y00046641D01*
X00429576Y00046618D01*
X00429738Y00046595D01*
X00430085Y00046572D01*
X00430154D01*
X00430316Y00046595D01*
X00430502Y00046641D01*
X00430571Y00046664D01*
X00430617Y00046710D01*
X00430640D01*
Y00046734D01*
Y00046757D01*
X00430663Y00046780D01*
X00430687Y00046919D01*
X00430710Y00047057D01*
X00430733Y00047173D01*
Y00047196D01*
Y00047266D01*
X00430710Y00047358D01*
X00430640Y00047451D01*
X00430617Y00047474D01*
X00430594D01*
Y00047497D01*
X00430571Y00047520D01*
X00430548Y00047543D01*
X00430502Y00047613D01*
X00430432Y00047705D01*
X00430340Y00047798D01*
X00430224Y00047891D01*
X00430131Y00047983D01*
X00430039Y00048053D01*
X00429969Y00048076D01*
D02*
G37*
G36*
X00428581Y00050205D02*
X00428558Y00050181D01*
X00428488Y00050158D01*
X00428396Y00050066D01*
X00428280Y00049973D01*
X00428118Y00049857D01*
X00427933Y00049718D01*
X00427493Y00049372D01*
X00427470Y00049348D01*
X00427378Y00049279D01*
X00427262Y00049186D01*
X00427123Y00049047D01*
X00426938Y00048909D01*
X00426753Y00048724D01*
X00426359Y00048307D01*
X00426336Y00048284D01*
X00426313Y00048261D01*
X00426244Y00048191D01*
X00426174Y00048099D01*
X00425989Y00047844D01*
X00425781Y00047520D01*
X00425573Y00047150D01*
X00425388Y00046757D01*
X00425249Y00046340D01*
X00425226Y00046109D01*
X00425203Y00045901D01*
X00425226Y00045924D01*
X00425249Y00045993D01*
X00425295Y00046086D01*
X00425341Y00046155D01*
X00425365Y00046178D01*
X00425388Y00046201D01*
X00425527Y00046317D01*
X00425758Y00046433D01*
X00426036Y00046548D01*
X00426059Y00046572D01*
X00426128Y00046595D01*
X00426174Y00046618D01*
X00426290D01*
X00426313Y00046641D01*
X00426383Y00046664D01*
X00426475Y00046687D01*
X00426498D01*
X00426591Y00046710D01*
X00426684D01*
X00426846Y00046734D01*
X00427169Y00046757D01*
X00427493Y00046734D01*
X00427517D01*
X00427563Y00046710D01*
X00427632Y00046687D01*
X00427748Y00046664D01*
X00427771D01*
X00427864Y00046641D01*
X00427979Y00046618D01*
X00428141Y00046548D01*
Y00046572D01*
X00428164Y00046641D01*
X00428211Y00046780D01*
Y00046803D01*
X00428257Y00046895D01*
X00428326Y00047034D01*
X00428419Y00047243D01*
X00428442Y00047266D01*
X00428465Y00047335D01*
X00428535Y00047428D01*
X00428604Y00047543D01*
X00428835Y00047821D01*
X00429113Y00048099D01*
X00429136Y00048122D01*
X00429229Y00048191D01*
X00429321Y00048238D01*
X00429414Y00048307D01*
X00429553Y00048400D01*
X00429715Y00048515D01*
X00429738Y00048538D01*
X00429807Y00048585D01*
X00429900Y00048631D01*
X00430016Y00048724D01*
X00430293Y00048909D01*
X00430409Y00049001D01*
X00430502Y00049094D01*
X00428581Y00050205D01*
D02*
G37*
G36*
X00428627Y00046363D02*
Y00046340D01*
Y00046317D01*
X00428604Y00046248D01*
X00428581Y00046155D01*
Y00046132D01*
X00428558Y00046086D01*
X00428535Y00046016D01*
X00428512Y00045901D01*
X00428396Y00045646D01*
X00428211Y00045322D01*
X00428257Y00045299D01*
X00428373Y00045230D01*
X00428558Y00045137D01*
X00428789Y00045114D01*
X00428951D01*
X00429113Y00045160D01*
X00429252Y00045253D01*
X00429275Y00045276D01*
X00429298Y00045322D01*
X00429344Y00045415D01*
X00429368Y00045438D01*
Y00045484D01*
X00429391Y00045530D01*
Y00045553D01*
X00429414Y00045577D01*
Y00045739D01*
X00429368Y00045924D01*
X00429321Y00046039D01*
X00429252Y00046155D01*
X00429229D01*
X00429159Y00046178D01*
X00429067Y00046201D01*
X00428997Y00046224D01*
X00428951Y00046248D01*
X00428859Y00046271D01*
X00428743Y00046317D01*
X00428627Y00046363D01*
D02*
G37*
G36*
X00421130Y00054508D02*
Y00054485D01*
X00421107Y00054416D01*
X00421084Y00054300D01*
X00421037Y00054138D01*
X00420968Y00053930D01*
X00420876Y00053699D01*
X00420760Y00053421D01*
X00420621Y00053120D01*
X00420598Y00053097D01*
X00420575Y00053004D01*
X00420528Y00052889D01*
X00420459Y00052750D01*
X00420343Y00052449D01*
X00420297Y00052310D01*
X00420251Y00052194D01*
Y00052171D01*
X00420228Y00052125D01*
Y00052009D01*
Y00051870D01*
X00420251Y00051662D01*
X00420297Y00051408D01*
X00420366Y00051107D01*
X00420459Y00050737D01*
Y00050714D01*
X00420482Y00050690D01*
X00420505Y00050552D01*
X00420552Y00050390D01*
X00420598Y00050251D01*
Y00050205D01*
Y00050181D01*
X00420621Y00050112D01*
X00420644Y00050019D01*
X00420667Y00049880D01*
X00420690Y00049695D01*
X00420737Y00049464D01*
X00420760Y00049186D01*
X00420806Y00048885D01*
Y00048862D01*
X00420829Y00048770D01*
Y00048631D01*
X00420852Y00048469D01*
X00420922Y00048099D01*
X00420968Y00047914D01*
X00421014Y00047752D01*
Y00047729D01*
X00421037Y00047682D01*
X00421061Y00047590D01*
X00421107Y00047474D01*
X00421199Y00047196D01*
X00421361Y00046849D01*
Y00046826D01*
X00421385Y00046780D01*
X00421454Y00046641D01*
X00421523Y00046456D01*
X00421593Y00046271D01*
X00421616D01*
X00421662Y00046294D01*
X00421685D01*
X00421755Y00046317D01*
X00421847Y00046340D01*
X00422056D01*
X00422171Y00046294D01*
X00422310Y00046248D01*
X00422472Y00046178D01*
X00422657Y00046039D01*
X00422819Y00045877D01*
X00422981Y00045646D01*
X00423004Y00045623D01*
X00423027Y00045577D01*
X00423074Y00045507D01*
X00423120Y00045461D01*
Y00045438D01*
X00423143Y00045415D01*
X00423213Y00045299D01*
X00423282Y00045137D01*
X00423351Y00044975D01*
Y00044952D01*
X00423375Y00044906D01*
Y00044813D01*
Y00044697D01*
Y00044674D01*
Y00044605D01*
Y00044535D01*
Y00044466D01*
X00423398Y00044489D01*
X00423421Y00044512D01*
X00423467Y00044535D01*
X00423490Y00044559D01*
X00423513Y00044582D01*
X00423560Y00044628D01*
X00423629Y00044697D01*
X00423699Y00044790D01*
X00423837Y00045021D01*
X00423907Y00045183D01*
X00423930Y00045345D01*
Y00045368D01*
Y00045415D01*
X00423907Y00045530D01*
X00423884Y00045692D01*
X00423837Y00045924D01*
X00423768Y00046224D01*
X00423675Y00046595D01*
X00423606Y00046803D01*
X00423536Y00047057D01*
X00423513Y00047104D01*
X00423490Y00047220D01*
X00423467Y00047289D01*
X00423444Y00047405D01*
Y00047428D01*
X00423421Y00047451D01*
X00423398Y00047543D01*
X00423351Y00047682D01*
Y00047705D01*
Y00047729D01*
X00423328Y00047821D01*
Y00047844D01*
Y00047867D01*
Y00047983D01*
Y00048006D01*
Y00048076D01*
X00423305Y00048191D01*
Y00048330D01*
Y00048492D01*
X00423328Y00048677D01*
X00423398Y00049094D01*
Y00049140D01*
Y00049186D01*
Y00049256D01*
X00423375Y00049372D01*
X00423351Y00049510D01*
X00423282Y00049695D01*
X00423213Y00049927D01*
X00423190Y00049973D01*
X00423166Y00050089D01*
X00423120Y00050251D01*
X00423074Y00050436D01*
X00422981Y00050876D01*
X00422958Y00051084D01*
Y00051246D01*
Y00051269D01*
X00422981Y00051315D01*
X00423004Y00051385D01*
X00423051Y00051477D01*
X00423097Y00051593D01*
X00423166Y00051732D01*
X00423282Y00051894D01*
X00423398Y00052079D01*
X00423421Y00052102D01*
X00423467Y00052171D01*
X00423513Y00052264D01*
X00423583Y00052403D01*
X00423722Y00052703D01*
X00423745Y00052842D01*
X00423768Y00052981D01*
X00421130Y00054508D01*
D02*
G37*
G36*
X00427424Y00046502D02*
X00427262D01*
X00427169Y00046479D01*
X00427007D01*
X00426822Y00046456D01*
X00426591Y00046433D01*
X00426406Y00046386D01*
X00426383D01*
X00426336Y00046363D01*
X00426267D01*
X00426244Y00046340D01*
X00426174Y00046317D01*
X00426082D01*
X00426036Y00046294D01*
X00425897Y00046224D01*
X00425712Y00046109D01*
X00425527Y00045970D01*
X00425503Y00045947D01*
X00425480Y00045877D01*
X00425434Y00045831D01*
X00425411Y00045739D01*
X00425341Y00045623D01*
X00425295Y00045484D01*
Y00045461D01*
X00425272Y00045415D01*
X00425249Y00045345D01*
X00425226Y00045230D01*
Y00045206D01*
X00425249Y00045160D01*
X00425272Y00045068D01*
X00425295Y00044975D01*
X00425388Y00044744D01*
X00425550Y00044535D01*
X00425573Y00044512D01*
X00425642Y00044466D01*
X00425735Y00044420D01*
X00425920Y00044373D01*
X00426174D01*
X00426359Y00044397D01*
X00426452D01*
X00426545Y00044420D01*
X00426660Y00044466D01*
X00426684D01*
X00426730Y00044489D01*
X00426822Y00044559D01*
X00426984Y00044651D01*
X00427031Y00044697D01*
X00427077Y00044744D01*
X00427146Y00044813D01*
X00427239Y00044906D01*
X00427355Y00045044D01*
X00427493Y00045206D01*
X00427632Y00045392D01*
X00427655Y00045415D01*
X00427702Y00045484D01*
X00427771Y00045600D01*
X00427840Y00045715D01*
X00428002Y00046016D01*
X00428072Y00046155D01*
X00428095Y00046271D01*
X00428049Y00046294D01*
X00427933Y00046363D01*
X00427725Y00046433D01*
X00427586Y00046456D01*
X00427424Y00046502D01*
D02*
G37*
G36*
X00421940Y00046086D02*
X00421824D01*
X00421732Y00046062D01*
X00421708Y00046039D01*
X00421685D01*
X00421732Y00045877D01*
X00421755Y00045831D01*
X00421778Y00045715D01*
X00421847Y00045553D01*
X00421917Y00045368D01*
X00422009Y00045137D01*
X00422102Y00044952D01*
X00422218Y00044767D01*
X00422310Y00044628D01*
Y00044605D01*
X00422356Y00044582D01*
X00422472Y00044466D01*
X00422634Y00044373D01*
X00422750Y00044327D01*
X00422865Y00044304D01*
X00422981D01*
X00423051Y00044327D01*
X00423097Y00044350D01*
Y00044373D01*
Y00044420D01*
Y00044489D01*
Y00044512D01*
X00423120Y00044559D01*
Y00044697D01*
Y00044720D01*
Y00044790D01*
Y00044859D01*
X00423097Y00044906D01*
Y00044952D01*
X00423051Y00045044D01*
X00423004Y00045160D01*
X00422912Y00045299D01*
X00422889Y00045322D01*
X00422842Y00045392D01*
X00422819Y00045438D01*
X00422773Y00045530D01*
X00422750Y00045553D01*
X00422727Y00045623D01*
X00422634Y00045715D01*
X00422542Y00045808D01*
X00422426Y00045901D01*
X00422287Y00045993D01*
X00422125Y00046062D01*
X00421940Y00046086D01*
D02*
G37*
G36*
X00436957Y00054647D02*
X00436934D01*
X00436911Y00054624D01*
X00436865Y00054578D01*
X00436703Y00054416D01*
X00436657Y00054370D01*
X00436564Y00054254D01*
X00436402Y00054046D01*
X00436286Y00053907D01*
X00436194Y00053745D01*
X00436171Y00053699D01*
X00436147Y00053629D01*
X00436101Y00053537D01*
X00436032Y00053421D01*
X00435962Y00053259D01*
X00435893Y00053074D01*
X00435800Y00052866D01*
Y00052842D01*
X00435754Y00052750D01*
X00435708Y00052634D01*
X00435662Y00052495D01*
X00435500Y00052171D01*
X00435430Y00052009D01*
X00435338Y00051870D01*
X00435314Y00051847D01*
X00435245Y00051755D01*
X00435176Y00051616D01*
X00435083Y00051500D01*
X00435037Y00051454D01*
X00434944Y00051361D01*
X00434829Y00051246D01*
X00434690Y00051107D01*
X00434667Y00051084D01*
X00434644Y00051061D01*
X00434505Y00050922D01*
X00434296Y00050737D01*
X00434042Y00050505D01*
X00433718Y00050274D01*
X00433394Y00050019D01*
X00433047Y00049788D01*
X00432700Y00049603D01*
X00442742Y00043772D01*
Y00043795D01*
X00442765Y00043841D01*
Y00043934D01*
Y00044072D01*
Y00044096D01*
Y00044119D01*
X00442742Y00044234D01*
X00442765D01*
Y00044258D01*
X00442742Y00044304D01*
Y00044397D01*
X00442696Y00044512D01*
X00442626Y00044767D01*
X00442488Y00045044D01*
Y00045068D01*
X00436957Y00054647D01*
D02*
G37*
G36*
X00418839Y00055827D02*
X00412592Y00045021D01*
Y00044998D01*
X00412569Y00044975D01*
X00412545Y00044952D01*
X00412522Y00044882D01*
X00412476Y00044790D01*
X00412453Y00044720D01*
Y00044697D01*
X00412430Y00044651D01*
X00412407Y00044559D01*
X00412383Y00044443D01*
Y00044420D01*
X00412360Y00044327D01*
Y00044188D01*
Y00044003D01*
X00412383Y00043795D01*
X00412407Y00043563D01*
X00412476Y00043332D01*
X00412592Y00043101D01*
X00412615D01*
Y00043078D01*
X00412661Y00043008D01*
X00412707Y00042939D01*
X00412777Y00042846D01*
Y00042823D01*
X00412823Y00042800D01*
X00412869Y00042730D01*
X00412962Y00042638D01*
X00412985Y00042615D01*
X00413054Y00042568D01*
X00413170Y00042476D01*
X00413332Y00042383D01*
X00413540Y00042291D01*
X00413772Y00042198D01*
X00414026Y00042152D01*
X00414304Y00042129D01*
X00440845D01*
Y00042152D01*
X00441146D01*
X00441169Y00042175D01*
X00441261Y00042198D01*
X00441354Y00042221D01*
X00441423D01*
X00441446Y00042245D01*
X00441585Y00042291D01*
X00441747Y00042360D01*
X00441909Y00042476D01*
X00430964Y00048816D01*
X00430918Y00048770D01*
X00430802Y00048677D01*
X00430640Y00048538D01*
X00430432Y00048376D01*
X00430478Y00048353D01*
X00430571Y00048261D01*
X00430756Y00048099D01*
X00430987Y00047867D01*
X00431011Y00047844D01*
X00431034Y00047798D01*
Y00047775D01*
X00431080Y00047752D01*
X00431149Y00047613D01*
X00431219Y00047405D01*
X00431265Y00047150D01*
Y00047104D01*
X00431242Y00046988D01*
X00431196Y00046780D01*
X00431126Y00046548D01*
X00431103Y00046502D01*
X00431080Y00046456D01*
X00431034Y00046386D01*
Y00046363D01*
X00430987Y00046340D01*
X00430918Y00046294D01*
X00430826Y00046224D01*
X00430687Y00046155D01*
X00430548Y00046109D01*
X00430340Y00046086D01*
X00430108Y00046062D01*
X00429877D01*
Y00046039D01*
X00429900Y00045993D01*
Y00045947D01*
X00429923Y00045854D01*
Y00045646D01*
X00429900Y00045415D01*
Y00045392D01*
X00429877Y00045368D01*
X00429854Y00045299D01*
X00429831Y00045183D01*
Y00045160D01*
X00429784Y00045114D01*
X00429738Y00045044D01*
X00429692Y00044975D01*
X00429669Y00044952D01*
X00429645Y00044906D01*
X00429622Y00044882D01*
Y00044906D01*
X00429599Y00044882D01*
X00429553Y00044859D01*
X00429483Y00044790D01*
X00429391Y00044720D01*
X00429275Y00044674D01*
X00429113Y00044605D01*
X00428951Y00044582D01*
X00428674D01*
X00428581Y00044605D01*
X00428465Y00044628D01*
X00428188Y00044720D01*
X00428049Y00044813D01*
X00427910Y00044906D01*
X00427887Y00044882D01*
X00427864Y00044836D01*
X00427794Y00044767D01*
X00427702Y00044674D01*
X00427517Y00044466D01*
X00427285Y00044258D01*
X00427262Y00044234D01*
X00427193Y00044165D01*
X00427054Y00044096D01*
X00426892Y00044003D01*
X00426846Y00043980D01*
X00426753Y00043957D01*
X00426591Y00043911D01*
X00426406Y00043864D01*
X00425827D01*
X00425781Y00043887D01*
X00425712Y00043911D01*
X00425619Y00043934D01*
X00425411Y00044026D01*
X00425203Y00044165D01*
X00425179Y00044188D01*
X00425110Y00044258D01*
X00425041Y00044373D01*
X00424948Y00044535D01*
X00424832Y00044744D01*
X00424763Y00045021D01*
X00424693Y00045322D01*
X00424670Y00045692D01*
Y00045715D01*
Y00045739D01*
Y00045762D01*
Y00045831D01*
Y00045854D01*
Y00045901D01*
Y00045970D01*
Y00046062D01*
X00424693Y00046294D01*
X00424763Y00046572D01*
Y00046595D01*
X00424717Y00046618D01*
X00424670Y00046664D01*
X00424601Y00046710D01*
X00424508Y00046780D01*
X00424393Y00046849D01*
X00424370Y00046872D01*
X00424277Y00046919D01*
X00424161Y00046988D01*
X00424069Y00047034D01*
Y00047011D01*
X00424092Y00046988D01*
X00424115Y00046919D01*
X00424138Y00046826D01*
X00424184Y00046595D01*
X00424254Y00046340D01*
X00424323Y00046039D01*
X00424393Y00045762D01*
X00424439Y00045507D01*
Y00045322D01*
Y00045299D01*
X00424416Y00045206D01*
X00424393Y00045068D01*
X00424346Y00044929D01*
X00424277Y00044744D01*
X00424161Y00044535D01*
X00423999Y00044350D01*
X00423814Y00044165D01*
X00423768Y00044142D01*
X00423652Y00044049D01*
X00423513Y00043957D01*
X00423351Y00043887D01*
X00423328D01*
X00423305Y00043864D01*
X00423190Y00043841D01*
X00423004Y00043795D01*
X00422796D01*
X00422727Y00043818D01*
X00422634Y00043841D01*
X00422518Y00043887D01*
X00422356Y00043934D01*
X00422218Y00044026D01*
X00422056Y00044142D01*
X00421917Y00044304D01*
X00421894Y00044327D01*
X00421870Y00044373D01*
X00421801Y00044466D01*
X00421708Y00044628D01*
X00421616Y00044813D01*
X00421500Y00045068D01*
X00421385Y00045345D01*
X00421246Y00045715D01*
Y00045739D01*
X00421223Y00045831D01*
X00421199Y00045901D01*
X00421176Y00045924D01*
Y00045947D01*
X00421153Y00045993D01*
X00421130Y00046039D01*
X00421084Y00046132D01*
X00421037Y00046271D01*
X00420968Y00046433D01*
X00420876Y00046664D01*
Y00046687D01*
X00420829Y00046757D01*
X00420783Y00046872D01*
X00420737Y00047011D01*
X00420621Y00047312D01*
X00420575Y00047474D01*
X00420528Y00047590D01*
Y00047613D01*
X00420505Y00047659D01*
X00420482Y00047752D01*
X00420459Y00047867D01*
X00420413Y00048029D01*
X00420390Y00048238D01*
X00420343Y00048515D01*
X00420297Y00048816D01*
Y00048862D01*
X00420274Y00048955D01*
X00420251Y00049117D01*
X00420228Y00049302D01*
X00420158Y00049718D01*
X00420135Y00049927D01*
X00420089Y00050089D01*
X00420066Y00050135D01*
Y00050158D01*
X00420042Y00050251D01*
X00420019Y00050390D01*
X00419950Y00050598D01*
Y00050621D01*
X00419927Y00050644D01*
Y00050714D01*
X00419904Y00050806D01*
X00419857Y00051014D01*
X00419788Y00051292D01*
X00419742Y00051570D01*
X00419719Y00051847D01*
Y00052125D01*
X00419765Y00052333D01*
Y00052356D01*
X00419788Y00052403D01*
X00419811Y00052472D01*
X00419857Y00052588D01*
X00419904Y00052727D01*
X00419973Y00052912D01*
X00420066Y00053097D01*
X00420158Y00053328D01*
X00420181Y00053375D01*
X00420228Y00053467D01*
X00420297Y00053629D01*
X00420366Y00053837D01*
X00420459Y00054069D01*
X00420528Y00054323D01*
X00420598Y00054555D01*
X00420644Y00054786D01*
X00418839Y00055827D01*
D02*
G37*
G36*
X00995126Y00557987D02*
X00994940D01*
X00994755Y00557941D01*
X00994478D01*
X00993830Y00557756D01*
X00993506Y00557617D01*
X00993136Y00557432D01*
X00993089Y00557386D01*
X00992997Y00557339D01*
X00992951D01*
X00992858Y00557293D01*
X00992812Y00557247D01*
X00992719Y00557201D01*
X00992441Y00556923D01*
X00992071Y00556506D01*
X00991747Y00555997D01*
X00991701D01*
X00965183Y00510042D01*
Y00509996D01*
X00965137Y00509950D01*
X00965091Y00509904D01*
X00965044Y00509765D01*
X00964952Y00509580D01*
X00964906Y00509441D01*
Y00509395D01*
X00964859Y00509256D01*
X00964813Y00509071D01*
X00964767Y00508885D01*
Y00508839D01*
X00964720Y00508654D01*
Y00508377D01*
Y00508006D01*
Y00507590D01*
X00964813Y00507127D01*
X00964952Y00506664D01*
X00965183Y00506201D01*
X00965229Y00506155D01*
X00965276Y00506016D01*
X00965554Y00505692D01*
Y00505646D01*
X00965646Y00505600D01*
X00965739Y00505461D01*
X00965924Y00505276D01*
X00965970Y00505229D01*
X00966109Y00505137D01*
X00966340Y00504952D01*
X00966664Y00504767D01*
X00967034Y00504582D01*
X00967497Y00504397D01*
X00968006Y00504304D01*
X00968562Y00504258D01*
X01021690D01*
Y00504304D01*
X01022291D01*
X01022384Y00504350D01*
X01022662Y00504443D01*
X01022847D01*
X01023032Y00504535D01*
X01023263Y00504628D01*
X01023587Y00504813D01*
X01023957Y00505044D01*
X01024327Y00505368D01*
X01024698Y00505739D01*
X01025022Y00506201D01*
X01025068Y00506248D01*
X01025114Y00506386D01*
X01025207Y00506572D01*
X01025299Y00506803D01*
X01025392Y00507081D01*
X01025438Y00507405D01*
X01025531Y00507775D01*
Y00508145D01*
Y00508191D01*
Y00508238D01*
X01025484Y00508469D01*
Y00508515D01*
Y00508608D01*
X01025438Y00508793D01*
X01025392Y00508978D01*
X01025253Y00509487D01*
X01024975Y00510089D01*
Y00510135D01*
X00998411Y00556044D01*
X00998365Y00556090D01*
X00998273Y00556275D01*
X00998180Y00556368D01*
X00998087Y00556553D01*
Y00556599D01*
X00997995Y00556645D01*
X00997902Y00556784D01*
X00997717Y00556923D01*
X00997671Y00556969D01*
X00997532Y00557062D01*
X00997301Y00557247D01*
X00996977Y00557432D01*
X00996607Y00557617D01*
X00996144Y00557802D01*
X00995681Y00557895D01*
X00995126Y00557941D01*
Y00557987D01*
D02*
G37*
%LPD*%
G36*
X00987443Y00526425D02*
X01004890Y00535450D01*
X00994246Y00513421D01*
X00998087Y00514346D01*
X00991747Y00506895D01*
X00990313Y00515827D01*
X00993182Y00513560D01*
X00997347Y00529433D01*
X00983926Y00522815D01*
X00992534Y00552573D01*
X00998828Y00552758D01*
X00987443Y00526425D01*
D02*
G37*
%LPC*%
G36*
X01061227Y00512627D02*
X01061158D01*
X01061074Y00512613D01*
X01060963Y00512599D01*
X01060825Y00512585D01*
X01060658Y00512557D01*
X01060492Y00512516D01*
X01060298Y00512460D01*
X01060090Y00512377D01*
X01059882Y00512294D01*
X01059660Y00512183D01*
X01059452Y00512044D01*
X01059230Y00511892D01*
X01059022Y00511711D01*
X01058828Y00511489D01*
X01058633Y00511254D01*
X01058620Y00511240D01*
X01058578Y00511171D01*
X01058522Y00511060D01*
X01058439Y00510907D01*
X01058356Y00510699D01*
X01058259Y00510449D01*
X01058148Y00510144D01*
X01058037Y00509784D01*
X01057968Y00509590D01*
X01057912Y00509368D01*
X01057857Y00509146D01*
X01057815Y00508896D01*
X01057760Y00508647D01*
X01057704Y00508369D01*
X01057663Y00508078D01*
X01057621Y00507773D01*
X01057579Y00507454D01*
X01057538Y00507121D01*
X01057510Y00506774D01*
X01057482Y00506414D01*
X01057455Y00506025D01*
X01057441Y00505623D01*
X01057427Y00505207D01*
Y00504777D01*
Y00504763D01*
Y00504722D01*
Y00504666D01*
Y00504569D01*
Y00504458D01*
X01057441Y00504333D01*
Y00504181D01*
Y00504015D01*
X01057455Y00503834D01*
Y00503640D01*
X01057482Y00503196D01*
X01057524Y00502725D01*
X01057566Y00502225D01*
X01057621Y00501698D01*
X01057690Y00501171D01*
X01057787Y00500644D01*
X01057885Y00500131D01*
X01058009Y00499646D01*
X01058162Y00499216D01*
X01058245Y00499008D01*
X01058328Y00498828D01*
X01058426Y00498647D01*
X01058522Y00498495D01*
X01058536Y00498481D01*
X01058578Y00498425D01*
X01058633Y00498356D01*
X01058717Y00498259D01*
X01058828Y00498134D01*
X01058966Y00498009D01*
X01059105Y00497857D01*
X01059285Y00497718D01*
X01059466Y00497579D01*
X01059674Y00497427D01*
X01059895Y00497302D01*
X01060145Y00497191D01*
X01060395Y00497080D01*
X01060672Y00497011D01*
X01060963Y00496955D01*
X01061255Y00496942D01*
X01061324D01*
X01061407Y00496955D01*
X01061518Y00496969D01*
X01061657Y00496983D01*
X01061823Y00497025D01*
X01062003Y00497066D01*
X01062198Y00497136D01*
X01062406Y00497219D01*
X01062628Y00497316D01*
X01062850Y00497441D01*
X01063085Y00497593D01*
X01063307Y00497774D01*
X01063543Y00497982D01*
X01063765Y00498218D01*
X01063973Y00498495D01*
X01063987Y00498509D01*
X01064014Y00498578D01*
X01064070Y00498675D01*
X01064153Y00498814D01*
X01064236Y00499008D01*
X01064320Y00499244D01*
X01064430Y00499521D01*
X01064528Y00499868D01*
X01064583Y00500062D01*
X01064625Y00500270D01*
X01064680Y00500478D01*
X01064736Y00500714D01*
X01064777Y00500963D01*
X01064819Y00501227D01*
X01064874Y00501504D01*
X01064916Y00501809D01*
X01064944Y00502114D01*
X01064985Y00502447D01*
X01065013Y00502794D01*
X01065041Y00503155D01*
X01065055Y00503529D01*
X01065068Y00503931D01*
X01065082Y00504347D01*
Y00504777D01*
Y00504791D01*
Y00504833D01*
Y00504902D01*
Y00504985D01*
Y00505096D01*
Y00505221D01*
X01065068Y00505374D01*
Y00505540D01*
X01065055Y00505720D01*
Y00505928D01*
X01065027Y00506358D01*
X01064985Y00506830D01*
X01064944Y00507343D01*
X01064888Y00507856D01*
X01064819Y00508383D01*
X01064722Y00508910D01*
X01064611Y00509423D01*
X01064486Y00509908D01*
X01064333Y00510339D01*
X01064250Y00510546D01*
X01064167Y00510727D01*
X01064070Y00510907D01*
X01063973Y00511060D01*
X01063959Y00511073D01*
X01063917Y00511129D01*
X01063862Y00511198D01*
X01063779Y00511309D01*
X01063668Y00511420D01*
X01063543Y00511559D01*
X01063390Y00511698D01*
X01063224Y00511850D01*
X01063030Y00511989D01*
X01062822Y00512127D01*
X01062600Y00512266D01*
X01062350Y00512377D01*
X01062087Y00512488D01*
X01061823Y00512557D01*
X01061532Y00512613D01*
X01061227Y00512627D01*
D02*
G37*
G36*
X01065332Y00542585D02*
X01065304D01*
X01065221Y00542571D01*
X01065096Y00542557D01*
X01064944Y00542530D01*
X01064777Y00542460D01*
X01064611Y00542377D01*
X01064458Y00542266D01*
X01064320Y00542100D01*
X01064306Y00542072D01*
X01064292Y00542044D01*
X01064264Y00542003D01*
X01064250Y00541947D01*
X01064222Y00541864D01*
X01064195Y00541767D01*
X01064167Y00541656D01*
X01064125Y00541531D01*
X01064098Y00541379D01*
X01064070Y00541212D01*
X01064056Y00541018D01*
X01064028Y00540796D01*
X01064014Y00540560D01*
X01064001Y00540297D01*
Y00540006D01*
Y00532156D01*
X01064014D01*
X01064070Y00532170D01*
X01064167Y00532198D01*
X01064278Y00532225D01*
X01064417Y00532267D01*
X01064583Y00532336D01*
X01064777Y00532406D01*
X01064971Y00532503D01*
X01065193Y00532600D01*
X01065415Y00532739D01*
X01065651Y00532891D01*
X01065900Y00533058D01*
X01066136Y00533252D01*
X01066386Y00533474D01*
X01066622Y00533723D01*
X01066844Y00534001D01*
X01066858Y00534015D01*
X01066899Y00534070D01*
X01066954Y00534167D01*
X01067024Y00534292D01*
X01067121Y00534444D01*
X01067218Y00534625D01*
X01067329Y00534847D01*
X01067440Y00535096D01*
X01067551Y00535374D01*
X01067662Y00535693D01*
X01067759Y00536025D01*
X01067856Y00536386D01*
X01067925Y00536774D01*
X01067981Y00537190D01*
X01068022Y00537634D01*
X01068036Y00538092D01*
Y00538120D01*
Y00538189D01*
Y00538314D01*
X01068022Y00538480D01*
X01068008Y00538674D01*
X01067995Y00538896D01*
X01067967Y00539132D01*
X01067925Y00539395D01*
X01067828Y00539950D01*
X01067759Y00540241D01*
X01067662Y00540519D01*
X01067565Y00540796D01*
X01067454Y00541046D01*
X01067315Y00541295D01*
X01067163Y00541503D01*
X01067149Y00541517D01*
X01067121Y00541545D01*
X01067079Y00541600D01*
X01067010Y00541670D01*
X01066941Y00541753D01*
X01066844Y00541850D01*
X01066608Y00542044D01*
X01066344Y00542238D01*
X01066025Y00542419D01*
X01065859Y00542488D01*
X01065693Y00542543D01*
X01065512Y00542571D01*
X01065332Y00542585D01*
D02*
G37*
%LPD*%
D10*
X00134250Y00099750D02*
G03*
X00134250Y00099750I-00001250J00000000D01*
G01*
Y00064750D02*
G03*
X00134250Y00064750I-00001250J00000000D01*
G01*
X00154500Y00384000D02*
G03*
X00154500Y00384000I-00001250J00000000D01*
G01*
X00142000Y00651990D02*
G03*
X00142000Y00651990I-00001250J00000000D01*
G01*
X00895250Y00446750D02*
G03*
X00895250Y00446750I-00001250J00000000D01*
G01*
X00174250Y00716640D02*
G03*
X00174250Y00716640I-00001250J00000000D01*
G01*
X00396750Y00264700D02*
G03*
X00396750Y00264700I-00001250J00000000D01*
G01*
X00507400Y00301310D02*
G03*
X00507400Y00301310I-00001250J00000000D01*
G01*
X00399500Y00570250D02*
G03*
X00399500Y00570250I-00001250J00000000D01*
G01*
X00368000Y00622500D02*
G03*
X00368000Y00622500I-00001250J00000000D01*
G01*
X00493500Y00374250D02*
G03*
X00493500Y00374250I-00001250J00000000D01*
G01*
D11*
X00324000Y00689000D02*
G03*
X00324000Y00689000I-00000500J00000000D01*
G01*
D12*
X00298103Y00234750D02*
G03*
X00298103Y00234750I-00110103J00000000D01*
G01*
X00677250Y00467500D02*
G03*
X00685250Y00467500I00004000J-00047000D01*
G01*
X00460156Y00115125D02*
X00491844D01*
X00460156D02*
Y00146875D01*
X00491844D01*
Y00115125D02*
Y00146875D01*
X00395156Y00115125D02*
X00426844D01*
X00395156D02*
Y00146875D01*
X00426844D01*
Y00115125D02*
Y00146875D01*
X00385000Y00755750D02*
X00387000D01*
X00385000Y00748250D02*
X00387000D01*
X00384500Y00734250D02*
X00386500D01*
X00384500Y00740750D02*
X00386500D01*
X00488000Y00802500D02*
X00490000D01*
X00488000Y00795000D02*
X00490000D01*
X00479250Y00400750D02*
X00481250D01*
X00479250Y00394250D02*
X00481250D01*
X00420250Y00421000D02*
X00422250D01*
X00420250Y00428500D02*
X00422250D01*
X01050000Y00550000D02*
X01075000D01*
Y00490000D02*
Y00520000D01*
X01050000Y00490000D02*
X01075000D01*
X01050000D02*
Y00575000D01*
X01055000D01*
X01075000D01*
Y00520000D02*
Y00575000D01*
X01050000Y00520000D02*
X01075000D01*
X00941250Y00385000D02*
Y00401750D01*
X00927500D02*
X00941250D01*
X00821250Y00385000D02*
Y00401750D01*
X00835000D01*
X00941250Y00349750D02*
Y00352750D01*
X00821250Y00349750D02*
X00941250D01*
X00821250D02*
Y00352750D01*
X00279000Y00729500D02*
X00284000D01*
X00332000D02*
X00337000D01*
X00357500Y00755500D02*
Y00774500D01*
X00258500Y00755500D02*
Y00774500D01*
X01029000Y00587000D02*
Y00599000D01*
Y00587000D02*
X01041000D01*
X01029000Y00731000D02*
Y00743000D01*
X01041000D01*
X00147000Y00099500D02*
X00157000D01*
Y00091500D02*
Y00099500D01*
X00147000Y00069500D02*
X00157000D01*
Y00077500D01*
X00147000Y00064500D02*
X00157000D01*
Y00056500D02*
Y00064500D01*
X00147000Y00034500D02*
X00157000D01*
Y00042500D01*
X00153000Y00360000D02*
Y00370000D01*
X00145000Y00360000D02*
X00153000D01*
X00123000D02*
Y00370000D01*
Y00360000D02*
X00131000D01*
X00141000Y00663990D02*
Y00669990D01*
X00163000Y00663990D02*
Y00669990D01*
X00141000Y00663990D02*
X00163000D01*
X00141000Y00669990D02*
X00163000D01*
X00893750Y00422750D02*
Y00432750D01*
X00885750Y00422750D02*
X00893750D01*
X00863750D02*
Y00432750D01*
Y00422750D02*
X00871750D01*
X00306500Y00689500D02*
X00316500D01*
X00306500Y00719500D02*
X00316500D01*
X00318500Y00705000D02*
Y00708000D01*
X00304500Y00701000D02*
Y00708000D01*
X00331750Y00030500D02*
Y00039250D01*
Y00030500D02*
X00366000D01*
Y00039250D01*
X00331750Y00059750D02*
Y00068500D01*
X00366000D01*
Y00059750D02*
Y00068500D01*
X00261750Y00030500D02*
Y00039250D01*
Y00030500D02*
X00296000D01*
Y00039250D01*
X00261750Y00059750D02*
Y00068500D01*
X00296000D01*
Y00059750D02*
Y00068500D01*
X01021000Y00719250D02*
Y00742500D01*
X00979000D02*
X01021000D01*
X00979000Y00641500D02*
Y00742500D01*
Y00587500D02*
Y00610750D01*
Y00587500D02*
X01021000D01*
Y00688500D01*
X00971000Y00719250D02*
Y00742500D01*
X00929000D02*
X00971000D01*
X00929000Y00641500D02*
Y00742500D01*
Y00587500D02*
Y00610750D01*
Y00587500D02*
X00971000D01*
Y00688500D01*
X00879000Y00587500D02*
Y00610750D01*
Y00587500D02*
X00921000D01*
Y00688500D01*
Y00719250D02*
Y00742500D01*
X00879000D02*
X00921000D01*
X00879000Y00641500D02*
Y00742500D01*
X00310000Y00271250D02*
Y00273250D01*
X00316500Y00271250D02*
Y00273250D01*
X00169250Y00668740D02*
Y00670740D01*
X00175750Y00668740D02*
Y00670740D01*
X00267500Y00531490D02*
X00269500D01*
X00267500Y00524990D02*
X00269500D01*
X00267500Y00511490D02*
X00269500D01*
X00267500Y00504990D02*
X00269500D01*
X00150750Y00411240D02*
Y00413240D01*
X00144250Y00411240D02*
Y00413240D01*
X00134750Y00668740D02*
Y00670740D01*
X00128250Y00668740D02*
Y00670740D01*
X00196000Y00081250D02*
X00198000D01*
X00196000Y00087750D02*
X00198000D01*
X00196000Y00046250D02*
X00198000D01*
X00196000Y00052750D02*
X00198000D01*
X00200250Y00364750D02*
Y00366750D01*
X00193750Y00364750D02*
Y00366750D01*
X00166000Y00364750D02*
Y00366750D01*
X00159500Y00364750D02*
Y00366750D01*
X00153500Y00785890D02*
Y00787890D01*
X00160000Y00785890D02*
Y00787890D01*
X00216250Y00658500D02*
X00218250D01*
X00216250Y00665000D02*
X00218250D01*
X00090750Y00623240D02*
Y00625240D01*
X00084250Y00623240D02*
Y00625240D01*
X00110750Y00623240D02*
Y00625240D01*
X00104250Y00623240D02*
Y00625240D01*
X00843750Y00434750D02*
X00845750D01*
X00843750Y00428250D02*
X00845750D01*
X00843750Y00420750D02*
X00845750D01*
X00843750Y00414250D02*
X00845750D01*
X00210750Y00623240D02*
Y00625240D01*
X00204250Y00623240D02*
Y00625240D01*
X00910250Y00429750D02*
X00912250D01*
X00910250Y00436250D02*
X00912250D01*
X00164250Y00411240D02*
Y00413240D01*
X00170750Y00411240D02*
Y00413240D01*
X00144250Y00623240D02*
Y00625240D01*
X00150750Y00623240D02*
Y00625240D01*
X00124250Y00623240D02*
Y00625240D01*
X00130750Y00623240D02*
Y00625240D01*
X00204250Y00411240D02*
Y00413240D01*
X00210750Y00411240D02*
Y00413240D01*
X00334750Y00321000D02*
X00336750D01*
X00334750Y00327500D02*
X00336750D01*
X00334750Y00335500D02*
X00336750D01*
X00334750Y00342000D02*
X00336750D01*
X00466250Y00326750D02*
Y00328750D01*
X00459750Y00326750D02*
Y00328750D01*
X00452250Y00326750D02*
Y00328750D01*
X00445750Y00326750D02*
Y00328750D01*
X00488000Y00780500D02*
X00490000D01*
X00488000Y00787000D02*
X00490000D01*
X00385000Y00610000D02*
X00387000D01*
X00385000Y00616500D02*
X00387000D01*
X00228500Y00619990D02*
X00230500D01*
X00228500Y00613490D02*
X00230500D01*
X00090750Y00411240D02*
Y00413240D01*
X00084250Y00411240D02*
Y00413240D01*
X00130750Y00411240D02*
Y00413240D01*
X00124250Y00411240D02*
Y00413240D01*
X00184250Y00623240D02*
Y00625240D01*
X00190750Y00623240D02*
Y00625240D01*
X00416500Y00446250D02*
Y00448250D01*
X00410000Y00446250D02*
Y00448250D01*
X00164250Y00623240D02*
Y00625240D01*
X00170750Y00623240D02*
Y00625240D01*
X00168250Y00768140D02*
X00174500D01*
Y00761890D02*
Y00768140D01*
X00121500D02*
X00127750D01*
X00121500Y00761890D02*
Y00768140D01*
Y00715140D02*
Y00721390D01*
Y00715140D02*
X00127750D01*
X00242500Y00438240D02*
Y00458240D01*
X00237500Y00438240D02*
X00242500D01*
X00004250Y00598240D02*
X00067500D01*
X00004250Y00438240D02*
Y00598240D01*
Y00438240D02*
X00067500D01*
X00242500Y00578240D02*
Y00598240D01*
X00237500D02*
X00242500D01*
X00677250Y00467500D02*
Y00475500D01*
X00685250D01*
Y00467500D02*
Y00475500D01*
X00391950Y00209100D02*
X00399600D01*
Y00258400D01*
X00391950D02*
X00399600D01*
X00324900Y00209100D02*
X00332550D01*
X00324900D02*
Y00258400D01*
X00332550D01*
X00425650Y00306310D02*
X00440650D01*
X00425650Y00202310D02*
Y00306310D01*
Y00202310D02*
X00440650D01*
X00511650D02*
Y00290060D01*
X00496650Y00202310D02*
X00511650D01*
X00333000Y00525500D02*
Y00556500D01*
X00398000Y00525500D02*
Y00556500D01*
X00333000Y00525500D02*
X00398000D01*
X00333000Y00556500D02*
X00398000D01*
Y00640750D02*
Y00677750D01*
X00367000Y00640750D02*
Y00677750D01*
X00398000D01*
X00367000Y00640750D02*
X00398000D01*
X00417100Y00515600D02*
X00873900D01*
Y00769400D01*
X00417100D02*
X00873900D01*
X00417100Y00515600D02*
Y00769400D01*
X00497250Y00385250D02*
X00548250D01*
X00497250Y00422250D02*
X00548250D01*
X00497250Y00385250D02*
Y00422250D01*
X00548250Y00385250D02*
Y00422250D01*
X00993250Y00004750D02*
Y00344750D01*
X00533250Y00004750D02*
X00993250D01*
X00533250D02*
Y00344750D01*
X00993250D01*
X00910250Y00421750D02*
X00912250D01*
X00910250Y00414250D02*
X00912250D01*
X00334200Y00283000D02*
X00336200D01*
X00334200Y00275500D02*
X00336200D01*
X00488000Y00316500D02*
X00490000D01*
X00488000Y00324000D02*
X00490000D01*
X00175000Y00786390D02*
Y00788390D01*
X00167500Y00786390D02*
Y00788390D01*
X00353250Y00682250D02*
Y00684250D01*
X00360750Y00682250D02*
Y00684250D01*
X00326750Y00553000D02*
Y00555000D01*
X00319250Y00553000D02*
Y00555000D01*
X00384500Y00702000D02*
X00386500D01*
X00384500Y00709500D02*
X00386500D01*
X00349500Y00587250D02*
X00351500D01*
X00349500Y00594750D02*
X00351500D01*
X00068750Y00411240D02*
Y00413240D01*
X00076250Y00411240D02*
Y00413240D01*
X00500000Y00453750D02*
X00502000D01*
X00500000Y00446250D02*
X00502000D01*
X00530000Y00447500D02*
X00532000D01*
X00530000Y00455000D02*
X00532000D01*
X00192750Y00761140D02*
X00194750D01*
X00192750Y00768640D02*
X00194750D01*
X00353250Y00652250D02*
Y00654250D01*
X00360750Y00652250D02*
Y00654250D01*
X00223750Y00410740D02*
Y00412740D01*
X00231250Y00410740D02*
Y00412740D01*
X00802750Y00400500D02*
X00804750D01*
X00802750Y00393000D02*
X00804750D01*
X00298000Y00392000D02*
Y00396000D01*
X00285000Y00392000D02*
Y00396000D01*
X00272000Y00392000D02*
Y00396000D01*
X00167500Y00392000D02*
X00298000D01*
X00127500D02*
X00167500D01*
X00127500D02*
Y00396000D01*
X00147500Y00392000D02*
Y00396000D01*
X00167500Y00392000D02*
Y00396000D01*
X00087500Y00645000D02*
X00091000Y00659000D01*
X00087500Y00645000D02*
X00207500D01*
Y00641000D02*
Y00645000D01*
X00187500Y00641000D02*
Y00645000D01*
X00167500Y00641000D02*
Y00645000D01*
X00147500Y00641000D02*
Y00645000D01*
X00127500Y00641000D02*
Y00645000D01*
X00107500Y00641000D02*
Y00645000D01*
X00087500Y00641000D02*
Y00645000D01*
X00091000Y00659000D02*
Y00663000D01*
X00078000Y00659000D02*
Y00663000D01*
X00065000Y00659000D02*
Y00663000D01*
X00052000Y00659000D02*
Y00663000D01*
X00039000Y00659000D02*
Y00663000D01*
X00026000Y00659000D02*
Y00663000D01*
X00013000Y00659000D02*
Y00663000D01*
Y00659000D02*
X00091000D01*
D13*
X00459671Y00163998D02*
X00466335D01*
X00463003D01*
Y00154002D01*
X00469668D02*
Y00163998D01*
X00474666D01*
X00476332Y00162332D01*
Y00159000D01*
X00474666Y00157334D01*
X00469668D01*
X00486329Y00154002D02*
X00479664D01*
X00486329Y00160666D01*
Y00162332D01*
X00484663Y00163998D01*
X00481331D01*
X00479664Y00162332D01*
X00393337Y00163998D02*
X00400002D01*
X00396669D01*
Y00154002D01*
X00403334D02*
Y00163998D01*
X00408332D01*
X00409998Y00162332D01*
Y00159000D01*
X00408332Y00157334D01*
X00403334D01*
X00413331Y00154002D02*
X00416663D01*
X00414997D01*
Y00163998D01*
X00413331Y00162332D01*
X00381169Y00787332D02*
X00379502Y00788998D01*
X00376170D01*
X00374504Y00787332D01*
Y00780668D01*
X00376170Y00779002D01*
X00379502D01*
X00381169Y00780668D01*
X00384501Y00779002D02*
X00387833D01*
X00386167D01*
Y00788998D01*
X00384501Y00787332D01*
X00392831D02*
X00394498Y00788998D01*
X00397830D01*
X00399496Y00787332D01*
Y00785666D01*
X00397830Y00784000D01*
X00399496Y00782334D01*
Y00780668D01*
X00397830Y00779002D01*
X00394498D01*
X00392831Y00780668D01*
Y00782334D01*
X00394498Y00784000D01*
X00392831Y00785666D01*
Y00787332D01*
X00394498Y00784000D02*
X00397830D01*
X00374671Y00764002D02*
Y00773998D01*
X00379669D01*
X00381335Y00772332D01*
Y00769000D01*
X00379669Y00767334D01*
X00374671D01*
X00378003D02*
X00381335Y00764002D01*
X00384668Y00772332D02*
X00386334Y00773998D01*
X00389666D01*
X00391332Y00772332D01*
Y00770666D01*
X00389666Y00769000D01*
X00388000D01*
X00389666D01*
X00391332Y00767334D01*
Y00765668D01*
X00389666Y00764002D01*
X00386334D01*
X00384668Y00765668D01*
X00399663Y00764002D02*
Y00773998D01*
X00394664Y00769000D01*
X00401329D01*
X00513834Y00802332D02*
X00512168Y00803998D01*
X00508835D01*
X00507169Y00802332D01*
Y00795668D01*
X00508835Y00794002D01*
X00512168D01*
X00513834Y00795668D01*
X00517166Y00794002D02*
X00520498D01*
X00518832D01*
Y00803998D01*
X00517166Y00802332D01*
X00525497Y00803998D02*
X00532161D01*
Y00802332D01*
X00525497Y00795668D01*
Y00794002D01*
X00953740Y00380875D02*
X00960405Y00370878D01*
Y00380875D02*
X00953740Y00370878D01*
X00970401Y00379209D02*
X00968735Y00380875D01*
X00965403D01*
X00963737Y00379209D01*
Y00377542D01*
X00965403Y00375876D01*
X00968735D01*
X00970401Y00374210D01*
Y00372544D01*
X00968735Y00370878D01*
X00965403D01*
X00963737Y00372544D01*
X00973734Y00379209D02*
X00975400Y00380875D01*
X00978732D01*
X00980398Y00379209D01*
Y00377542D01*
X00978732Y00375876D01*
X00977066D01*
X00978732D01*
X00980398Y00374210D01*
Y00372544D01*
X00978732Y00370878D01*
X00975400D01*
X00973734Y00372544D01*
X00347336Y00426082D02*
X00345669Y00427748D01*
X00342337D01*
X00340671Y00426082D01*
Y00419418D01*
X00342337Y00417752D01*
X00345669D01*
X00347336Y00419418D01*
Y00422750D01*
X00344003D01*
X00350668Y00417752D02*
Y00427748D01*
X00357332Y00417752D01*
Y00427748D01*
X00360664D02*
Y00417752D01*
X00365663D01*
X00367329Y00419418D01*
Y00426082D01*
X00365663Y00427748D01*
X00360664D01*
X00289673Y00312332D02*
X00291339Y00313998D01*
X00294671D01*
X00296337Y00312332D01*
Y00310666D01*
X00294671Y00309000D01*
X00293005D01*
X00294671D01*
X00296337Y00307334D01*
Y00305668D01*
X00294671Y00304002D01*
X00291339D01*
X00289673Y00305668D01*
X00299669Y00313998D02*
Y00307334D01*
X00303002Y00304002D01*
X00306334Y00307334D01*
Y00313998D01*
X00309666Y00312332D02*
X00311332Y00313998D01*
X00314664D01*
X00316331Y00312332D01*
Y00310666D01*
X00314664Y00309000D01*
X00312998D01*
X00314664D01*
X00316331Y00307334D01*
Y00305668D01*
X00314664Y00304002D01*
X00311332D01*
X00309666Y00305668D01*
X00319663Y00304002D02*
Y00310666D01*
X00322995Y00313998D01*
X00326327Y00310666D01*
Y00304002D01*
Y00309000D01*
X00319663D01*
X00318232Y00224320D02*
X00308235D01*
Y00229318D01*
X00309901Y00230984D01*
X00313234D01*
X00314900Y00229318D01*
Y00224320D01*
Y00227652D02*
X00318232Y00230984D01*
X00309901Y00234317D02*
X00308235Y00235983D01*
Y00239315D01*
X00309901Y00240981D01*
X00311567D01*
X00313234Y00239315D01*
Y00237649D01*
Y00239315D01*
X00314900Y00240981D01*
X00316566D01*
X00318232Y00239315D01*
Y00235983D01*
X00316566Y00234317D01*
X00308235Y00250978D02*
X00309901Y00247646D01*
X00313234Y00244314D01*
X00316566D01*
X00318232Y00245980D01*
Y00249312D01*
X00316566Y00250978D01*
X00314900D01*
X00313234Y00249312D01*
Y00244314D01*
X00363759Y00306707D02*
X00357094D01*
Y00301708D01*
X00360426D01*
X00357094D01*
Y00296710D01*
X00367091Y00306707D02*
Y00296710D01*
X00372089D01*
X00373755Y00298376D01*
Y00300042D01*
X00372089Y00301708D01*
X00367091D01*
X00372089D01*
X00373755Y00303375D01*
Y00305041D01*
X00372089Y00306707D01*
X00367091D01*
X00383752Y00296710D02*
X00377088D01*
X00383752Y00303375D01*
Y00305041D01*
X00382086Y00306707D01*
X00378754D01*
X00377088Y00305041D01*
X00374421Y00805998D02*
X00381086Y00796002D01*
Y00805998D02*
X00374421Y00796002D01*
X00391082Y00804332D02*
X00389416Y00805998D01*
X00386084D01*
X00384418Y00804332D01*
Y00802666D01*
X00386084Y00801000D01*
X00389416D01*
X00391082Y00799334D01*
Y00797668D01*
X00389416Y00796002D01*
X00386084D01*
X00384418Y00797668D01*
X00401079Y00796002D02*
X00394415D01*
X00401079Y00802666D01*
Y00804332D01*
X00399413Y00805998D01*
X00396081D01*
X00394415Y00804332D01*
X01026337Y00762498D02*
X01033002Y00752502D01*
Y00762498D02*
X01026337Y00752502D01*
X01042998Y00760832D02*
X01041332Y00762498D01*
X01038000D01*
X01036334Y00760832D01*
Y00759166D01*
X01038000Y00757500D01*
X01041332D01*
X01042998Y00755834D01*
Y00754168D01*
X01041332Y00752502D01*
X01038000D01*
X01036334Y00754168D01*
X01046331Y00752502D02*
X01049663D01*
X01047997D01*
Y00762498D01*
X01046331Y00760832D01*
X00114027Y00071228D02*
X00120692D01*
X00124024Y00074560D01*
X00120692Y00077892D01*
X00114027D01*
Y00081225D02*
Y00087889D01*
Y00084557D01*
X00124024D01*
X00114027Y00097886D02*
Y00091222D01*
X00119026D01*
X00117360Y00094554D01*
Y00096220D01*
X00119026Y00097886D01*
X00122358D01*
X00124024Y00096220D01*
Y00092888D01*
X00122358Y00091222D01*
X00114027Y00036176D02*
X00120692D01*
X00124024Y00039508D01*
X00120692Y00042840D01*
X00114027D01*
Y00046173D02*
Y00052837D01*
Y00049505D01*
X00124024D01*
Y00061168D02*
X00114027D01*
X00119026Y00056170D01*
Y00062834D01*
X00109010Y00344251D02*
Y00337587D01*
X00112343Y00334254D01*
X00115675Y00337587D01*
Y00344251D01*
X00119007D02*
X00125672D01*
X00122339D01*
Y00334254D01*
X00129004Y00342585D02*
X00130670Y00344251D01*
X00134002D01*
X00135668Y00342585D01*
Y00340919D01*
X00134002Y00339253D01*
X00132336D01*
X00134002D01*
X00135668Y00337587D01*
Y00335920D01*
X00134002Y00334254D01*
X00130670D01*
X00129004Y00335920D01*
X00138671Y00697998D02*
Y00691334D01*
X00142003Y00688002D01*
X00145336Y00691334D01*
Y00697998D01*
X00148668D02*
X00155332D01*
X00152000D01*
Y00688002D01*
X00165329D02*
X00158665D01*
X00165329Y00694666D01*
Y00696332D01*
X00163663Y00697998D01*
X00160331D01*
X00158665Y00696332D01*
X00867112Y00465949D02*
Y00459284D01*
X00870444Y00455952D01*
X00873776Y00459284D01*
Y00465949D01*
X00877109D02*
X00883773D01*
X00880441D01*
Y00455952D01*
X00887106D02*
X00890438D01*
X00888772D01*
Y00465949D01*
X00887106Y00464283D01*
X00258796Y00709551D02*
Y00702886D01*
X00262128Y00699554D01*
X00265460Y00702886D01*
Y00709551D01*
X00268793D02*
Y00699554D01*
X00273791D01*
X00275457Y00701220D01*
Y00707885D01*
X00273791Y00709551D01*
X00268793D01*
X00278790Y00707885D02*
X00280456Y00709551D01*
X00283788D01*
X00285454Y00707885D01*
Y00706218D01*
X00283788Y00704552D01*
X00282122D01*
X00283788D01*
X00285454Y00702886D01*
Y00701220D01*
X00283788Y00699554D01*
X00280456D01*
X00278790Y00701220D01*
X00333718Y00083585D02*
Y00076921D01*
X00337051Y00073588D01*
X00340383Y00076921D01*
Y00083585D01*
X00343715D02*
Y00073588D01*
X00348713D01*
X00350379Y00075255D01*
Y00081919D01*
X00348713Y00083585D01*
X00343715D01*
X00360376Y00073588D02*
X00353712D01*
X00360376Y00080253D01*
Y00081919D01*
X00358710Y00083585D01*
X00355378D01*
X00353712Y00081919D01*
X00265575Y00083585D02*
Y00076921D01*
X00268908Y00073588D01*
X00272240Y00076921D01*
Y00083585D01*
X00275572D02*
Y00073588D01*
X00280571D01*
X00282237Y00075255D01*
Y00081919D01*
X00280571Y00083585D01*
X00275572D01*
X00285569Y00073588D02*
X00288901D01*
X00287235D01*
Y00083585D01*
X00285569Y00081919D01*
X00317611Y00487022D02*
X00319277Y00488688D01*
X00322609D01*
X00324276Y00487022D01*
Y00485356D01*
X00322609Y00483690D01*
X00320943D01*
X00322609D01*
X00324276Y00482024D01*
Y00480358D01*
X00322609Y00478692D01*
X00319277D01*
X00317611Y00480358D01*
X00327608Y00488688D02*
Y00482024D01*
X00330940Y00478692D01*
X00334272Y00482024D01*
Y00488688D01*
X00337604Y00487022D02*
X00339271Y00488688D01*
X00342603D01*
X00344269Y00487022D01*
Y00485356D01*
X00342603Y00483690D01*
X00340937D01*
X00342603D01*
X00344269Y00482024D01*
Y00480358D01*
X00342603Y00478692D01*
X00339271D01*
X00337604Y00480358D01*
X00435837Y00461498D02*
X00429173D01*
Y00456500D01*
X00432505Y00458166D01*
X00434171D01*
X00435837Y00456500D01*
Y00453168D01*
X00434171Y00451502D01*
X00430839D01*
X00429173Y00453168D01*
X00439169Y00461498D02*
Y00454834D01*
X00442502Y00451502D01*
X00445834Y00454834D01*
Y00461498D01*
X00449166Y00459832D02*
X00450832Y00461498D01*
X00454165D01*
X00455831Y00459832D01*
Y00453168D01*
X00454165Y00451502D01*
X00450832D01*
X00449166Y00453168D01*
Y00459832D01*
X00459163Y00451502D02*
Y00458166D01*
X00462495Y00461498D01*
X00465827Y00458166D01*
Y00451502D01*
Y00456500D01*
X00459163D01*
X00977870Y00751878D02*
Y00761875D01*
X00982868D01*
X00984535Y00760209D01*
Y00756876D01*
X00982868Y00755210D01*
X00977870D01*
X00981202D02*
X00984535Y00751878D01*
X00987867Y00761875D02*
Y00755210D01*
X00991199Y00751878D01*
X00994531Y00755210D01*
Y00761875D01*
X00997864Y00760209D02*
X00999530Y00761875D01*
X01002862D01*
X01004528Y00760209D01*
Y00758542D01*
X01002862Y00756876D01*
X01001196D01*
X01002862D01*
X01004528Y00755210D01*
Y00753544D01*
X01002862Y00751878D01*
X00999530D01*
X00997864Y00753544D01*
X00927832Y00751878D02*
Y00761875D01*
X00932830D01*
X00934497Y00760209D01*
Y00756876D01*
X00932830Y00755210D01*
X00927832D01*
X00931164D02*
X00934497Y00751878D01*
X00937829Y00761875D02*
Y00755210D01*
X00941161Y00751878D01*
X00944493Y00755210D01*
Y00761875D01*
X00954490Y00751878D02*
X00947826D01*
X00954490Y00758542D01*
Y00760209D01*
X00952824Y00761875D01*
X00949492D01*
X00947826Y00760209D01*
X00877794Y00751878D02*
Y00761875D01*
X00882792D01*
X00884458Y00760209D01*
Y00756876D01*
X00882792Y00755210D01*
X00877794D01*
X00881126D02*
X00884458Y00751878D01*
X00887791Y00761875D02*
Y00755210D01*
X00891123Y00751878D01*
X00894455Y00755210D01*
Y00761875D01*
X00897788Y00751878D02*
X00901120D01*
X00899454D01*
Y00761875D01*
X00897788Y00760209D01*
X00196312Y00656374D02*
X00186315D01*
Y00661372D01*
X00187981Y00663038D01*
X00191314D01*
X00192980Y00661372D01*
Y00656374D01*
Y00659706D02*
X00196312Y00663038D01*
X00187981Y00666371D02*
X00186315Y00668037D01*
Y00671369D01*
X00187981Y00673035D01*
X00189648D01*
X00191314Y00671369D01*
Y00669703D01*
Y00671369D01*
X00192980Y00673035D01*
X00194646D01*
X00196312Y00671369D01*
Y00668037D01*
X00194646Y00666371D01*
X00186315Y00683032D02*
Y00676368D01*
X00191314D01*
X00189648Y00679700D01*
Y00681366D01*
X00191314Y00683032D01*
X00194646D01*
X00196312Y00681366D01*
Y00678034D01*
X00194646Y00676368D01*
X00289784Y00523278D02*
Y00533275D01*
X00294782D01*
X00296448Y00531609D01*
Y00528276D01*
X00294782Y00526610D01*
X00289784D01*
X00293116D02*
X00296448Y00523278D01*
X00299781Y00531609D02*
X00301447Y00533275D01*
X00304779D01*
X00306445Y00531609D01*
Y00529943D01*
X00304779Y00528276D01*
X00303113D01*
X00304779D01*
X00306445Y00526610D01*
Y00524944D01*
X00304779Y00523278D01*
X00301447D01*
X00299781Y00524944D01*
X00309778Y00531609D02*
X00311444Y00533275D01*
X00314776D01*
X00316442Y00531609D01*
Y00529943D01*
X00314776Y00528276D01*
X00313110D01*
X00314776D01*
X00316442Y00526610D01*
Y00524944D01*
X00314776Y00523278D01*
X00311444D01*
X00309778Y00524944D01*
X00289784Y00503212D02*
Y00513209D01*
X00294782D01*
X00296448Y00511543D01*
Y00508210D01*
X00294782Y00506544D01*
X00289784D01*
X00293116D02*
X00296448Y00503212D01*
X00299781Y00511543D02*
X00301447Y00513209D01*
X00304779D01*
X00306445Y00511543D01*
Y00509877D01*
X00304779Y00508210D01*
X00303113D01*
X00304779D01*
X00306445Y00506544D01*
Y00504878D01*
X00304779Y00503212D01*
X00301447D01*
X00299781Y00504878D01*
X00316442Y00503212D02*
X00309778D01*
X00316442Y00509877D01*
Y00511543D01*
X00314776Y00513209D01*
X00311444D01*
X00309778Y00511543D01*
X00289998Y00400421D02*
X00280002D01*
Y00405419D01*
X00281668Y00407085D01*
X00285000D01*
X00286666Y00405419D01*
Y00400421D01*
Y00403753D02*
X00289998Y00407085D01*
X00281668Y00410417D02*
X00280002Y00412084D01*
Y00415416D01*
X00281668Y00417082D01*
X00283334D01*
X00285000Y00415416D01*
Y00413750D01*
Y00415416D01*
X00286666Y00417082D01*
X00288332D01*
X00289998Y00415416D01*
Y00412084D01*
X00288332Y00410417D01*
X00289998Y00420414D02*
Y00423746D01*
Y00422080D01*
X00280002D01*
X00281668Y00420414D01*
X00117572Y00656374D02*
X00107575D01*
Y00661372D01*
X00109241Y00663038D01*
X00112574D01*
X00114240Y00661372D01*
Y00656374D01*
Y00659706D02*
X00117572Y00663038D01*
X00109241Y00666371D02*
X00107575Y00668037D01*
Y00671369D01*
X00109241Y00673035D01*
X00110907D01*
X00112574Y00671369D01*
Y00669703D01*
Y00671369D01*
X00114240Y00673035D01*
X00115906D01*
X00117572Y00671369D01*
Y00668037D01*
X00115906Y00666371D01*
X00109241Y00676368D02*
X00107575Y00678034D01*
Y00681366D01*
X00109241Y00683032D01*
X00115906D01*
X00117572Y00681366D01*
Y00678034D01*
X00115906Y00676368D01*
X00109241D01*
X00218212Y00079602D02*
Y00089599D01*
X00223210D01*
X00224876Y00087933D01*
Y00084600D01*
X00223210Y00082934D01*
X00218212D01*
X00221544D02*
X00224876Y00079602D01*
X00234873D02*
X00228209D01*
X00234873Y00086266D01*
Y00087933D01*
X00233207Y00089599D01*
X00229875D01*
X00228209Y00087933D01*
X00238206Y00081268D02*
X00239872Y00079602D01*
X00243204D01*
X00244870Y00081268D01*
Y00087933D01*
X00243204Y00089599D01*
X00239872D01*
X00238206Y00087933D01*
Y00086266D01*
X00239872Y00084600D01*
X00244870D01*
X00218212Y00044408D02*
Y00054405D01*
X00223210D01*
X00224876Y00052739D01*
Y00049406D01*
X00223210Y00047740D01*
X00218212D01*
X00221544D02*
X00224876Y00044408D01*
X00234873D02*
X00228209D01*
X00234873Y00051073D01*
Y00052739D01*
X00233207Y00054405D01*
X00229875D01*
X00228209Y00052739D01*
X00238206D02*
X00239872Y00054405D01*
X00243204D01*
X00244870Y00052739D01*
Y00051073D01*
X00243204Y00049406D01*
X00244870Y00047740D01*
Y00046074D01*
X00243204Y00044408D01*
X00239872D01*
X00238206Y00046074D01*
Y00047740D01*
X00239872Y00049406D01*
X00238206Y00051073D01*
Y00052739D01*
X00239872Y00049406D02*
X00243204D01*
X00220844Y00352526D02*
X00210847D01*
Y00357524D01*
X00212513Y00359190D01*
X00215846D01*
X00217512Y00357524D01*
Y00352526D01*
Y00355858D02*
X00220844Y00359190D01*
Y00369187D02*
Y00362523D01*
X00214179Y00369187D01*
X00212513D01*
X00210847Y00367521D01*
Y00364189D01*
X00212513Y00362523D01*
X00210847Y00372519D02*
Y00379184D01*
X00212513D01*
X00219178Y00372519D01*
X00220844D01*
X00186660Y00352336D02*
X00176663D01*
Y00357334D01*
X00178329Y00359001D01*
X00181662D01*
X00183328Y00357334D01*
Y00352336D01*
Y00355668D02*
X00186660Y00359001D01*
Y00368997D02*
Y00362333D01*
X00179996Y00368997D01*
X00178329D01*
X00176663Y00367331D01*
Y00363999D01*
X00178329Y00362333D01*
X00176663Y00378994D02*
X00178329Y00375662D01*
X00181662Y00372330D01*
X00184994D01*
X00186660Y00373996D01*
Y00377328D01*
X00184994Y00378994D01*
X00183328D01*
X00181662Y00377328D01*
Y00372330D01*
X00130752Y00775690D02*
X00120755D01*
Y00780689D01*
X00122421Y00782355D01*
X00125753D01*
X00127419Y00780689D01*
Y00775690D01*
Y00779022D02*
X00130752Y00782355D01*
Y00792352D02*
Y00785687D01*
X00124087Y00792352D01*
X00122421D01*
X00120755Y00790685D01*
Y00787353D01*
X00122421Y00785687D01*
X00120755Y00802348D02*
Y00795684D01*
X00125753D01*
X00124087Y00799016D01*
Y00800682D01*
X00125753Y00802348D01*
X00129086D01*
X00130752Y00800682D01*
Y00797350D01*
X00129086Y00795684D01*
X00203816Y00675688D02*
Y00685685D01*
X00208814D01*
X00210480Y00684019D01*
Y00680686D01*
X00208814Y00679020D01*
X00203816D01*
X00207148D02*
X00210480Y00675688D01*
X00220477D02*
X00213813D01*
X00220477Y00682353D01*
Y00684019D01*
X00218811Y00685685D01*
X00215479D01*
X00213813Y00684019D01*
X00228808Y00675688D02*
Y00685685D01*
X00223810Y00680686D01*
X00230474D01*
X00017998Y00667337D02*
X00008002D01*
Y00672336D01*
X00009668Y00674002D01*
X00013000D01*
X00014666Y00672336D01*
Y00667337D01*
Y00670670D02*
X00017998Y00674002D01*
Y00683999D02*
Y00677334D01*
X00011334Y00683999D01*
X00009668D01*
X00008002Y00682333D01*
Y00679000D01*
X00009668Y00677334D01*
Y00687331D02*
X00008002Y00688997D01*
Y00692329D01*
X00009668Y00693995D01*
X00011334D01*
X00013000Y00692329D01*
Y00690663D01*
Y00692329D01*
X00014666Y00693995D01*
X00016332D01*
X00017998Y00692329D01*
Y00688997D01*
X00016332Y00687331D01*
X00030998Y00667337D02*
X00021002D01*
Y00672336D01*
X00022668Y00674002D01*
X00026000D01*
X00027666Y00672336D01*
Y00667337D01*
Y00670670D02*
X00030998Y00674002D01*
Y00683999D02*
Y00677334D01*
X00024334Y00683999D01*
X00022668D01*
X00021002Y00682333D01*
Y00679000D01*
X00022668Y00677334D01*
X00030998Y00693996D02*
Y00687331D01*
X00024334Y00693996D01*
X00022668D01*
X00021002Y00692329D01*
Y00688997D01*
X00022668Y00687331D01*
X00800034Y00426504D02*
Y00436501D01*
X00805032D01*
X00806699Y00434835D01*
Y00431502D01*
X00805032Y00429836D01*
X00800034D01*
X00803366D02*
X00806699Y00426504D01*
X00816695D02*
X00810031D01*
X00816695Y00433168D01*
Y00434835D01*
X00815029Y00436501D01*
X00811697D01*
X00810031Y00434835D01*
X00820028Y00426504D02*
X00823360D01*
X00821694D01*
Y00436501D01*
X00820028Y00434835D01*
X00796732Y00412534D02*
Y00422531D01*
X00801730D01*
X00803397Y00420865D01*
Y00417532D01*
X00801730Y00415866D01*
X00796732D01*
X00800064D02*
X00803397Y00412534D01*
X00813393D02*
X00806729D01*
X00813393Y00419198D01*
Y00420865D01*
X00811727Y00422531D01*
X00808395D01*
X00806729Y00420865D01*
X00816726D02*
X00818392Y00422531D01*
X00821724D01*
X00823390Y00420865D01*
Y00414200D01*
X00821724Y00412534D01*
X00818392D01*
X00816726Y00414200D01*
Y00420865D01*
X00095998Y00667337D02*
X00086002D01*
Y00672336D01*
X00087668Y00674002D01*
X00091000D01*
X00092666Y00672336D01*
Y00667337D01*
Y00670670D02*
X00095998Y00674002D01*
Y00677334D02*
Y00680666D01*
Y00679000D01*
X00086002D01*
X00087668Y00677334D01*
X00094332Y00685665D02*
X00095998Y00687331D01*
Y00690663D01*
X00094332Y00692329D01*
X00087668D01*
X00086002Y00690663D01*
Y00687331D01*
X00087668Y00685665D01*
X00089334D01*
X00091000Y00687331D01*
Y00692329D01*
X00932504Y00428028D02*
Y00438025D01*
X00937502D01*
X00939168Y00436359D01*
Y00433026D01*
X00937502Y00431360D01*
X00932504D01*
X00935836D02*
X00939168Y00428028D01*
X00942501D02*
X00945833D01*
X00944167D01*
Y00438025D01*
X00942501Y00436359D01*
X00950831D02*
X00952498Y00438025D01*
X00955830D01*
X00957496Y00436359D01*
Y00434692D01*
X00955830Y00433026D01*
X00957496Y00431360D01*
Y00429694D01*
X00955830Y00428028D01*
X00952498D01*
X00950831Y00429694D01*
Y00431360D01*
X00952498Y00433026D01*
X00950831Y00434692D01*
Y00436359D01*
X00952498Y00433026D02*
X00955830D01*
X00303998Y00400504D02*
X00294002D01*
Y00405502D01*
X00295668Y00407169D01*
X00299000D01*
X00300666Y00405502D01*
Y00400504D01*
Y00403836D02*
X00303998Y00407169D01*
Y00410501D02*
Y00413833D01*
Y00412167D01*
X00294002D01*
X00295668Y00410501D01*
X00294002Y00418831D02*
Y00425496D01*
X00295668D01*
X00302332Y00418831D01*
X00303998D01*
X00056998Y00667337D02*
X00047002D01*
Y00672336D01*
X00048668Y00674002D01*
X00052000D01*
X00053666Y00672336D01*
Y00667337D01*
Y00670670D02*
X00056998Y00674002D01*
Y00677334D02*
Y00680666D01*
Y00679000D01*
X00047002D01*
X00048668Y00677334D01*
X00047002Y00692329D02*
X00048668Y00688997D01*
X00052000Y00685665D01*
X00055332D01*
X00056998Y00687331D01*
Y00690663D01*
X00055332Y00692329D01*
X00053666D01*
X00052000Y00690663D01*
Y00685665D01*
X00466504Y00407502D02*
Y00417498D01*
X00471502D01*
X00473168Y00415832D01*
Y00412500D01*
X00471502Y00410834D01*
X00466504D01*
X00469836D02*
X00473168Y00407502D01*
X00476501D02*
X00479833D01*
X00478167D01*
Y00417498D01*
X00476501Y00415832D01*
X00491496Y00417498D02*
X00484832D01*
Y00412500D01*
X00488164Y00414166D01*
X00489830D01*
X00491496Y00412500D01*
Y00409168D01*
X00489830Y00407502D01*
X00486498D01*
X00484832Y00409168D01*
X00043998Y00667337D02*
X00034002D01*
Y00672336D01*
X00035668Y00674002D01*
X00039000D01*
X00040666Y00672336D01*
Y00667337D01*
Y00670670D02*
X00043998Y00674002D01*
Y00677334D02*
Y00680666D01*
Y00679000D01*
X00034002D01*
X00035668Y00677334D01*
X00043998Y00690663D02*
X00034002D01*
X00039000Y00685665D01*
Y00692329D01*
X00193772Y00399834D02*
X00183775D01*
Y00404832D01*
X00185441Y00406498D01*
X00188774D01*
X00190440Y00404832D01*
Y00399834D01*
Y00403166D02*
X00193772Y00406498D01*
Y00409831D02*
Y00413163D01*
Y00411497D01*
X00183775D01*
X00185441Y00409831D01*
Y00418161D02*
X00183775Y00419827D01*
Y00423160D01*
X00185441Y00424826D01*
X00187108D01*
X00188774Y00423160D01*
Y00421494D01*
Y00423160D01*
X00190440Y00424826D01*
X00192106D01*
X00193772Y00423160D01*
Y00419827D01*
X00192106Y00418161D01*
X00357094Y00319316D02*
Y00329313D01*
X00362092D01*
X00363759Y00327647D01*
Y00324314D01*
X00362092Y00322648D01*
X00357094D01*
X00360426D02*
X00363759Y00319316D01*
X00367091D02*
X00370423D01*
X00368757D01*
Y00329313D01*
X00367091Y00327647D01*
X00382086Y00319316D02*
X00375421D01*
X00382086Y00325980D01*
Y00327647D01*
X00380420Y00329313D01*
X00377088D01*
X00375421Y00327647D01*
X00357094Y00333794D02*
Y00343791D01*
X00362092D01*
X00363759Y00342125D01*
Y00338792D01*
X00362092Y00337126D01*
X00357094D01*
X00360426D02*
X00363759Y00333794D01*
X00367091D02*
X00370423D01*
X00368757D01*
Y00343791D01*
X00367091Y00342125D01*
X00375421Y00333794D02*
X00378754D01*
X00377088D01*
Y00343791D01*
X00375421Y00342125D01*
X00468092Y00349034D02*
X00458095D01*
Y00354032D01*
X00459761Y00355699D01*
X00463094D01*
X00464760Y00354032D01*
Y00349034D01*
Y00352366D02*
X00468092Y00355699D01*
Y00359031D02*
Y00362363D01*
Y00360697D01*
X00458095D01*
X00459761Y00359031D01*
Y00367361D02*
X00458095Y00369028D01*
Y00372360D01*
X00459761Y00374026D01*
X00466426D01*
X00468092Y00372360D01*
Y00369028D01*
X00466426Y00367361D01*
X00459761D01*
X00454122Y00349034D02*
X00444125D01*
Y00354032D01*
X00445791Y00355699D01*
X00449124D01*
X00450790Y00354032D01*
Y00349034D01*
Y00352366D02*
X00454122Y00355699D01*
X00452456Y00359031D02*
X00454122Y00360697D01*
Y00364029D01*
X00452456Y00365695D01*
X00445791D01*
X00444125Y00364029D01*
Y00360697D01*
X00445791Y00359031D01*
X00447458D01*
X00449124Y00360697D01*
Y00365695D01*
X00507169Y00779252D02*
Y00789248D01*
X00512168D01*
X00513834Y00787582D01*
Y00784250D01*
X00512168Y00782584D01*
X00507169D01*
X00510502D02*
X00513834Y00779252D01*
X00517166Y00787582D02*
X00518832Y00789248D01*
X00522164D01*
X00523831Y00787582D01*
Y00785916D01*
X00522164Y00784250D01*
X00523831Y00782584D01*
Y00780918D01*
X00522164Y00779252D01*
X00518832D01*
X00517166Y00780918D01*
Y00782584D01*
X00518832Y00784250D01*
X00517166Y00785916D01*
Y00787582D01*
X00518832Y00784250D02*
X00522164D01*
X00347950Y00608368D02*
Y00618365D01*
X00352948D01*
X00354614Y00616699D01*
Y00613366D01*
X00352948Y00611700D01*
X00347950D01*
X00351282D02*
X00354614Y00608368D01*
X00357947Y00618365D02*
X00364611D01*
Y00616699D01*
X00357947Y00610034D01*
Y00608368D01*
X00250922Y00611670D02*
Y00621667D01*
X00255920D01*
X00257586Y00620001D01*
Y00616668D01*
X00255920Y00615002D01*
X00250922D01*
X00254254D02*
X00257586Y00611670D01*
X00267583Y00621667D02*
X00264251Y00620001D01*
X00260919Y00616668D01*
Y00613336D01*
X00262585Y00611670D01*
X00265917D01*
X00267583Y00613336D01*
Y00615002D01*
X00265917Y00616668D01*
X00260919D01*
X00111222Y00403898D02*
X00101225D01*
Y00408896D01*
X00102891Y00410563D01*
X00106224D01*
X00107890Y00408896D01*
Y00403898D01*
Y00407230D02*
X00111222Y00410563D01*
X00101225Y00420559D02*
Y00413895D01*
X00106224D01*
X00104558Y00417227D01*
Y00418893D01*
X00106224Y00420559D01*
X00109556D01*
X00111222Y00418893D01*
Y00415561D01*
X00109556Y00413895D01*
X00275748Y00400419D02*
X00265752D01*
Y00405418D01*
X00267418Y00407084D01*
X00270750D01*
X00272416Y00405418D01*
Y00400419D01*
Y00403752D02*
X00275748Y00407084D01*
Y00415415D02*
X00265752D01*
X00270750Y00410416D01*
Y00417081D01*
X00082998Y00667337D02*
X00073002D01*
Y00672336D01*
X00074668Y00674002D01*
X00078000D01*
X00079666Y00672336D01*
Y00667337D01*
Y00670670D02*
X00082998Y00674002D01*
X00074668Y00677334D02*
X00073002Y00679000D01*
Y00682333D01*
X00074668Y00683999D01*
X00076334D01*
X00078000Y00682333D01*
Y00680666D01*
Y00682333D01*
X00079666Y00683999D01*
X00081332D01*
X00082998Y00682333D01*
Y00679000D01*
X00081332Y00677334D01*
X00382748Y00442252D02*
Y00452249D01*
X00387746D01*
X00389412Y00450583D01*
Y00447250D01*
X00387746Y00445584D01*
X00382748D01*
X00386080D02*
X00389412Y00442252D01*
X00399409D02*
X00392745D01*
X00399409Y00448917D01*
Y00450583D01*
X00397743Y00452249D01*
X00394411D01*
X00392745Y00450583D01*
X00069998Y00667337D02*
X00060002D01*
Y00672336D01*
X00061668Y00674002D01*
X00065000D01*
X00066666Y00672336D01*
Y00667337D01*
Y00670670D02*
X00069998Y00674002D01*
Y00677334D02*
Y00680666D01*
Y00679000D01*
X00060002D01*
X00061668Y00677334D01*
X00274500Y00129918D02*
Y00136582D01*
X00272834Y00138248D01*
X00269502D01*
X00267836Y00136582D01*
Y00129918D01*
X00269502Y00128252D01*
X00272834D01*
X00271168Y00131584D02*
X00274500Y00128252D01*
X00272834D02*
X00274500Y00129918D01*
X00277832Y00128252D02*
X00281165D01*
X00279499D01*
Y00138248D01*
X00277832Y00136582D01*
X00382808Y00414149D02*
X00376144D01*
Y00409150D01*
X00379476D01*
X00376144D01*
Y00404152D01*
X00386141Y00414149D02*
Y00404152D01*
X00391139D01*
X00392805Y00405818D01*
Y00407484D01*
X00391139Y00409150D01*
X00386141D01*
X00391139D01*
X00392805Y00410816D01*
Y00412483D01*
X00391139Y00414149D01*
X00386141D01*
X00396138Y00404152D02*
X00399470D01*
X00397804D01*
Y00414149D01*
X00396138Y00412483D01*
X00180671Y00721998D02*
Y00712002D01*
X00185669D01*
X00187335Y00713668D01*
Y00720332D01*
X00185669Y00721998D01*
X00180671D01*
X00190668D02*
Y00712002D01*
X00195666D01*
X00197332Y00713668D01*
Y00720332D01*
X00195666Y00721998D01*
X00190668D01*
X00207329Y00712002D02*
X00200665D01*
X00207329Y00718666D01*
Y00720332D01*
X00205663Y00721998D01*
X00202331D01*
X00200665Y00720332D01*
X00010837Y00619248D02*
Y00609252D01*
X00015835D01*
X00017502Y00610918D01*
Y00617582D01*
X00015835Y00619248D01*
X00010837D01*
X00020834D02*
Y00609252D01*
X00025832D01*
X00027498Y00610918D01*
Y00617582D01*
X00025832Y00619248D01*
X00020834D01*
X00030831Y00609252D02*
X00034163D01*
X00032497D01*
Y00619248D01*
X00030831Y00617582D01*
X00632880Y00494837D02*
Y00484840D01*
X00637878D01*
X00639544Y00486506D01*
Y00493171D01*
X00637878Y00494837D01*
X00632880D01*
X00642877Y00484840D02*
Y00491505D01*
X00646209Y00494837D01*
X00649541Y00491505D01*
Y00484840D01*
Y00489838D01*
X00642877D01*
X00652874Y00493171D02*
X00654540Y00494837D01*
X00657872D01*
X00659538Y00493171D01*
Y00491505D01*
X00657872Y00489838D01*
X00659538Y00488172D01*
Y00486506D01*
X00657872Y00484840D01*
X00654540D01*
X00652874Y00486506D01*
Y00488172D01*
X00654540Y00489838D01*
X00652874Y00491505D01*
Y00493171D01*
X00654540Y00489838D02*
X00657872D01*
X00323566Y00189105D02*
Y00179108D01*
X00328564D01*
X00330230Y00180774D01*
Y00187439D01*
X00328564Y00189105D01*
X00323566D01*
X00333563Y00179108D02*
Y00185772D01*
X00336895Y00189105D01*
X00340227Y00185772D01*
Y00179108D01*
Y00184106D01*
X00333563D01*
X00343560Y00189105D02*
X00350224D01*
Y00187439D01*
X00343560Y00180774D01*
Y00179108D01*
X00424404Y00189105D02*
Y00179108D01*
X00429402D01*
X00431068Y00180774D01*
Y00187439D01*
X00429402Y00189105D01*
X00424404D01*
X00434401Y00179108D02*
Y00185772D01*
X00437733Y00189105D01*
X00441065Y00185772D01*
Y00179108D01*
Y00184106D01*
X00434401D01*
X00451062Y00189105D02*
X00447730Y00187439D01*
X00444398Y00184106D01*
Y00180774D01*
X00446064Y00179108D01*
X00449396D01*
X00451062Y00180774D01*
Y00182440D01*
X00449396Y00184106D01*
X00444398D01*
X00372588Y00491619D02*
Y00481622D01*
X00377586D01*
X00379253Y00483288D01*
Y00489953D01*
X00377586Y00491619D01*
X00372588D01*
X00382585Y00481622D02*
Y00488287D01*
X00385917Y00491619D01*
X00389249Y00488287D01*
Y00481622D01*
Y00486620D01*
X00382585D01*
X00399246Y00491619D02*
X00392582D01*
Y00486620D01*
X00395914Y00488287D01*
X00397580D01*
X00399246Y00486620D01*
Y00483288D01*
X00397580Y00481622D01*
X00394248D01*
X00392582Y00483288D01*
X00402252Y00620421D02*
X00412248D01*
Y00625419D01*
X00410582Y00627085D01*
X00403918D01*
X00402252Y00625419D01*
Y00620421D01*
X00412248Y00630418D02*
X00405584D01*
X00402252Y00633750D01*
X00405584Y00637082D01*
X00412248D01*
X00407250D01*
Y00630418D01*
X00412248Y00645413D02*
X00402252D01*
X00407250Y00640415D01*
Y00647079D01*
X00415768Y00788799D02*
Y00778802D01*
X00420766D01*
X00422433Y00780468D01*
Y00787133D01*
X00420766Y00788799D01*
X00415768D01*
X00425765Y00778802D02*
Y00785467D01*
X00429097Y00788799D01*
X00432429Y00785467D01*
Y00778802D01*
Y00783800D01*
X00425765D01*
X00435762Y00787133D02*
X00437428Y00788799D01*
X00440760D01*
X00442426Y00787133D01*
Y00785467D01*
X00440760Y00783800D01*
X00439094D01*
X00440760D01*
X00442426Y00782134D01*
Y00780468D01*
X00440760Y00778802D01*
X00437428D01*
X00435762Y00780468D01*
X00557500Y00408815D02*
Y00398818D01*
X00562498D01*
X00564165Y00400484D01*
Y00407149D01*
X00562498Y00408815D01*
X00557500D01*
X00567497Y00398818D02*
Y00405482D01*
X00570829Y00408815D01*
X00574161Y00405482D01*
Y00398818D01*
Y00403816D01*
X00567497D01*
X00584158Y00398818D02*
X00577494D01*
X00584158Y00405482D01*
Y00407149D01*
X00582492Y00408815D01*
X00579160D01*
X00577494Y00407149D01*
X00969337Y00363998D02*
Y00354002D01*
X00974335D01*
X00976002Y00355668D01*
Y00362332D01*
X00974335Y00363998D01*
X00969337D01*
X00979334Y00354002D02*
Y00360666D01*
X00982666Y00363998D01*
X00985998Y00360666D01*
Y00354002D01*
Y00359000D01*
X00979334D01*
X00989331Y00354002D02*
X00992663D01*
X00990997D01*
Y00363998D01*
X00989331Y00362332D01*
X00939677Y00421373D02*
X00938010Y00423039D01*
X00934678D01*
X00933012Y00421373D01*
Y00414708D01*
X00934678Y00413042D01*
X00938010D01*
X00939677Y00414708D01*
X00943009Y00413042D02*
X00946341D01*
X00944675D01*
Y00423039D01*
X00943009Y00421373D01*
X00958004Y00423039D02*
X00954672Y00421373D01*
X00951339Y00418040D01*
Y00414708D01*
X00953006Y00413042D01*
X00956338D01*
X00958004Y00414708D01*
Y00416374D01*
X00956338Y00418040D01*
X00951339D01*
X00363759Y00282689D02*
X00362092Y00284355D01*
X00358760D01*
X00357094Y00282689D01*
Y00276024D01*
X00358760Y00274358D01*
X00362092D01*
X00363759Y00276024D01*
X00367091Y00274358D02*
X00370423D01*
X00368757D01*
Y00284355D01*
X00367091Y00282689D01*
X00382086Y00284355D02*
X00375421D01*
Y00279356D01*
X00378754Y00281022D01*
X00380420D01*
X00382086Y00279356D01*
Y00276024D01*
X00380420Y00274358D01*
X00377088D01*
X00375421Y00276024D01*
X00485637Y00341337D02*
X00483971Y00339670D01*
Y00336338D01*
X00485637Y00334672D01*
X00492302D01*
X00493968Y00336338D01*
Y00339670D01*
X00492302Y00341337D01*
X00493968Y00344669D02*
Y00348001D01*
Y00346335D01*
X00483971D01*
X00485637Y00344669D01*
X00493968Y00357998D02*
X00483971D01*
X00488970Y00352999D01*
Y00359664D01*
X00136899Y00783537D02*
X00135233Y00781871D01*
Y00778539D01*
X00136899Y00776873D01*
X00143564D01*
X00145230Y00778539D01*
Y00781871D01*
X00143564Y00783537D01*
X00145230Y00786870D02*
Y00790202D01*
Y00788536D01*
X00135233D01*
X00136899Y00786870D01*
Y00795200D02*
X00135233Y00796866D01*
Y00800199D01*
X00136899Y00801865D01*
X00138565D01*
X00140231Y00800199D01*
Y00798532D01*
Y00800199D01*
X00141897Y00801865D01*
X00143564D01*
X00145230Y00800199D01*
Y00796866D01*
X00143564Y00795200D01*
X00326169Y00678082D02*
X00324502Y00679748D01*
X00321170D01*
X00319504Y00678082D01*
Y00671418D01*
X00321170Y00669752D01*
X00324502D01*
X00326169Y00671418D01*
X00329501Y00669752D02*
X00332833D01*
X00331167D01*
Y00679748D01*
X00329501Y00678082D01*
X00344496Y00669752D02*
X00337831D01*
X00344496Y00676416D01*
Y00678082D01*
X00342830Y00679748D01*
X00339498D01*
X00337831Y00678082D01*
X00293654Y00557263D02*
X00291988Y00558929D01*
X00288656D01*
X00286990Y00557263D01*
Y00550598D01*
X00288656Y00548932D01*
X00291988D01*
X00293654Y00550598D01*
X00296987Y00548932D02*
X00300319D01*
X00298653D01*
Y00558929D01*
X00296987Y00557263D01*
X00305317Y00548932D02*
X00308650D01*
X00306984D01*
Y00558929D01*
X00305317Y00557263D01*
X00379761Y00728459D02*
X00378094Y00730125D01*
X00374762D01*
X00373096Y00728459D01*
Y00721794D01*
X00374762Y00720128D01*
X00378094D01*
X00379761Y00721794D01*
X00383093Y00720128D02*
X00386425D01*
X00384759D01*
Y00730125D01*
X00383093Y00728459D01*
X00391423D02*
X00393090Y00730125D01*
X00396422D01*
X00398088Y00728459D01*
Y00721794D01*
X00396422Y00720128D01*
X00393090D01*
X00391423Y00721794D01*
Y00728459D01*
X00318547Y00594347D02*
X00316880Y00596013D01*
X00313548D01*
X00311882Y00594347D01*
Y00587682D01*
X00313548Y00586016D01*
X00316880D01*
X00318547Y00587682D01*
X00321879D02*
X00323545Y00586016D01*
X00326877D01*
X00328543Y00587682D01*
Y00594347D01*
X00326877Y00596013D01*
X00323545D01*
X00321879Y00594347D01*
Y00592681D01*
X00323545Y00591014D01*
X00328543D01*
X00049805Y00410563D02*
X00048139Y00408896D01*
Y00405564D01*
X00049805Y00403898D01*
X00056470D01*
X00058136Y00405564D01*
Y00408896D01*
X00056470Y00410563D01*
X00049805Y00413895D02*
X00048139Y00415561D01*
Y00418893D01*
X00049805Y00420559D01*
X00051472D01*
X00053138Y00418893D01*
X00054804Y00420559D01*
X00056470D01*
X00058136Y00418893D01*
Y00415561D01*
X00056470Y00413895D01*
X00054804D01*
X00053138Y00415561D01*
X00051472Y00413895D01*
X00049805D01*
X00053138Y00415561D02*
Y00418893D01*
X00389412Y00427977D02*
X00387746Y00429643D01*
X00384414D01*
X00382748Y00427977D01*
Y00421312D01*
X00384414Y00419646D01*
X00387746D01*
X00389412Y00421312D01*
X00392745Y00429643D02*
X00399409D01*
Y00427977D01*
X00392745Y00421312D01*
Y00419646D01*
X00499394Y00472681D02*
X00497728Y00474347D01*
X00494396D01*
X00492730Y00472681D01*
Y00466016D01*
X00494396Y00464350D01*
X00497728D01*
X00499394Y00466016D01*
X00509391Y00474347D02*
X00506059Y00472681D01*
X00502727Y00469348D01*
Y00466016D01*
X00504393Y00464350D01*
X00507725D01*
X00509391Y00466016D01*
Y00467682D01*
X00507725Y00469348D01*
X00502727D01*
X00529366Y00472681D02*
X00527700Y00474347D01*
X00524368D01*
X00522702Y00472681D01*
Y00466016D01*
X00524368Y00464350D01*
X00527700D01*
X00529366Y00466016D01*
X00539363Y00474347D02*
X00532699D01*
Y00469348D01*
X00536031Y00471015D01*
X00537697D01*
X00539363Y00469348D01*
Y00466016D01*
X00537697Y00464350D01*
X00534365D01*
X00532699Y00466016D01*
X00222281Y00768337D02*
X00220614Y00770003D01*
X00217282D01*
X00215616Y00768337D01*
Y00761672D01*
X00217282Y00760006D01*
X00220614D01*
X00222281Y00761672D01*
X00230611Y00760006D02*
Y00770003D01*
X00225613Y00765004D01*
X00232277D01*
X00334406Y00648093D02*
X00332740Y00649759D01*
X00329408D01*
X00327742Y00648093D01*
Y00641429D01*
X00329408Y00639762D01*
X00332740D01*
X00334406Y00641429D01*
X00337739Y00648093D02*
X00339405Y00649759D01*
X00342737D01*
X00344403Y00648093D01*
Y00646427D01*
X00342737Y00644761D01*
X00341071D01*
X00342737D01*
X00344403Y00643095D01*
Y00641429D01*
X00342737Y00639762D01*
X00339405D01*
X00337739Y00641429D01*
X00243607Y00410055D02*
X00241941Y00408388D01*
Y00405056D01*
X00243607Y00403390D01*
X00250272D01*
X00251938Y00405056D01*
Y00408388D01*
X00250272Y00410055D01*
X00251938Y00420051D02*
Y00413387D01*
X00245273Y00420051D01*
X00243607D01*
X00241941Y00418385D01*
Y00415053D01*
X00243607Y00413387D01*
X00775238Y00400037D02*
X00773572Y00401703D01*
X00770240D01*
X00768574Y00400037D01*
Y00393372D01*
X00770240Y00391706D01*
X00773572D01*
X00775238Y00393372D01*
X00778571Y00391706D02*
X00781903D01*
X00780237D01*
Y00401703D01*
X00778571Y00400037D01*
M02*
