G04*
G04 #@! TF.GenerationSoftware,Altium Limited,Altium Designer,20.0.13 (296)*
G04*
G04 Layer_Physical_Order=3*
G04 Layer_Color=128*
%FSAX44Y44*%
%MOMM*%
G71*
G01*
G75*
%ADD12C,0.2000*%
%ADD66C,1.2000*%
%ADD67C,1.3000*%
%ADD104C,1.0000*%
%ADD111C,1.0160*%
%ADD113C,1.5000*%
%ADD114C,1.7000*%
G04:AMPARAMS|DCode=115|XSize=2.6mm|YSize=2.6mm|CornerRadius=0mm|HoleSize=0mm|Usage=FLASHONLY|Rotation=0.000|XOffset=0mm|YOffset=0mm|HoleType=Round|Shape=Relief|Width=0.3mm|Gap=0.2mm|Entries=4|*
%AMTHD115*
7,0,0,2.6000,2.2000,0.3000,45*
%
%ADD115THD115*%
%ADD116C,2.0000*%
%ADD117C,4.0000*%
%ADD118C,8.5000*%
%ADD119C,0.8000*%
%ADD120C,2.3000*%
G36*
X00489000Y00799000D02*
X00473000Y00815000D01*
X00505000D01*
X00489000Y00799000D01*
D02*
G37*
G36*
X00070000D02*
Y00815000D01*
X00086000D01*
X00070000Y00799000D01*
D02*
G37*
G36*
X00176500Y00770750D02*
Y00765000D01*
X00174500Y00763000D01*
X00168000D01*
X00166000Y00765000D01*
Y00770750D01*
X00163750Y00773000D01*
X00178750D01*
X00176500Y00770750D01*
D02*
G37*
G36*
X00337500Y00766000D02*
Y00756500D01*
X00333900Y00752900D01*
X00326100D01*
X00322500Y00756500D01*
Y00766000D01*
X00315500Y00773000D01*
X00344500D01*
X00337500Y00766000D01*
D02*
G37*
G36*
X00293500D02*
Y00756500D01*
X00286000Y00749000D01*
X00286000Y00749000D01*
X00286000Y00749000D01*
X00278500Y00756500D01*
Y00766000D01*
X00271500Y00773000D01*
X00300500D01*
X00293500Y00766000D01*
D02*
G37*
G36*
X01070000Y00815000D02*
X01072294Y00815000D01*
X01076843Y00814401D01*
X01081274Y00813214D01*
X01085513Y00811458D01*
X01089486Y00809164D01*
X01093126Y00806371D01*
X01096370Y00803127D01*
X01099163Y00799487D01*
X01101457Y00795514D01*
X01103213Y00791275D01*
X01104400Y00786843D01*
X01104999Y00782294D01*
X01104999Y00780001D01*
X01104999Y00745001D01*
X01070999Y00745001D01*
X01070999D01*
X01068640Y00745001D01*
X01063961Y00745617D01*
X01059403Y00746838D01*
X01055043Y00748644D01*
X01050956Y00751003D01*
X01047212Y00753876D01*
X01043876Y00757213D01*
X01041003Y00760957D01*
X01038643Y00765044D01*
X01036837Y00769403D01*
X01035616Y00773962D01*
X01035000Y00778640D01*
Y00781000D01*
Y00799000D01*
X01019000Y00815000D01*
X01070000D01*
Y00815000D01*
D02*
G37*
G36*
X01105000Y00729000D02*
X01089000Y00745000D01*
X01105000D01*
Y00729000D01*
D02*
G37*
G36*
X00069999Y00780999D02*
X00069999Y00780999D01*
X00069999Y00778640D01*
X00069383Y00773961D01*
X00068162Y00769403D01*
X00066356Y00765043D01*
X00063997Y00760956D01*
X00061124Y00757212D01*
X00057787Y00753876D01*
X00054043Y00751003D01*
X00049956Y00748643D01*
X00045597Y00746837D01*
X00041038Y00745616D01*
X00036360Y00745000D01*
X00016000D01*
X00000000Y00729000D01*
Y00745000D01*
Y00780000D01*
Y00782294D01*
X00000599Y00786843D01*
X00001786Y00791274D01*
X00003542Y00795513D01*
X00005836Y00799486D01*
X00008629Y00803126D01*
X00011873Y00806370D01*
X00015513Y00809163D01*
X00019486Y00811457D01*
X00023725Y00813213D01*
X00028157Y00814400D01*
X00032705Y00814999D01*
X00034999D01*
X00069999Y00814999D01*
X00069999Y00780999D01*
D02*
G37*
G36*
X00428000Y00689000D02*
X00406000D01*
X00417000Y00700000D01*
X00428000Y00689000D01*
D02*
G37*
G36*
X00042000Y00626000D02*
X00080000Y00588000D01*
X00214480D01*
X00232000Y00570480D01*
Y00466000D01*
X00214480Y00448480D01*
X00080000D01*
X00042000Y00410480D01*
Y00397480D01*
X00029000Y00410480D01*
X00015000D01*
X00002000Y00397480D01*
Y00413480D01*
X00000000Y00411480D01*
X00000000Y00625000D01*
X00002000Y00623000D01*
Y00639000D01*
X00015000Y00626000D01*
X00029000D01*
X00042000Y00639000D01*
Y00626000D01*
D02*
G37*
G36*
X00417000Y00616000D02*
X00406000Y00627000D01*
X00428000D01*
X00417000Y00616000D01*
D02*
G37*
G36*
X00488000Y00614000D02*
X00488000Y00614000D01*
X00475000Y00627000D01*
X00488000Y00640000D01*
Y00614000D01*
D02*
G37*
G36*
X00505000Y00769000D02*
X00900000D01*
X00934000Y00735000D01*
Y00686000D01*
X00955000Y00665000D01*
X01021000D01*
X01050000Y00694000D01*
X01089000D01*
X01105000Y00710000D01*
Y00694000D01*
Y00516000D01*
X01101000D01*
Y00500000D01*
X01085000Y00516000D01*
X00516000D01*
X00489000Y00543000D01*
Y00675000D01*
X00488000Y00674000D01*
X00473000Y00689000D01*
X00489000Y00705000D01*
Y00753000D01*
Y00769000D01*
Y00785000D01*
X00505000Y00769000D01*
D02*
G37*
G36*
X00468000Y00469000D02*
X00452500D01*
Y00484500D01*
X00468000Y00469000D01*
D02*
G37*
G36*
X00376250Y00366500D02*
X00365250Y00355500D01*
Y00377500D01*
X00376250Y00366500D01*
D02*
G37*
G36*
X00402100Y00263600D02*
Y00233750D01*
X00402100D01*
Y00203900D01*
X00394050Y00195850D01*
X00362250D01*
Y00233750D01*
X00362250D01*
Y00195850D01*
X00330450D01*
X00322400Y00203900D01*
Y00233750D01*
Y00263600D01*
X00330450Y00271650D01*
X00394050D01*
X00402100Y00263600D01*
D02*
G37*
G36*
X01105000Y00070000D02*
X01089000D01*
X01105000Y00086000D01*
Y00070000D01*
D02*
G37*
G36*
X00016000D02*
X00000000D01*
Y00086000D01*
X00016000Y00070000D01*
D02*
G37*
G36*
X01105000Y00035000D02*
X01105000Y00035000D01*
X01105000Y00032706D01*
X01104401Y00028157D01*
X01103214Y00023726D01*
X01101458Y00019487D01*
X01099164Y00015514D01*
X01096371Y00011874D01*
X01093127Y00008630D01*
X01089487Y00005837D01*
X01085514Y00003543D01*
X01081275Y00001787D01*
X01076843Y00000599D01*
X01072295Y00000001D01*
X01070001Y00000001D01*
X01035001D01*
X01035001Y00034001D01*
X01035001Y00036360D01*
X01035617Y00041039D01*
X01036838Y00045597D01*
X01038644Y00049957D01*
X01041003Y00054044D01*
X01043876Y00057787D01*
X01047213Y00061124D01*
X01050957Y00063997D01*
X01055044Y00066357D01*
X01059404Y00068163D01*
X01063962Y00069384D01*
X01068640Y00070000D01*
X01071000Y00070000D01*
X01105000Y00070000D01*
Y00035000D01*
D02*
G37*
G36*
X00405000Y00042000D02*
X00383000D01*
X00394000Y00053000D01*
X00405000Y00042000D01*
D02*
G37*
G36*
X00271800Y00055950D02*
Y00046450D01*
X00276250Y00042000D01*
X00264300Y00042000D01*
X00264300Y00059550D01*
X00268200D01*
X00271800Y00055950D01*
D02*
G37*
G36*
X00264300Y00042000D02*
X00252350Y00042000D01*
X00256800Y00046450D01*
Y00055950D01*
X00260400Y00059550D01*
X00264300D01*
X00264300Y00042000D01*
D02*
G37*
G36*
X00341800Y00055950D02*
Y00046450D01*
X00346250Y00042000D01*
X00334300Y00042000D01*
X00334300Y00059550D01*
X00338200D01*
X00341800Y00055950D01*
D02*
G37*
G36*
X00334300Y00042000D02*
X00322350Y00042000D01*
X00326800Y00046450D01*
Y00055950D01*
X00330400Y00059550D01*
X00334300D01*
X00334300Y00042000D01*
D02*
G37*
G36*
X00297200Y00055950D02*
Y00046450D01*
X00301650Y00042000D01*
X00289700Y00042000D01*
X00289700Y00059550D01*
X00293600D01*
X00297200Y00055950D01*
D02*
G37*
G36*
X00289700Y00042000D02*
X00277750Y00042000D01*
X00282200Y00046450D01*
Y00055950D01*
X00285800Y00059550D01*
X00289700D01*
X00289700Y00042000D01*
D02*
G37*
G36*
X00367200Y00055950D02*
Y00046450D01*
X00371650Y00042000D01*
X00359700Y00042000D01*
X00359700Y00059550D01*
X00363600D01*
X00367200Y00055950D01*
D02*
G37*
G36*
X00359700Y00042000D02*
X00347750Y00042000D01*
X00352200Y00046450D01*
Y00055950D01*
X00355800Y00059550D01*
X00359700D01*
X00359700Y00042000D01*
D02*
G37*
G36*
X01035000Y00000000D02*
X01019000D01*
X01035000Y00016000D01*
Y00000000D01*
D02*
G37*
G36*
X00086000D02*
X00070000D01*
Y00016000D01*
X00086000Y00000000D01*
D02*
G37*
G36*
X00034001Y00069999D02*
X00034001Y00069999D01*
X00036360Y00069999D01*
X00041039Y00069383D01*
X00045597Y00068162D01*
X00049957Y00066356D01*
X00054044Y00063997D01*
X00057787Y00061124D01*
X00061124Y00057787D01*
X00063997Y00054043D01*
X00066357Y00049956D01*
X00068163Y00045596D01*
X00069384Y00041038D01*
X00070000Y00036360D01*
X00070000Y00034000D01*
X00070000Y00000000D01*
X00035000D01*
X00032706Y-00000000D01*
X00028157Y00000599D01*
X00023726Y00001786D01*
X00019487Y00003542D01*
X00015514Y00005836D01*
X00011874Y00008629D01*
X00008630Y00011873D01*
X00005837Y00015513D01*
X00003543Y00019486D01*
X00001787Y00023725D01*
X00000600Y00028157D01*
X00000001Y00032705D01*
X00000001Y00034999D01*
Y00069999D01*
X00034001Y00069999D01*
D02*
G37*
%LPC*%
G36*
X01035001Y00034001D02*
Y00034001D01*
D01*
Y00034001D01*
D02*
G37*
%LPD*%
D12*
X01070000Y00070000D02*
G03*
X01035000Y00035000I00000000J-00035000D01*
G01*
X00070000D02*
G03*
X00035000Y00070000I-00035000J00000000D01*
G01*
Y00745000D02*
G03*
X00070000Y00780000I00000000J00035000D01*
G01*
X01035000D02*
G03*
X01070000Y00745000I00035000J00000000D01*
G01*
X00365250Y00377500D02*
X00376250Y00366500D01*
X00365250Y00355500D02*
X00376250Y00366500D01*
X00452500Y00469000D02*
Y00484500D01*
Y00469000D02*
X00468000D01*
X00451779Y00468279D02*
X00452500Y00469000D01*
X00365000Y00366500D02*
X00403000D01*
X00421750Y00385250D01*
Y00438250D01*
X00451779Y00468279D01*
X00383000Y00042000D02*
X00394000Y00053000D01*
X00405000Y00042000D01*
X00286000Y00624000D02*
Y00773000D01*
Y00624000D02*
X00365000Y00545000D01*
Y00317000D02*
Y00545000D01*
X00350000Y00302000D02*
X00365000Y00317000D01*
X00316000Y00302000D02*
X00350000D01*
X00300000Y00286000D02*
X00316000Y00302000D01*
X00300000Y00196000D02*
Y00286000D01*
Y00196000D02*
X00394000Y00102000D01*
Y00042000D02*
Y00102000D01*
X00406000Y00627000D02*
X00417000Y00616000D01*
X00428000Y00627000D01*
X00417000Y00520000D02*
Y00627000D01*
Y00520000D02*
X00468000Y00469000D01*
X00572000D01*
X00943000D01*
X01048000D02*
X01063000Y00454000D01*
X00943000Y00469000D02*
X01048000D01*
X01063000Y00454000D02*
X01063000Y00138000D01*
X00138000Y00042000D02*
X00967000D01*
X00042000Y00397480D02*
Y00412000D01*
Y00138000D02*
Y00397480D01*
X00967000Y00042000D02*
X01015000Y00090000D01*
X01063000Y00138000D01*
X00042000D02*
X00090000Y00090000D01*
X00138000Y00042000D01*
X00002000Y00639000D02*
X00015000Y00626000D01*
X00029000D02*
X00042000Y00639000D01*
X00001000Y00626000D02*
X00042000D01*
X00120814Y00815000D02*
X00131000D01*
X00000000Y00684000D02*
Y00694186D01*
X00042000Y00626000D02*
X00083000Y00585000D01*
X00042000Y00626000D02*
Y00632000D01*
Y00677000D01*
X00090000Y00725000D01*
X00138000Y00773000D02*
X00158000D01*
X00090000Y00725000D02*
X00138000Y00773000D01*
X00406000D02*
X00417000Y00762000D01*
X00000000Y00625000D02*
X00037000Y00588000D01*
X00088000D01*
X00037000Y00448480D02*
X00088000D01*
X00000000Y00411480D02*
X00037000Y00448480D01*
X00088000D02*
X00214480D01*
X00232000Y00466000D01*
Y00490000D01*
Y00546480D02*
Y00570480D01*
X00214480Y00588000D02*
X00232000Y00570480D01*
X00088000Y00588000D02*
X00214480D01*
X00232000Y00490000D02*
Y00546480D01*
X00158000Y00773000D02*
X00406000D01*
X01070000Y00070000D02*
X01105000D01*
X01035001Y00000001D02*
Y00034999D01*
X00070000Y00000000D02*
Y00035000D01*
X00000001Y00069999D02*
X00034999D01*
X00000000Y00745000D02*
X00035000D01*
X00069999Y00780001D02*
Y00814999D01*
X01070001Y00745001D02*
X01104999D01*
X01035000Y00780000D02*
Y00815000D01*
X00406000Y00689000D02*
X00417000Y00700000D01*
X00428000Y00689000D01*
X00417000Y00700000D02*
Y00762000D01*
X00475000Y00627000D02*
X00488000Y00614000D01*
X00473000Y00689000D02*
X00490000Y00706000D01*
X00343000Y00710000D02*
X00352000D01*
X00338000Y00705000D02*
X00343000Y00710000D01*
X00338000Y00641000D02*
Y00705000D01*
Y00641000D02*
X00352000Y00627000D01*
X00475000D01*
X00488000Y00640000D01*
Y00674000D01*
X00473000Y00689000D02*
X00488000Y00674000D01*
X00377000Y00689000D02*
X00473000D01*
X00356000Y00710000D02*
X00377000Y00689000D01*
X00352000Y00710000D02*
X00356000D01*
D66*
X00359700Y00049500D02*
D03*
X00334300D02*
D03*
X00289700Y00049500D02*
D03*
X00264300D02*
D03*
D67*
X00696750Y00436000D02*
D03*
Y00405000D02*
D03*
X00665750D02*
D03*
Y00436000D02*
D03*
D104*
X01050000Y00694000D02*
X01105000D01*
X01021000Y00665000D02*
X01050000Y00694000D01*
X00955000Y00665000D02*
X00973000D01*
X01021000D01*
X00934000Y00686000D02*
X00955000Y00665000D01*
X00934000Y00686000D02*
Y00735000D01*
X00900000Y00769000D02*
X00934000Y00735000D01*
X00489000Y00769000D02*
X00900000D01*
X00516000Y00516000D02*
X01105000D01*
X00489000Y00543000D02*
X00516000Y00516000D01*
X00489000Y00543000D02*
Y00793000D01*
Y00815000D01*
D111*
X00035000Y00815000D02*
G03*
X00000000Y00780000I-00000000J-00035000D01*
G01*
X01105000Y00780000D02*
G03*
X01070000Y00815000I-00035000J00000000D01*
G01*
Y00000000D02*
G03*
X01105000Y00035000I00000000J00035000D01*
G01*
X00000000Y00035000D02*
G03*
X00035000Y00000000I00035000J00000000D01*
G01*
X01070000D01*
X01105000Y00035000D02*
Y00780000D01*
X00035000Y00815000D02*
X01070000Y00815000D01*
X-00000000Y00035000D02*
X00000000Y00780000D01*
D113*
X00286000Y00762500D02*
D03*
X00330000D02*
D03*
D114*
X01071000Y00618000D02*
D03*
Y00668000D02*
D03*
X00991500Y00627500D02*
D03*
X00941500D02*
D03*
X00908500Y00702500D02*
D03*
X00891500Y00627500D02*
D03*
X00138000Y00234750D02*
D03*
X00238000D02*
D03*
X00838000Y00735000D02*
D03*
Y00627500D02*
D03*
D115*
X01071000Y00718000D02*
D03*
X01008500Y00702500D02*
D03*
X00958500D02*
D03*
X00453000Y00655000D02*
D03*
Y00735000D02*
D03*
D116*
X00188000Y00284750D02*
D03*
Y00184750D02*
D03*
D117*
X00035000Y00780000D02*
D03*
Y00035000D02*
D03*
X01070000Y00780000D02*
D03*
Y00035000D02*
D03*
D118*
X00761250Y00181750D02*
D03*
D119*
X00539000Y00420000D02*
D03*
X00402250Y00752000D02*
D03*
X00355000Y00406500D02*
D03*
X00325000Y00294750D02*
D03*
X00137000Y00752640D02*
D03*
X00148000D02*
D03*
X00159000D02*
D03*
X00137000Y00741640D02*
D03*
X00148000D02*
D03*
X00159000D02*
D03*
X00137000Y00730640D02*
D03*
X00148000D02*
D03*
X00159000D02*
D03*
X00236000Y00403740D02*
D03*
X00795750Y00388250D02*
D03*
X00497000Y00328750D02*
D03*
X00547500Y00451250D02*
D03*
X00484500Y00450000D02*
D03*
X00413250Y00463750D02*
D03*
X00210250Y00764890D02*
D03*
X00314500Y00562000D02*
D03*
X00323000Y00570500D02*
D03*
X00331500Y00562000D02*
D03*
X00367000Y00591000D02*
D03*
X00358500Y00599500D02*
D03*
X00357000Y00636750D02*
D03*
X00348500Y00645250D02*
D03*
Y00675250D02*
D03*
X00402000Y00705750D02*
D03*
X00393500Y00714250D02*
D03*
X00869250Y00448000D02*
D03*
X00888250D02*
D03*
X00873750Y00366250D02*
D03*
X00903750D02*
D03*
X00072500Y00428490D02*
D03*
X00145500Y00684440D02*
D03*
X00233500Y00661750D02*
D03*
X00234834Y00587166D02*
D03*
X00335750Y00362750D02*
D03*
X00127500Y00640490D02*
D03*
X00343750Y00350000D02*
D03*
X00513000Y00385500D02*
D03*
X00215750Y00632240D02*
D03*
X00381300Y00275750D02*
D03*
X00462300Y00291500D02*
D03*
X00128500Y00368000D02*
D03*
X00292000Y00721750D02*
D03*
X00685083Y00447667D02*
D03*
X00526000Y00422000D02*
D03*
X00148250Y00059000D02*
D03*
Y00094000D02*
D03*
X00284750Y00528240D02*
D03*
Y00508240D02*
D03*
X00313250Y00256000D02*
D03*
X00131000Y00075000D02*
D03*
X00388500Y00586500D02*
D03*
X00123250Y00702000D02*
D03*
Y00661740D02*
D03*
X00336000Y00792500D02*
D03*
X00280000D02*
D03*
X00352500Y00754000D02*
D03*
X00263500Y00754000D02*
D03*
X00335000Y00732000D02*
D03*
X00171250Y00768390D02*
D03*
X00401750Y00737500D02*
D03*
X00072500Y00395990D02*
D03*
X00323500Y00685750D02*
D03*
X00369750Y00613250D02*
D03*
X00147500Y00640490D02*
D03*
D120*
X00476000Y00131000D02*
D03*
X00411000D02*
D03*
M02*
