M48
;Layer_Color=9474304
;FILE_FORMAT=4:4
METRIC
;TYPE=PLATED
T1F00S00C0.3000
T2F00S00C0.7000
T3F00S00C0.8000
T4F00S00C1.2000
T5F00S00C1.8000
T6F00S00C3.5000
%
T01
X00811000Y00021000
X00831000
X00851000
X00871000
X00891000
X00911000
X00931000
X00951000
X00971000
X00991000
X01011000
X01084000Y00094000
X00791000Y00021000
X00771000
X00751000
X00731000
X00711000
X00691000
X00671000
X00651000
X00631000
X00611000
X00591000
X00571000
X00551000
X00531000
X00511000
X00491000
X00471000
X00451000
X00431000
X00411000
X00391000
X00371000
X00351000
X00331000
X00311000
X00291000
X00271000
X00251000
X00231000
X00211000
X00191000
X00171000
X00151000
X00131000
X00140000Y00031000
X00148250Y00059000
X00131000Y00075000
X00148250Y00094000
X00111000Y00021000
X00091000
X00021000Y00091000
X00305750Y00049500
X00375750Y00049500
X00381300Y00275750
X00325000Y00294750
X00334500Y00309150
X00319500Y00324250
Y00338750
X00343750Y00350000
X00335750Y00362750
X00355000Y00406500
X00355250Y00484000
X00236000Y00419740
Y00403740
X00188750Y00373750
X00171000
X00128500Y00368000
X00127500Y00395990
X00087500
X00072500
Y00428490
X00021000Y00391000
Y00371000
Y00351000
Y00331000
Y00311000
Y00291000
Y00271000
Y00251000
Y00231000
Y00211000
Y00191000
Y00171000
Y00151000
Y00131000
Y00111000
X00313250Y00256000
X00462300Y00291500
X00481000Y00328750
X00497000
X00513000Y00385500
X00526000Y00422000
X00539000Y00420000
X00547500Y00451250
X00523000Y00459750
X00529857Y00488142
X00509857
X00489857
X00475715Y00502284
X00484500Y00450000
X00444500Y00440750
X00437150Y00409250
X00428650Y00400750
X00413850
X00405350Y00409250
X00413250Y00463750
X00549857Y00488142
X00569857
X00589857
X00609857
X00629857
X00649857
X00669857
X00689857
X00709857
X00729857
X00749857
X00769857
X00789857
X00685083Y00447667
X00649250Y00436000
X00795750Y00388250
X00811750
X00873750Y00366250
X00903750
X00903250Y00441250
X00888250Y00448000
X00869250
X00869857Y00488142
X00849857
X00829857
X00809857
X00889858
X00909858
X00929858
X00949858
X00969858
X00989858
X01009858
X01029858
X01049858
X01069858
X01084000Y00474000
Y00454000
Y00434000
Y00414000
Y00394000
Y00374000
Y00354000
Y00334000
Y00314000
Y00294000
Y00274000
Y00254000
Y00234000
Y00214000
Y00194000
Y00174000
Y00154000
Y00134000
Y00114000
X00461572Y00516426
X00447430Y00530568
Y00550568
Y00570568
Y00590568
Y00610569
X00402000Y00705750
X00401750Y00737500
X00402250Y00752000
X00416000Y00794000
X00436000
X00456000
X00472750Y00798750
X00472750Y00783750
X00505250
X00505250Y00798750
X00396000Y00794000
X00376000
X00336000Y00792500
X00352500Y00754000
X00335000Y00732000
X00292000Y00721750
X00263500Y00754000
X00280000Y00792500
X00237000Y00794000
X00217000
X00197000
X00179500Y00795390
X00171250Y00768390
X00159000Y00752640
X00148000
X00137000
Y00741640
X00148000
X00159000
Y00730640
X00148000
X00137000
X00123250Y00702000
X00145500Y00684440
X00123250Y00661740
X00127500Y00640490
X00147500
X00167500Y00640490
X00187500
X00215750Y00632240
X00233500Y00661750
X00234834Y00587166
X00334000Y00591000
X00342500Y00599500
X00358500
X00367000Y00591000
X00369750Y00613250
X00357000Y00636750
X00348500Y00645250
Y00675250
Y00691250
X00357000Y00699750
X00369000Y00705750
X00377500Y00714250
X00393500
X00323500Y00685750
X00323000Y00570500
X00314500Y00562000
X00331500
X00336250Y00538250
X00346250
X00356250
Y00528250
X00346250
X00336250
Y00518250
Y00508250
X00326250
Y00518250
Y00528250
X00316250
Y00518250
Y00508250
X00284750Y00508240
Y00528240
X00388500Y00586500
X00210250Y00764890
X00130000Y00794000
X00110000
X00090000
X00021000Y00725000
Y00705000
Y00685000
Y00665000
Y00645000
T02
X00264300Y00049500
X00289700
X00334300Y00049500
X00359700
T03
X00665750Y00405000
X00696750
Y00436000
X00665750
T04
X00138000Y00234750
X00238000
X00838000Y00627500
X00891500
X00941500
X00991500
X01071000Y00618000
Y00668000
Y00718000
X01008500Y00702500
X00958500
X00908500
X00838000Y00735000
X00453000
Y00655000
T05
X00411000Y00131000
X00476000
T06
X01070000Y00035000
X00035000
X01070000Y00780000
X00035000
M30
